<svg xmlns="http://www.w3.org/2000/svg" width="792" height="612" fill="#fbb040" stroke="#000" stroke-miterlimit="10" xmlns:v="https://vecta.io/nano"><path d="M398.414 65.105c22.314-.868 44.121 2.766 65.554 8.469 19.248 5.123 37.501 12.876 54.948 22.592 12.838 7.148 25.229 14.886 36.396 24.463 13.185 11.307 25.476 23.566 35.539 37.721 8.228 11.572 15.596 23.726 21.547 36.76 9.321 20.413 16.619 41.399 20.244 63.564 2.803 17.139 3.271 34.437 2.841 51.772-.489 19.675-4.099 38.848-9.399 57.728-4.575 16.299-10.42 32.139-18.689 46.951-16.495 29.552-37.717 55.198-63.859 76.774-21.165 17.469-44.973 30.12-70.521 39.848-15.519 5.909-31.521 9.21-47.945 11.262-15.202 1.898-30.448 3.346-45.626 1.545-14.692-1.743-29.289-4.603-43.777-7.679-13.967-2.965-27.006-8.764-39.872-14.899-23.116-11.024-43.957-25.383-62.598-42.88-21.759-20.425-39.926-43.643-53.069-70.547-11.536-23.615-19.115-48.476-23.022-74.497-2.397-15.966-3.197-31.985-2.323-48.057.999-18.359 4.837-36.246 9.681-53.963 3.397-12.426 8.908-23.956 14.009-35.675 7.659-17.595 17.965-33.574 30.325-48.172 18.462-21.806 40.411-39.431 65.512-53.068 25.584-13.898 52.72-23.357 81.545-27.711 7.072-1.068 14.216-1.838 21.355-2.218 7.048-.375 14.134-.083 21.204-.083zm-10.791 4.631l-17.31 1.109c-17.598.933-34.763 4.353-51.399 9.948-23.366 7.86-45.888 17.605-65.853 32.461-14.235 10.593-28.067 21.608-39.371 35.469-10.651 13.061-20.118 26.831-27.478 42.076-8.03 16.633-15.012 33.544-19.429 51.583-5.473 22.35-8.101 44.863-6.957 67.843a257.74 257.74 0 0 0 7.076 48.541c4.1 16.76 9.842 32.962 17.719 48.323 14.698 28.663 34.351 53.438 58.62 74.659 17.094 14.949 36.046 26.889 56.267 37.063 18.604 9.36 38.405 14.61 58.782 17.983 16.318 2.701 32.757 3.07 49.294 2.548 13.479-.427 26.78-2.077 39.878-4.832 17.693-3.721 34.318-10.492 50.464-18.78 13.563-6.963 26.244-15.112 38.373-24.205 24.675-18.497 43.897-41.946 60.503-67.65 7.172-11.103 13.559-22.723 17.779-35.312 3.77-11.242 7.272-22.594 10.358-34.041 3.525-13.074 5.337-26.486 5.824-40.021.294-8.171.417-16.382-.046-24.538-.626-11.027-1.096-22.16-3.04-32.996-4.439-24.73-13.101-48.075-24.791-70.36-16.144-30.775-38.535-55.952-67.337-75.218-27.001-18.062-56.559-30.333-88.5-36.661-19.467-3.856-39.163-4.922-59.426-4.992zM517.387 534.85l-10.032 9.726.408.546 5.597-3.547c4.363-3.304 9.33-4.14 14.555-3.566 3.253.356 6.071 1.779 7.711 4.912 2.484 4.75 1.501 7.595-3.457 9.796-3.279 1.456-5.146.332-5.331-3.199-.042-.813-.129-1.623-.221-2.742l-.854 1.281c-4.491-3.818-8.904-1.178-12.582.98-5.344 3.139-10.221 7.149-15.02 11.123-9.956 8.244-19.686 16.98-32.17 21.116-12.392 4.104-24.928 4.662-36.871-2.126-6.328-3.598-9.621-8.908-9.605-16.28.014-6.345 4.511-12.262 10.616-13.68 4.526-1.052 11.175 2.493 12.673 6.757 1.789 5.092-2.834 11.605-8.065 11.364-3.855-.178-6.274-4.341-4.333-7.621.325-.547 1.55-1.164 1.944-.958 1.267.665 2.375 1.659 3.46 2.622.247.22.151.826.912 1.236 0-1.199.216-2.451-.063-3.583-.269-1.1-1.045-2.074-1.787-3.456-2.845-1.423-5.934 1.123-7.83 4.193-1.52 2.46-1.155 7.001.967 9.172 2.313 2.369 4.87 4.498 7.334 6.744l-1.911.15c7.493 2.955 14.64 2.866 21.523-.356 7.466-3.496 10.282-9.712 8.832-18.917 2.39.895 4.673 1.051 5.524 2.235 1.23 1.711 2.233 4.3 1.909 6.282-1.104 6.769-9.259 13.447-16.96 14.568-1.246.181-2.476.473-3.712.714l.333 1.262c3.848-1.117 7.858-1.858 11.508-3.436 6.151-2.661 10.66-7.35 14.084-13.093 2.491-4.181 3.156-12.024-1.314-16.259-1.148-1.088-1.369-3.154-2.131-5.057l2.005-.196c8.935-.432 12.15 2.606 11.55 11.557-.408 6.088-2.501 11.577-7.654 15.448-.684.514-1.183 1.272-1.534 2.151 3.803-2.317 7.776-4.67 9.391-9.022 2.66-7.174 4.863-14.519 7.204-21.81 1.134-3.529-.681-5.955-3.479-7.892 3.363-2.706 7.031-1.718 9.093.414 1.688 1.745 2.27 5.497 1.84 8.112-.506 3.076-2.583 5.912-4.076 8.802-.821 1.59-1.843 3.077-2.773 4.611l.896.613 6.938-10.36c3.697-5.874 6.91-12.091 11.017-17.654 3.087-4.182 7.209-7.612 10.955-11.29 2.804-2.753 5.69-5.426 8.629-8.035 12.388-10.997 25.479-20.001 43.433-15.445 12.015 3.049 19.811 12.553 18.961 23.802-.558 7.369-4.331 13.102-10.926 16.354-7.197 3.55-14.671 4.006-21.529-1.039-6.291-4.628-6.407-13.81-.188-17.352 1.745-.994 4.272-.975 6.384-.784.836.077 1.871 1.814 2.099 2.941.101.493-1.515 1.771-2.493 1.961-2.752.536-3.313 2.653-4.157 4.699 1.743.665 3.381 1.229 4.97 1.908 6.431 2.75 13.347-1.522 13.452-8.607.049-3.288-.345-6.709-1.304-9.834-.538-1.753-2.51-3.182-4.064-4.484-4.27-3.58-9.704-4.683-15.308-2.951l4.467.33c-8 1.333-8 1.333-8.688 3.211l9.119 1.387.107-.396-5.521-2.856c5.362-1.43 10.634-.058 13.367 4.206 1.106 1.726.539 4.21-1.457 6.236-4.445-4.083-9.76-4.78-15.418-3.54-9.896 2.168-18.984 6.274-27.337 11.966-1.271.865-2.12 2.347-3.165 3.543l.119-.095-11.347 9.912.852.635-.071-.06zm48.103-5.947c.487.456.771.852 1.157 1.065 8.123 4.51 20.542-1.408 21.671-10.684 1.385-11.381-5.981-22.566-18.699-22.802 2.435.853 4.372 1.458 6.253 2.204 6.779 2.69 11.271 9.912 11.005 17.179-.378 10.314-11.966 18.991-20.292 12.663-.122-.092-.515.168-1.095.375zm-16.918-27.155l-.43-.697-12.969 8.19.733 1.159 12.666-8.652zm-87.786 79.368l.354.883 14.029-5.417-.317-.778-14.066 5.312zm-26.943-2.864c3.443 2.785 7.497 2.013 11.457 1.821l-11.457-1.821zm50.092-19.492l-.807-.363-3.871 8.063.981.442 3.697-8.142zM284.084 66.762c.099.595.495 1.377.255 1.76-8.756 13.943-20.154 24.658-36.302 29.546-3.127.946-6.32 1.823-9.256 3.211-4.032 1.906-8.225 1.095-12.312 1.16-14.004.222-24.106-6.044-27.794-18.512-2.372-8.021 1.246-17.287 7.996-22.023 7.086-4.974 17.726-5.423 24.409-1.032 5.896 3.874 7.037 11.498 2.449 16.823a9.99 9.99 0 0 1-2.849 2.284c-3.865 2.03-7.094.651-8.302-3.477-.313-1.066-.438-2.187-.805-4.094 1.456.46 2.483.737 3.477 1.108 1.521.568 2.895 1.489 4.159-.663 1.142-1.943 1.933-3.459-.201-5.284-3.168-2.709-7.476-3.221-11.019-1.025-3.395 2.103-6.289 4.596-6.809 8.901-.049.405-.255.847-.153 1.205 1.367 4.837 1.391 10.31 5.107 14.115 3.889 3.981 9.021 5.592 14.589 5.261 2.698-.16 5.368-.792 8.018-1.841-7.249.727-14.147.84-18.867-5.871-.874-1.243-.99-3.019-.98-4.988 8.215 4.596 16.362 8.19 25.799 6.955l-6.896-1.098-.246-1.329c2.41-1.057 4.78-2.214 7.236-3.148 4.855-1.848 9.899-3.265 14.593-5.448 3.453-1.606 6.472-4.146 9.685-6.27l-.383-.938c-.798.212-1.62.361-2.391.649-1.986.743-3.95 2.161-5.92 2.156-2.012-.005-4.203-1.114-5.942-2.291-.733-.496-.948-2.567-.563-3.615.245-.666 2.106-1.217 3.11-1.045 7.184 1.226 13.504-1.364 19.792-4.185.718-.323 1.356-.821 2.024-2.092-.893-.073-1.803-.295-2.676-.193-5.793.685-10.449-1.503-14.191-5.729-1.808-2.042-1.447-5.189.489-7.297s5.067-2.688 7.243-1.19c.565.389 1.071 1.239 1.1 1.899.021.459-.82.957-1.295 1.458 3.064 3.849 8.558 5.708 13.218 3.18 6.616-3.591 13.079-7.632 19.05-12.207 12.05-9.232 25.282-14.627 40.584-14.123 8.401.277 16.154 2.557 22.311 8.732 4.799 4.813 7.001 10.525 5.546 17.285-1.229 5.712-9.659 9.649-15.81 7.565-5.273-1.787-6.869-4.343-6.013-9.698.435-2.721 2.19-4.265 4.665-5.194 2.609-.979 4.373.471 5.926 2.144 1.334 1.437 1.303 3.067-.253 4.916-.603-.945-1.002-2.175-1.499-2.215-.861-.07-2.015.384-2.597 1.026-.389.429-.263 2.122.086 2.286 1.654.777 3.449 1.624 5.22 1.684 2.082.069 3.218-1.427 4.055-3.512 1.998-4.983-2.617-13.87-6.827-16.203-5.471-3.032-11.548-5.108-17.382-3.168-6.102 2.03-12.544 4.761-15.414 11.522-.966 2.276-2.197 4.893 1.479 6.337.674.265 1.007 1.397 1.577 2.25-2.313 1.779-4.822 1.691-6.386.197-1.688-1.612-3.122-4.061-3.493-6.336-.471-2.881 1.02-5.474 3.642-7.285 3.862-2.667 7.6-5.516 11.489-8.36-1.751.607-3.614 1.047-5.284 1.875-2.903 1.44-5.87 2.865-8.487 4.747-7.345 5.285-8.123 16.673-3.116 23.328-5.245 4.077-7.376 3.446-10.177-2.549-2.903-6.217-.738-11.632 3.056-16.192 3.287-3.95 7.69-6.971 10.808-9.706-3.828 1.859-8.841 3.539-12.193 8.784-3.14 4.913-6.729 9.528-8.522 15.125-.856 2.672-1.218 5.568-1.335 8.383-.052 1.247.757 2.889 1.718 3.73 1.316 1.152 1.855 2.629.943 3.581-.993 1.035-3.156 2.082-4.242 1.661-2.337-.905-4.678-2.173-5.036-5.479-.462-4.267.262-8.087 2.348-11.788.856-1.521 1.331-3.259 1.979-4.898l-.897-.444-7.37 12.849-.659-2.411-1.338 1.578.091-.042-.695 1.037-1.81 3.039 1.666-.844zm-48.32 31.47c-4.888 1.793-9.354-.426-13.989-1.366-8.136-1.649-12.396-6.91-14.169-14.597-1.366-5.915 1.06-13.172 5.379-15.231 3.559-1.698 7.394-2.817 10.304-3.896-5.15-.549-13.249 2.769-15.403 7.424-2.755 5.954-2.17 11.717-.208 17.544 1.271 3.775 3.808 6.534 7.78 7.65 4.902 1.378 9.779 2.921 14.766 3.881 1.688.325 3.677-.905 5.546-1.412 1.195.082 2.445.434 3.577.204 13.464-2.739 23.521-11.601 34.206-19.291 1.249-.899 1.933-2.583 3.057-4.152-.733 0-.999-.084-1.114.012-9.091 7.632-18.305 15.107-29.351 19.805-3.343 1.422-6.915 2.298-10.381 3.425zm59.583-47.703l.914.92 4.935-5.55-.675-.639-5.174 5.269zm239.416 37.639c4.885 2.153 9.551 3.983 15.354 3.521 7.506-.598 13.554-4.08 19.895-7.216 1.081-.535 1.753-1.898 2.804-3.096 1.496 2.978-.386 4.933-1.72 6.732-1.482 2-3.235 4.06-5.345 5.261-2.134 1.214-4.814 1.728-7.313 1.99-7.841.824-15.505.107-22.689-3.516-.612-.309-1.294-.477-2.167-.31l6.822 4.39c.479.295 1.154.374 1.74.378 1.749.012 3.553-.356 5.241-.054 8.793 1.576 17.12.726 24.8-4.18 8.26-5.277 8.805-14.077 4.832-21.59-2.112-3.995-7.806-4.88-12.92-2.419 2.393-3.061 4.363-6.867 9.529-5.024-4.461-2.276-10.153.946-10.428 5.538-.859.117-2.345.025-2.466.388-.461 1.381-1.058 3.17-.536 4.323.896 1.979 2.594 3.594 3.954 5.362l1.324-.989-1.274-3.638c.988-.05 2.667-.62 3.295-.043.757.694.978 2.415.803 3.598-.563 3.803-4.254 5.441-7.694 3.596-8.021-4.302-8.33-15.357-.572-20.495 6.885-4.558 17.845-3.585 24.998 2.22 9.127 7.407 10.785 17.932 4.512 27.902-7.068 11.229-17.481 14.286-29.961 12.561-3.225-.446-6.475-.712-9.712-1.061l.096.06c-3.684-1.466-7.528-2.626-11.023-4.456-11.856-6.204-22.337-14.125-29.833-25.455-.427-.645-2.459-1.743-.205-2.806.172.567.183 1.28.543 1.674l12.929 13.837c1.568 1.588 3.668 2.653 5.769 4.127l-10.86-10.789-8.452-8.78c-2.146-3.629-3.759-7.514-7.777-9.883-1.936-1.142-2.947-3.835-4.414-5.798-.63-.842-1.355-1.611-2.584-1.949 1.331 2.721 2.972 5.341 3.903 8.193.867 2.649 1.282 5.541 1.32 8.333.029 2.09-.645 4.517-3.321 4.86-2.697.347-5.122-.329-6.172-3.6 3.001-1.838 3.228-4.819 3.102-8.01-.253-6.357-7.597-19.655-13.464-23.455l3.188 4.05c4.294 5.742 4.195 16.277-.754 20.703-1.686 1.507-4.779 1.492-7.267 1.99-.343.069-1.177-.87-1.275-1.432-.093-.528.345-1.535.793-1.71 3.811-1.5 4.41-4.957 4.667-8.228.465-5.912-1.222-10.882-6.444-14.673-3.099-2.25-5.788-4.231-9.842-3.767-1.648.188-3.402-.542-5.108-.855l.097.053-11.568-2.2-.154 1.034 2.815.223-.176-.405c-4.732 1.057-9.618 1.691-14.14 3.329-2.72.985-5.224 3.222-7.202 5.449-3.311 3.728-1.615 9.538.841 12.445 1.67 1.978 4.053 2.009 6.2.284.509-.409 1.165-.637 2.068-1.115.263-1.524.128-2.906-2.579-2.78-1.067.05-2.182-.925-3.274-1.433 1.137-1.158 2.101-2.98 3.449-3.333 2.502-.655 4.816.541 6.438 2.668 1.679 2.201 2.089 4.589.984 7.21-3.477 8.249-13.478 6.854-17.89 2.931-4.481-3.984-4.466-13.445-1.414-17.96 4.933-7.298 12.045-10.804 20.45-12.282 18.23-3.205 33.905 2.55 48.134 13.563 4.533 3.509 9.056 7.059 13.831 10.215 3.818 2.524 8.143 3.633 12.806 2.303 2.272-.649 3.538-1.61 3.234-4.402-.114-1.062 1.441-2.742 2.643-3.414 2.15-1.203 4.194-.355 5.628 1.618 2.363 3.249 1.01 8.317-2.901 10.598-1.215.709-2.658 1.019-3.978 1.56-1.689.692-3.329 1.519-5.053 2.105-.572.195-1.427-.008-1.996-.317-1.606-.873-3.133-1.894-4.746-2.463 1.516 1.614 2.996 3.261 4.563 4.823.548.546 1.26.988 1.975 1.297 5.291 2.288 10.716 3.211 16.496 2.08 1.273-.25 3.568.394 4.051 1.323 1.04 2.003.212 4.303-2.165 4.872-2.812.672-5.775.753-8.683.964-1.269.092-2.559-.128-3.839-.207l-.353 1.198 32.186 12.247c-4.167 2.773-8.404 2.397-12.693.998-1.453-.474-2.795-1.317-4.264-1.703-.754-.198-1.675.242-2.521.393l-13.633-10.364-.463.649c4.375 3.705 8.726 7.445 14.175 9.636zm44.65-.452c6.931-9.293 4.039-20.694-5.31-22.508 7.996 5.95 9.917 13.39 5.31 22.508zm-8.115 9.474c-1.428.096-2.96-.112-4.267.336-6.617 2.271-13.216 3.167-19.942.51-.955-.377-1.964-.617-3.805-1.183 5.936 4.438 21.776 4.612 28.014.337zm10.903-4.601l.827.545 5.002-9.612-.71-.367-5.119 9.434zM317.859 574.968c7.202 4.604 15.658 4.132 23.648 5.519l-6.175-1.299c-5.476-1.273-10.521-3.358-13.714-8.316-2.151-3.341-3.173-6.998-.824-10.649.806-1.252 2.204-2.422 3.587-2.927 1.751-.641 3.187-.177 2.742 2.428-1.143 6.693 3.693 14.171 10.292 15.984 3.232.889 6.515 1.616 9.81 2.234 1.353.254 2.753-.021 2.472-2.035l-.074.064c1.184.104 2.619.688 3.509.226 3.772-1.958 7.844-3.714 10.94-6.506 4.41-3.977 1.82-12.58-3.893-14.443-1.873-.611-5.5.712-6.07 2.54-.561 1.802-1.523 3.985.736 5.119.547-1.258.739-2.859 1.626-3.512 2.38-1.746 4.426-.629 4.714 2.207.279 2.756-.602 4.981-3.187 6.036-2.535 1.034-4.829.145-6.672-1.821-2.633-2.808-3.524-7.909-1.932-10.879 2.133-3.981 7.174-6.331 11.745-5.516 8.061 1.439 10.271 7.73 9.932 14.618-.492 9.986-7.244 15.266-15.792 17.839-17.44 5.25-33.376 1.367-47.641-9.705-3.557-2.762-6.996-5.691-10.319-8.729-1.137-1.039-1.671-2.714-2.651-3.963-.461-.588-.744-2.391-2.231-.862-.132.135-1.147-.462-1.659-.845-3.529-2.631-6.814-5.684-10.613-7.829-3.214-1.814-6.959-2.812-10.583-3.712-1.322-.328-2.974.667-4.429 1.256-1.458-.129-3.275-2.374-4.321.585.957.075 2.094-.147 2.367.239 1.044 1.482 1.776 3.513-.4 4.357-1.506.584-3.778.54-5.183-.209-4.434-2.363-4.766-8.457-.879-11.674 2.38-1.97 5.029-3.13 8.223-2.497 2.381.473 4.849.66 7.133 1.414 2.291.756 4.402 2.056 6.766 3.202-4.79-7.735-11.427-12.2-17.266-13.843-3.736-1.051-7.353-.672-10.728 1.14-1.963 1.055-4.084 1.465-5.141-.468-.682-1.249-.279-3.572.445-5.007 1.468-2.906 4.441-3.555 7.418-3.231 2.885.313 5.721 1.08 8.915 1.096-1.258-1.098-2.344-2.588-3.803-3.227-7.854-3.445-15.63-7.237-23.79-9.75-4.035-1.242-8.838-.038-13.289.18-.724.035-1.797.523-2.061 1.099-1.292 2.815-2.909 1.467-4.816.647.397-.701.706-1.198.969-1.718 3.83-7.562 10.619-9.889 18.464-6.533 3.527 1.509 7.218 2.635 10.834 3.935l.294-.864-16.822-5.919h7.101c-7.801-2.085-14.975-.705-21.563 3.861-5.495 3.81-8.452 13.895-3.654 19.544 3.35 3.943 6.314 4.662 10.568 1.967l2.526-1.591v-4.472l-.846-.097-1.378 2.23c-1.971-1.254-2.033-3.021-1.052-4.542 1.223-1.898 2.959-3.768 5.571-2.66 5.622 2.384 9.279 5.591 5.88 12.878-2.799 6.001-7.977 8.514-14.088 8.849-6.295.347-11.943-1.413-16.723-6.171-6.377-6.349-7.293-18.505-1.467-26.672 4.573-6.409 10.931-9.636 18.684-10.464 12.896-1.379 23.664 3.092 33.876 10.762 12.316 9.25 21.714 21.002 31.264 32.787 2.508 3.095 3.999 6.459 5.801 9.83 1.517 2.835 3.996 5.156 6.049 7.705l.936-.684c-.758-1.097-1.567-2.162-2.265-3.298-2.359-3.844-4.731-7.713-4.466-12.48.243-4.365 4.504-6.99 8.317-5.081.591.295 1.301 1.771 1.112 1.997-3.053 3.663-1.968 7.959-1.234 11.756 1.319 6.827 2.456 13.955 8.002 19.082 1.494 1.381 3.127 2.611 4.697 3.91-.113.259-.398.643-.315.756 2.283 3.103 5.49 4.896 9.137 6.133l-1.093-1.311zm-105.592-74.553c-6.193 2.26-11.5 10.921-9.79 16.767.484-1.307.932-2.179 1.128-3.104 1.096-5.146 3.047-9.716 7.899-12.493.355-.203.479-.81.712-1.227 3.809-1.284 7.591-2.661 11.442-3.804 1.392-.413 2.95-.265 4.433-.373-5.821-1.243-11.769.51-15.824 4.234zm38.924 12.259l-.395.572L270.1 525.1c-4.508-5.982-8.267-12.404-15.137-15.836 1.461 1.628 3.302 2.897 4.713 4.537 1.217 1.415 3.968 2.245 2.793 5.422l-11.278-6.549zm-49.844 6.297c3.271 13.326 16.228 17.931 26.18 9.205-12.279 6.819-20.66 2.892-26.18-9.205zm50.581-11.513c-3.178-3.707-7.005-5.329-11.916-4.51l11.916 4.51zm21.567 25.139c-.153-3.657-2.696-5.117-5.361-6.423l5.361 6.423zm-45.731-26.427l11.509 1.223c-3.585-1.468-6.996-3.084-11.509-1.223zm-21.267 1.199l.611.677 8.936-7.476-.54-.633-9.007 7.432zm412.22-350.767c8.023-1.209 13.84 2.414 18.284 8.633 2.36 3.302 4.321 6.888 6.628 10.612-.256-4.3-1.881-7.922-4.043-11.384-.9-1.44-1.696-2.947-2.598-4.387-1.313-2.096-3.45-4.021-3.855-6.268-.772-4.291-4.237-5.683-7.062-7.432-5.848-3.622-12.343-4.982-19.331-3.358-1.623-2.119-1.536-2.602 1.017-3.226 6.34-1.55 11.904.862 17.276 3.726 2.576 1.373 4.897 3.225 7.418 4.917.146-.502.277-.792.232-.823-6.931-4.709-13.058-11.193-22.232-11.191-2.854.001-5.839.969-8.516 2.089-2.134.892-3.864 2.467-2.53 5.573.508 1.182-.064 3.516-1.008 4.477-1.471 1.496-3.573 1.121-5.286-.315-6.584-5.522-5.001-13.637 2.975-16.961 9.976-4.158 18.846-1.363 27.372 3.719 13.441 8.011 21.955 19.626 23.9 35.324.733 5.916.155 12 .1 18.007-.018 2.01-.269 4.018.067 6.083.721-3.015 1.058-6.197 2.266-9.002 1.304-3.028 3.126-5.959 5.273-8.46 1.955-2.277 5.415-2.294 6.941-.742 1.611 1.639 1.526 5.103-.136 7.34-1.889 2.542-4.035 4.95-5.539 7.706-2.172 3.984-3.868 8.228-5.767 12.362l1.024.706c.509-.498 1.067-.954 1.515-1.501.693-.851 1.135-2.126 2.009-2.546.822-.395 2.137-.099 3.083.277.334.132.562 1.615.248 2.108-1.42 2.236-3.018 4.365-4.657 6.449-.164.209-1.04-.143-1.923-.291 3.226 4.713-.689 8.613-1.318 12.846-1.145 7.707-3.232 15.273-4.441 23.097 1.169-2.024 2.574-3.951 3.461-6.092 2.085-5.031 6.26-7.682 10.771-10.002 2.242-1.152 4.523-.407 4.982 1.767.317 1.499-1.023 3.599-2.123 5.053-.673.892-2.289 1.072-3.48 1.572l.264.717c2.212-.797 4.956-1.031 6.525-2.511 3.08-2.908 2.407-5.682-1.063-8.873-.709-.652-1.388-2.168-1.092-2.865.355-.837 1.738-1.657 2.733-1.731 4.654-.347 8.062 4.375 7.517 10.169-.514 5.473-3.55 8.854-8.816 10.576-3.758 1.228-7.477 2.737-10.947 4.612-1.649.891-3.16 2.727-3.89 4.484-1.497 3.609-2.425 7.454-3.588 11.202l.889.323 4.27-9.323c.382.684.575.894.531.971-4.427 7.808-2.895 15.98-1.358 24.096.917 4.839 4.805 7.524 8.465 10.111 2.299 1.625 6.9-.288 8.958-3.248 1.237-1.779.563-4.53-1.634-6.18a4.49 4.49 0 0 0-2.215-.83c-.466-.039-1.244.417-1.406.834-.181.464-.002 1.397.356 1.649.368.259 1.142-.055 2.43-.191-.187 1.343.086 3.338-.663 3.856-1.149.794-3.906 1.264-4.38.645-1.246-1.627-2.352-3.976-2.188-5.926.256-3.069 2.602-5.098 5.757-5.553 3.436-.496 6.284.814 8.219 3.702 3.829 5.716.734 14.244-5.935 16.552-6.305 2.182-14.71-.64-18.498-6.144-3.98-5.786-5.898-12.173-6.75-19.152-1.728-14.165-2.37-28.564-7.747-42.067l-2.286-5.69c3.354-.002 3.354-.002 9.061 11.335 0-2.241.358-4.552-.068-6.708-1.229-6.212-2.463-12.455-4.288-18.507-1.629-5.4-4.646-9.884-10.688-11.603-1.334-.38-3.107-2.261-3.12-3.467-.016-1.47 1.278-3.475 2.601-4.335 3.256-2.12 6.125-1.727 8.828 1.149 2.211 2.351 3.924 5.166 5.923 7.725.368.472 1.179.602 1.541 1.076.441.58 1.003 1.451.857 2.032-1.192 4.78 1.65 9.392.025 14.155l1.009.059.837-7.628c.319-2.532.716-5.054.396-7.355-.487-1.426-1.385-2.849-1.396-4.278-.059-8.415-3.019-16.105-6.476-23.451-2.188-4.652-5.93-8.474-11.928-9.033-3.239-.302-4.194 1.788-5.583 3.724-1.404 1.958-.177 3.162 1.183 4.393.435.393.687.988 1.009 1.472-2.868 2.431-5.431 2.11-7.144-.859-1.549-2.685-1.371-5.491-.347-8.298.127-.349.4-.818.7-.905l10.306-2.877-2.361-.282 2.273-1.38-6.51-.901-.095.07zm-22.499-22.504c-3.789.473-5.39 4.781-3.604 10.503l3.604-10.503zm49.124 83.09l.809.116 2.146-13.579-1.17-.171-1.785 13.634zm3.018-3.894h-.513v15.054h.513v-15.054zm-52.153-74.631c5.64-3.333 5.64-3.333 3.783-5.194l-3.783 5.194zM156.915 441.955c-2.25-4.163-3.916-8.815-6.894-12.368-3.911-4.665-3.365-9.237-1.581-14.116.364-.993 1.987-2.087 3.071-2.131 1.896-.078 1.874 1.62 1.827 3.16-.145 4.756 1.211 9.176 2.454 13.755 1.746 6.438 5.622 11.146 9.788 15.832 1.254 1.409 3.021 2.362 5.094 3.175-.617-.838-1.207-1.697-1.854-2.512-4.02-5.052-8.031-10.074-9.061-16.777-.577-3.757.409-7.131 2.125-10.315 1.623-3.013 4.824-3.677 7.668-3.251 1.725.258 3.571 2.197 4.588 3.856.719 1.174.139 3.143.139 5.053-4.452-1.758-7.773.418-7.997 4.651-.09 1.689.123 3.56.782 5.098 2.6 6.063 5.977 11.642 10.958 16.13 1.417 1.275 4.141 1.234 4.039 4.254-.021.605 2.075 1.668 3.298 1.859 3.752.587 6.345 3.178 9.406 4.959l9.388 5.402c-5.952-1.925-11.966-4.036-18.079-5.81l-33.327-9.246c-5.185-1.329-8.928-.106-11.111 4.771-3.168-.884-4.757-3.561-4.524-7.539.183-3.122 2.019-4.558 4.929-4.84 4.341-.421 8.56-.159 12.378 2.329 1.005.655 2.149 1.098 3.229 1.637l.576-.639c-.84-.831-1.548-1.896-2.542-2.457-9.872-5.571-16.474-14.177-21.688-23.877-2.106-3.918-3.128-8.419-4.629-12.66l-6.797-19.061c-.43-1.142-1.545-2.151-2.571-2.916-1.958-1.459-3.722-3.3-2.367-5.567.764-1.278 3.207-2.239 4.837-2.161 2.767.131 3.94 2.414 4.416 5.079.542 3.031 1.324 6.02 2.445 8.957.97-11.091 3.178-22.074.686-33.158-.656-2.918-2.126-5.175-4.35-7.181-1.126-1.018-2.471-3.01-2.153-4.107.424-1.463 2.175-3.04 3.705-3.58 3.016-1.064 6.109-.166 8.02 2.382 2.3 3.067 5.262 6.169 3.151 10.7-.408.875-.248 2.015-.346 3.019l.371 2.975c-.522 2.362-1.218 4.7-1.533 7.089-.826 6.271-1.861 12.547-2.108 18.849-.259 6.594.272 13.222.538 19.832.039.959.521 1.901.798 2.851.219-1.847.009-3.554-.215-5.259-1.155-8.812-.103-17.537 1.032-26.258.26-2 .625-3.985.942-5.978l.254.062.927 2.653c1.133-1.523 2.502-2.887 3.296-4.529 1.655-3.425 5.022-4.336 8.012-5.614 1.293-.553 3.363-.19 4.68.508.961.511 1.446 2.213 1.728 3.478.061.271-1.675.908-2.55 1.436-1.722 1.037-3.815 1.784-5.037 3.249-2.025 2.428-3.492 5.324-5.179 8.033-.858 1.378-1.715 2.759-2.515 4.171-.721 1.274-1.364 2.593-1.507 4.262.281-.19.72-.32.82-.581 1.648-4.28 5.509-6.062 9.157-7.993 3.404-1.802 10.124 2.322 9.632 6.093-.157 1.206-2.428 2.95-3.799 3.016-3.016.144-5.603.969-7.126 3.382-1.875 2.971-3.915 6.168-4.564 9.522-2.422 12.505 1.953 23.316 9.525 33.041.726.932 2.226 1.261 3.365 1.87-1.052.995-2.778.563-4-1.16l-10.336-14.795c-.807-1.166-1.499-2.409-2.245-3.617-.312.768-.188 1.257.073 1.656 2.227 3.399 4.836 6.604 6.64 10.213 2.714 5.429 7.131 9.033 11.831 12.436.938.679 2.216.89 3.336 1.316l.36-.68-5.729-5.318zm-22.014-23.889l1.32-.189-5.046-22.407-1.199.255 4.925 22.341zm29.683 35.564l17.906 5.669c-5.636-4.501-11.885-4.885-17.906-5.669zm-32.636-40.651c.665 5.222 4.083 12.071 7.029 14.098l-7.029-14.098zm-9.167-184.63c.388.298.802.885 1.16.853 8.713-.792 13.32 1.677 17.528 9.5 3.194 5.938 5.472 12.117 5.006 19.027-.054.804.11 1.622.173 2.435l.981-.118c-.685-4.936-1.1-9.928-2.116-14.795-1.69-8.091-3.901-16.072-5.63-24.156-1.075-5.023-1.867-10.066-5.233-14.229-.635-.785-1.288-1.726-1.452-2.678-.202-1.171.099-2.429.183-3.648 1.195.373 2.785.396 3.494 1.199 1.075 1.217 1.837 2.907 2.199 4.516.69 3.07 1.005 6.224 1.708 9.361l.2-3.944 2.505 15.709.898.023c0-.773.114-1.565-.018-2.314l-3.655-20.155c-1.355-6.679-3.806-12.915-8.092-18.352-1.38-1.751-2.903-3.653-3.434-5.725-.443-1.727-.077-4.227.973-5.572.697-.893 3.349-.797 4.918-.375 5.786 1.559 7.069 6.589 8.17 11.547 1.054 4.745 1.883 9.539 2.819 14.309l1.508 7.504c.77-2.963 1.165-5.223 1.951-7.336 1.205-3.236 2.429-6.513 4.112-9.51 1.691-3.015 4.607-4.565 8.138-4.782 3.956-.243 6.183 1.138 6.974 4.895.174.828-1.021 2.714-1.811 2.857-9.862 1.778-12.636 9.899-14.929 17.608-2.253 7.578-2.999 15.611-4.263 23.468-.226 1.404.241 2.919 1.118 4.407.849-3.704 1.511-7.464 2.613-11.091.698-2.298 1.813-4.569 3.219-6.505.639-.879 2.438-.916 3.711-1.335-.187 1.139-.133 2.391-.604 3.397-1.671 3.568-4.269 6.879-5.131 10.607-1.328 5.744-1.523 11.751-2.18 17.649-1.264 11.338-.688 23.262-7.246 33.216-6.05 9.183-12.796 11.357-23.327 6.981-3.915-1.627-5.184-10.064-2.459-14.435 2.624-4.21 8.851-5.554 12.655-2.733 2.533 1.878 2.733 7.017.353 9.061-1.536 1.319-2.441 1.12-6.249-1.532.738-.802 1.487-1.539 2.133-2.358.246-.312.252-.813.368-1.227-.431-.114-.898-.397-1.288-.315-3.758.788-5.036 4.493-2.635 7.54 3.05 3.871 4.996 3.888 9.361 1.495 6.352-3.482 8.159-9.279 8.749-15.714.48-5.242 1.253-10.66.404-15.75-.573-3.433-1.488-7.824-5.417-9.794-3.738-1.874-7.647-3.404-11.432-5.189-6.494-3.063-8.787-7.477-7.284-13.794.874-3.674 3-5.987 5.831-6.367 3.605-.483 4.923 2.194 6.973 5.175-3.282-1.502-5.432-.643-7.147 1.57-1.978 2.795-1.626 4.66 1.747 7.296l-1.801-7.377zm33.719-30.985l7.179-4.973c-2.466-1.871-6.049.44-7.179 4.973zm-3.271 6.149c-2.752 3.745-5.436 7.645-3.812 13.068.388-2.456.504-4.635 1.113-6.667.661-2.205 1.78-4.273 2.699-6.401zm-10.963 68.511l.547.003v-7.828l-.547-.003v7.828zm-4.676-88.334l-2.871-3.296-.452.306 1.152 4.653 2.171-1.663zm510.336 235.211c-.643-3.917-1.005-7.907-1.996-11.734-1.235-4.763-2.845-9.503-7.722-11.984-1.162-.592-2.431-1.02-3.695-1.354-2.345-.619-3.055-2.114-1.899-4.251 1.864-3.45 6.331-5.262 9.731-3.117 3.233 2.041 5.824 5.1 8.428 7.467-.163-.525-.346-1.878-.967-2.981-2.917-5.177-4.588-11.211-9.859-14.799-1.077-.733-2.453-1.052-3.469-1.846-.894-.7-2.264-2.14-2.042-2.653.563-1.3 1.771-3.022 2.956-3.229 5.436-.95 8.474.942 10.524 6.047l5.574 14.276-.68-4.895 1.041-.139 3.771 30.004c2.323-8.184 4.235-15.583 3.837-23.461l-1.137 5.44c-.648-6.905 2.521-13.314 7.391-15.629 2.045-.972 4.194-1.277 5.613.568 1.485 1.933.9 4.091-.936 5.746-5.242 4.73-6.789 11.368-8.738 17.655-3.396 10.96-8.21 21.104-14.834 30.496-1.807 2.562-4.531 3.073-6.638 4.788 2.521-2.803 4.968-5.677 7.585-8.385 2.444-2.529 3.912-5.246 3.626-8.947-.231-2.993.071-6.037.292-9.047.033-.444.927-.825 1.145-1.005l-2.231-7.453c2.077 13.912-4.289 24.967-12.35 35.462l.688.396 1.161-.937c-1.687 2.111-3.145 4.475-5.124 6.26-1.993 1.798-4.505 3.021-6.518 5.083 2.181-1.09 4.276-2.422 6.561-3.215 3.789-1.314 7.646-2.578 11.577-3.289 2.567-.464 5.226 2.24 5.828 5 .682 3.122-1.436 7.117-4.503 8.497-3.44-5.182-6.133-6.547-12.479-4.854-10.96 2.923-21.794 6.318-32.685 9.502-3.163.925-6.341 1.803-9.59 2.407 26.465-17.968 28.813-28.733 29.939-38.28l-2.568.569 1.455-2.708-.572-.634c-.972.807-1.893 1.689-2.94 2.38-.406.269-1.467.323-1.601.1-.846-1.413-2.237-3.004-2.098-4.4.334-3.337 3.57-3.941 6.123-4.747 2.185-.689 4.273-.008 5.566 2.156 3.922 6.565 3.12 13.221-.219 19.574-2.057 3.913-4.522 7.802-7.58 10.947-3.375 3.472-7.637 6.081-11.809 9.296 1.304-.498 2.514-.757 3.503-1.371 8.487-5.276 15.275-12.164 19.737-21.195 1.441-2.917 2.607-5.993 4.278-8.769 2.015-3.348 1.027-6.687.77-10.113-.089-1.177.381-3.23 1.08-3.472 1.892-.65 3.516.572 3.772 2.539.496 3.803.657 7.649.944 11.314l2.575-.128 2.408-8.948zm2.628-8.132c.912-5.407-5.974-16.765-9.816-16.379 4.288 4.91 9.298 9.297 9.816 16.379zm3.867-6.246l1.054-.119-1.704-14.133-.729.083 1.379 14.169z"/><path d="M190.009 140.169l1.025-.641c-.98-4.004-3.55-3.31-6.619-3.083-6.217.46-12.13 1.657-17.668 4.5-4.913 2.522-8.108 6.683-10.66 11.443-.892 1.666-1.946 3.245-3.28 5.448l2.459-.349-.703 2.775c.841-1.191 1.289-1.604 1.467-2.11 2.714-7.708 9.184-9.28 16.166-9.633 4.462-.225 9.126 4.533 9.134 8.962.001.86-.713 2.252-1.382 2.453-.937.281-2.437.023-3.176-.61-2.968-2.547-5.809-5.087-10.327-2.598v-2.042c-.75.201-1.525.229-2.063.601-.649.45-1.097 1.19-1.632 1.806.715.208 1.426.586 2.144.6 6.184.111 10.256 2.755 11.87 7.794 1.185 3.698-2.178 8.341-5.954 8.056-.867-.065-1.683-.814-2.522-1.249.594-.905 1.241-2.609 1.772-2.574 2.226.148 2.292-1.101 1.686-2.391-.669-1.422-1.696-3.578-2.815-3.745-8.237-1.227-13.331 2.313-16.922 10.212-2.828 6.219-3.472 12.772-4.355 19.346-.203 1.507-.417 3.014-.994 4.526l-1.18-6.05-.697.784c-.117-8.709-2.141-17.151.059-25.908 4.188-16.668 13.888-28.157 29.705-34.67 5.099-2.1 10.255-3.868 15.785-2.267 7.833 2.268 11.928 6.483 10.56 14.926-.466 2.88-4.669 5.387-7.323 4.347-.74-.29-1.347-1.374-1.654-2.224-.718-1.983-1.215-4.043-1.906-6.435zm-43.029 39.276l4.445-11.874c-2.598 1.394-1.224-2.035-2.735-3.106l-1.71 14.98zm5.54-13.355l11.771-7.349c-3.22-.862-8.187 1.822-11.771 7.349zm36.595-34.316l8.035 6.864c-2.192-3.977-4.311-6.619-8.035-6.864zm472.939 222.247c-.298.222-.819.407-.86.668-.777 5.038-3.276 9.602-2.731 15.081 1.203 12.101 2.353 24.281-.228 36.389-.133.624-.396 1.22-.579 1.771l-1.123-26.071-.675.035.721 8.786-4.789-15.366c-.469-1.672-.16-3.56-.23-5.348l-.22-4.372-.954-.049-.361 6.483c-4.048-6.549-6.418-12.868-7.487-19.483-1.466-9.076-1.223-18.181 2.316-26.907 2.753-6.789 6.803-12.32 14.093-14.851 7.682-2.668 16.892 3.724 16.096 11.25-.427 4.028-4.875 8.609-8.646 8.905-3.747.293-7.539-2.483-8.572-6.701-.235-.958.558-2.589 1.394-3.313 2.837-2.457 6.642-1.327 7.983 2.045.318.801 1.189 1.381 2.174 2.467.459-3.589.651-6.404-2.257-8.3-2.763-1.799-6.311-2.061-8.629.034-7.912 7.148-12.517 15.922-12.248 26.863 1.344-6.642 3.94-12.651 9.166-17.947 0 .987.215 1.698-.035 2.149-1.56 2.815-3.593 5.431-4.735 8.396-.913 2.367-1.139 5.149-1.042 7.724.208 5.56.646 11.128 1.37 16.642.217 1.656 1.688 3.149 3.158 4.581-.427-2.963-1.024-5.913-1.246-8.892-.535-7.167 4.695-12.519 11.15-10.921 3.167.783 4.308 2.887 2.707 5.703-1.016 1.787-2.674 3.209-4.466 5.282l-.281-2.79c1.856-.537 2.163-1.885 1.341-3.319-1.605-2.798-3.705-.325-5.682-.341 2.741-.157 4.127 1.135 4.407 3.717zm-12.937 10.978l-.581-7.369-.94.043c-.748 2.475.404 4.879 1.521 7.326zm-99.249-262.701c5.015 3.31 10.799 4.21 16.541 4.956 5.871.761 11.266-1.506 16.648-3.496 1.047-.386 2.2-1.016 3.204-.865 1.55.233 4.101.817 4.275 1.658.308 1.48-.386 3.749-1.494 4.837-3.469 3.4-8.102 4.35-12.763 4.32-6.47-.043-12.347-2.424-18.235-5.293.438.412.859.841 1.315 1.229.466.396.918.854 1.458 1.109 9.473 4.48 19.416 7.432 29.917 6.321 6.507-.688 11.982-4.145 14.776-10.566.458-1.053.341-2.523.059-3.696-.586-2.428.015-4.207 2.243-5.338 4.405-2.236 10.011.092 11.542 4.762 3.146 9.592-.113 15.924-9.158 20.946-7.386 4.1-14.854 3.189-22.617 3.007-13.197-.311-21.48-8.875-30.275-16.817-2.485-2.244-5.165-4.273-7.749-6.409-.059-.048-.086-.242-.045-.282.133-.128.304-.216.457-.32-.003-.003-.099-.063-.099-.063zm40.547 19.954l-.178-.535c.178.063.352.167.533.183 9.03.797 16.362-2.431 22.044-9.425 1.836-2.26 1.046-4.646-.161-6.859-.793-1.454-1.683-3.055-3.973-2.484 3.244 4.216 3.655 6.328 1.064 8.975-2.377 2.427-4.955 4.925-7.933 6.427-3.525 1.779-7.574 2.525-11.396 3.718zm-17.112-3.496l-.26.779 12.257 4.286.267-.783-12.264-4.282zM171.848 484.194l-1.812-3.599c-.983 4.602-.183 6.278 4.58 9.408l2.4-6.509c3.677-.282 5.999 3.405 4.435 7.075-2.106 4.939-8.901 6.609-13.992 3.438-6.917-4.312-8.136-14.842-2.546-22.007 4.855-6.222 11.269-8.56 18.961-7.389 4.947.754 9.918 1.51 14.755 2.747 2.439.624 4.646 2.25 6.883 3.551 6.06 3.52 12.328 6.758 18.021 10.802 3.305 2.348 5.659 6.031 8.803 9.517-4.778-1.439-8.985-2.993-13.324-3.945-6.473-1.42-12.769-.616-18.822 2.312-1.086.525-3.143.398-4.029-.32-1.508-1.222-.906-3.157.448-4.283 1.617-1.346 3.421-2.896 5.371-3.322 4.109-.898 8.366-1.121 13.358-1.716-4.816-1.687-9.112-3.395-13.529-4.688-5.523-1.619-11.161-2.306-16.992-1.892-4.928.351-8.537 2.682-11.43 6.289-.797.994-.651 2.743-.938 4.146l-.601.385zm5.511-12.5l2.718-.039 10.948-.002.013-.647-3.907-.417 2.423-.479c-3.813-.179-7.57.175-11.317.618-.314.037-.557.676-.842 1.021l-1.388-1.002 3.257-2.351c-4.031.745-6.331 2.449-7.957 5.893l6.052-2.595zm-10.744 8.068l1.299.589 3.031-7.078-.888-.453-3.442 6.942zm43.714-353.611l-5.167-.859 4.845-2.125-.25-.667c-2.481.787-5.129 1.255-7.404 2.438-3.176 1.652-6.33 2.09-9.758 1.396-7.121-1.442-13.986-3.385-18.604-9.627-4.533-6.127-4.008-14.341 1.416-18.11 1.62-1.126 3.992-1.731 5.955-1.601 1.264.084 2.409 1.945 3.607 3.009-1.016.484-1.989 1.227-3.056 1.405-3.712.622-5.494 4.071-3.78 7.523.992 1.997 1.558 4.327 2.943 5.982 3.078 3.681 7.256 5.64 11.967 6.695 4.428.993 8.772 1.637 14.075.012h-9.581l-.059-.44 7.597-.632c-4.574-.66-9.555-1.046-14.365-2.164-5.24-1.217-8.443-5.23-10.627-9.88-1.22-2.597-.141-3.885 2.812-4.227.806-.093 1.603-.264 2.74-.457.539 1.059 1.366 2.145 1.666 3.361 1.68 6.813 8.827 11.847 15.833 11.016 3.046-.362 6.138-.519 9.128-1.151 8.294-1.755 15.359-6.272 22.762-10.016l-.352-.769-8.083 3.97c-7.593 3.883-15.257 4.338-22.943.384-1.317-.678-2.694-1.689-3.419-2.916-.514-.867-.424-2.784.214-3.452.688-.72 2.848-1.156 3.469-.639 4.613 3.843 10.009 3.038 15.391 3.66 6.94.803 12.839-1.509 18.994-3.494 1.814-.584 3.474-1.651 5.481-2.213-2.263 2.001-4.382 4.201-6.817 5.965-6.617 4.794-13.628 9.086-19.923 14.26-2.156 1.771-5.027 2.117-6.714 4.358l.007.005zm162.109 462.352c5.32-.676 12.316-7.6 12.751-13.95-.872.767-1.938 1.398-2.581 2.325-2.446 3.532-5.264 6.421-9.991 5.827-1.09-.137-2.066-1.183-3.094-1.811.839-.736 1.559-1.789 2.537-2.157 7.229-2.718 11.638-11.38 9.265-18.641-.721-2.207-1.467-4.492-2.705-6.418-1.215-1.892-3.071-3.37-4.589-4.971 6.518.489 12.584 2.167 16.675 7.885 2.556 3.572 4.147 7.547 3.98 12.017-.277 7.427-.177 14.919-1.236 22.239-.45 3.11-3.271 5.972-5.311 8.727-1.38 1.861-2.858 1.255-3.604-.806-1.177-3.254-.914-5.818 1.71-7.631 3.368-2.324 4.975-5.854 5.58-9.873.296-1.968.757-3.909.746-5.981-2.816 9.986-8.528 16.959-19.019 18.894-2.23.412-4.798-.383-7.058-1.104-.777-.247-1.615-2.046-1.463-2.98s1.383-2.003 2.379-2.374c.586-.218 1.614.853 2.482 1.263.784.371 1.619.634 2.432.944l.114-1.424zM140.7 371.622c.721-4.899 2.204-9.834 1.976-14.688-.305-6.481-1.617-12.976-3.124-19.316-.898-3.782-3.014-7.272-4.547-10.908-.289-.685-.413-1.438.014-2.478l8.557 11.423.679-.299-3.497-7.287c-.887-1.716-2-3.313-2.941-5.003-2.175-3.909-5.166-6.592-9.893-6.696-4.086-.091-5.711 1.863-5.152 6.603 1.058-.593 1.948-1.466 2.905-1.546 1.697-.144 3.69-.255 5.052.516.721.408.776 2.811.425 4.123-.786 2.933-4.023 4.937-7.385 5.035-2.83.083-5.933-1.907-7.09-4.549-2.26-5.158-.343-10.698 5.165-14.925 3.68-2.824 10.145-2.531 14.251.839 8.191 6.722 12.495 15.494 13.276 26.008.182 2.444.123 4.909.12 7.364-.003 1.849-.065 1.834-1.763 4.564-.238.384-.172.996-.15 1.498.336 7.511-3.025 13.728-6.878 19.722zm435.46 105.31c2.107-1.563 4.01-3.638 6.364-4.589 6.864-2.771 13.314-6.632 20.809-7.817 7.124-1.127 13.621.171 19.514 4.284 5.508 3.846 7.984 11.254 6.046 17.707-1.919 6.386-9.315 10.295-15.656 8.232-2.326-.757-4.319-1.921-4.758-4.654-.441-2.755.115-5.093 3.187-6.946l3.978 7.032c4.877-1.239 8.29-7.557 5.401-13.401-1.713 9.398-1.713 9.398-4.994 9.865 3.047-7.991-1.235-13.232-10.048-13.015-7.714.189-15.308.492-22.652 3.202-3.025 1.116-6.222 1.77-9.34 2.632l.041.088c.379-.319.715-.722 1.144-.945 11.592-6.063 23.761-8.398 36.722-5.709 5.837 1.212 8.093 5.099 6.229 10.864-.141.436-.254.88-.38 1.32l.973.222c.322-1.978.864-3.947.922-5.931.129-4.476-5.214-9.113-9.42-8.473-2.386.362-4.806.496-7.211.733l-.063-.371 1.414-.603c-10.026-.543-19.274 2.205-28.222 6.273zm38.661-8.121c7.814 3.864 11.698 9.824 9.744 18.94 4.571-5.569-.702-15.656-9.744-18.94zM403.769 47.382l1.476-11.449.881.091-.891 8.982.715.08c.093-.721.274-1.443.265-2.163-.079-5.999 3.385-10.078 7.548-13.681 2.951-2.553 6.874-1.756 7.393 1.396.12.723-.563 2.087-1.203 2.347-6.899 2.799-12.737 9.839-10.549 18.618 1.224 4.907 3.726 8.405 8.897 9.579.842.192 1.604.735 2.318 1.324-6.107-.586-11.914-1.817-17.071-5.516-5.13-3.679-8.391-16.315-4.704-22.085 2.667-4.174 4.178-9.035 8.195-12.392 3.96-3.309 8.33-5.191 13.522-4.67 3.842.385 4.99 2.188 4.13 6.098-6.829-1.553-12.343 1.111-16.751 5.937-4.597 5.03-5.613 11.17-4.171 17.504zM129.274 298.647l15.467-3.726-1.733-2.998c3.471-1.676 5.382-.752 5.563 2.669.253 4.776-.85 6.279-5.649 7.73-.365.11-.702.314-1.344.607 2.097 1.036 4.03 1.772 5.722 2.878 2.388 1.562 2.96 6.642 1.078 8.769-1.56 1.762-2.832.512-3.163-.911-1.032-4.434-4.231-5.525-8.106-5.935-1.722-.183-3.421-.57-5.149-1.061h6.138c-2.045-1.898-3.692-2.04-6.077-1.568-5.386 1.065-10.918 1.386-16.39 2.014-.48.056-.955.149-1.364.848l12.245-1.257c-2.841.995-6.015 1.541-8.55 3.115-5.061 3.143-13.438-1.443-14.817-6.386-.259-.927-.504-2.463-.021-2.891 2.572-2.278 5.172-4.697 8.188-6.229 1.475-.75 3.919.132 5.842.606 3.369.831 6.679 1.901 10.003 2.905.75.227 1.458.591 2.183.89l-15.262-.002.029.885 13.704-.042c.49-.004.975-.592 1.463-.91zm-19.811 2.122c9.496 1.835 19.016 1.708 28.538 0h-28.538zm274.198-250.18c.699-4.435.699-4.435 2.006-3.808.702-5.861-1.111-10.993-4.059-15.665-2.109-3.342-4.648-6.564-8.961-7.37-1.158-.216-2.41.005-3.535-.294-1.111-.295-2.786-.809-2.995-1.565-.254-.917.611-3.037 1.265-3.158 2.718-.501 5.884-1.351 8.265-.444 11.954 4.554 15.081 10.549 16.789 22.553.634 4.458-.002 8.913-2.362 12.297-2.131 3.056-5.75 5.473-9.218 7.085-3.488 1.621-7.6 1.902-11.438 2.77l-.272-.791c1.318-.634 2.583-1.438 3.963-1.875 7.667-2.429 9.77-13.833 6.56-19.572-2.274-4.063-5.221-6.136-9.27-7.603-1.017-.368-1.57-2.016-2.336-3.076 1.096-.44 2.234-1.342 3.28-1.245 6.03.559 8.861 4.088 11.389 12.015.932 2.926.635 6.243.929 9.746zm270.341 252.385l-5.49-2.344c-1.951-.838-4.652-1.177-5.648-2.66-1.101-1.637-.743-4.327-.702-6.553.005-.244 2.104-.449 3.435-.711-.388 3.377.379 4.789 3.571 5.127 2.62.278 5.027 2.249 7.665 2.735 3.582.66 7.294.619 10.951.879l.082-.834-11.132-.723.022-1.163c6.301 1.635 12.121-.049 18.006-1.995 4.744-1.568 8.59.932 11.852 4.043.83.792 1.361 3.028.846 3.889-1.516 2.527-3.252 5.278-5.629 6.813-1.743 1.124-4.68.815-7.002.511-2.29-.3-4.438-1.557-6.719-2.098-2.152-.511-4.396-.636-6.591-1.353l9.517.777.18-.877c-2.343-.388-4.779-1.374-7.004-1.021-3.198.508-6.239 1.997-9.351 3.059-2.446.835-4.955 1.522-7.314 2.555-.956.417-1.512 1.672-2.392 2.363-.739.58-1.688.896-2.543 1.329-.413-1.007-1.378-2.163-1.152-2.997 1.827-6.764 5.616-9.194 12.542-8.751zm25.436-.834l.031-1.193-16.961 1.055.06 1.028 16.87-.89zM415.813 548.104l-7.077 11.771c-2.229 3.741-.518 7.148 1.295 10.272 2.637 4.543 6.338 8.023 11.82 9.276.508 2.554-.752 3.603-3.017 3.874-.506.061-1.029.075-1.534.019-7.128-.811-14.346-10.754-12.89-17.73.472-2.253.926-4.51.705-7.107-.933 2.197-2.412 4.328-2.687 6.604-.602 4.991.58 9.769 3.555 13.937 1.838 2.575 3.75 5.104 5.759 7.547 2.83 3.441 6.029 3.835 10.048 1.533.709-.405 1.914-.801 2.422-.474.561.361.8 1.561.797 2.393-.01 2.76-1.801 4.088-4.272 4.353-5.007.536-9.474-.622-13.258-4.263-5.615-5.403-9.125-11.905-9.782-19.6-.965-11.302 4.005-19.305 15.717-22.369 1.02-.268 2.17-.036 2.399-.036zM393.688 16.083c-.42-.946-1.112-1.864-1.208-2.842-.263-2.661-.519-5.373-.248-8.01.092-.896 1.906-2.399 2.68-2.256 1.107.205 2.771 1.638 2.805 2.598.097 2.638.008 5.528-.991 7.906-1.771 4.216-2.195 8.938.039 12.869v-8.949l1.268 1.46c.465-1.289.709-2.723 1.441-3.835 1.426-2.166 3.592-2.57 5.965-1.701 2.508.919 3.175 3.451 1.014 4.929-5.378 3.68-6.736 9.461-9.236 15.194l-.899-5.832-.673-.063-.819 14.877-.984-.015c.136-2.575.66-5.207.292-7.708-.321-2.186-1.433-4.347-2.575-6.298-1.589-2.716-3.673-5.143-5.268-7.856-.927-1.576-1.774-3.457-1.825-5.225-.067-2.324 2.082-3.186 4.075-1.903 1.504.968 2.927 2.06 4.386 3.097l.761-.437zm-83.11 554.051c.287.061.576.17.861.162.17-.005.335-.193 1.102-.679l-9.468-7.975 4.534 1.164-3.09-5.293c-2.198-3.704-.938-7.409.989-10.422 1.15-1.799 4.015-2.668 6.275-3.5.764-.281 2.609.586 2.952 1.369.502 1.147.578 2.956-.004 4.023-2.915 5.343-2.688 11.588.715 16.26.82 1.125.852 2.846 1.714 3.916 1.757 2.186 3.765 4.188 5.809 6.118.903.853 2.145 1.347 3.483 2.154l-8.566-2.438-7.306-4.859zm-1.561-18.747l-2.446-.157 3.465 10.529.853-.273-1.872-10.099z"/><path d="M574.01 479.464l-4.403 3.525c.795 0 1.672.256 1.937-.039 3.134-3.495 7.344-2.623 11.174-2.545 2.689.055 5.408 1.021 8.014 1.886 1.287.427 2.747 1.305 3.399 2.41.74 1.255.664 2.991.943 4.518-1.415.101-3 .671-4.215.228-7.904-2.891-15.79-4.107-23.928-.942-.737.286-1.779-.21-2.687-.345 1.18-5.347 5.43-7.279 8.963-9.886l.844 1.278-.041-.088zm-46.18 44.994l7.81-3.215c3.692-1.243 7.743.083 9.646 3.376.69 1.194.861 3.33.229 4.445-.519.914-2.571.991-3.967 1.348-.347.089-.818-.106-1.174-.286-5.57-2.818-10.781-1.377-15.714 1.556-2.321 1.381-4.516 2.867-7.273 3.168l.067.061c.705-.819 1.358-1.691 2.126-2.446l8.368-8.101-.118.094zm90.983-367.927l-7.825 4.429c-2.026-2.222-1.273-6.754 2.059-9.182 6.907-5.035 13.383-4.296 18.921 2.298 1.716 2.042 3.144 4.327 4.703 6.5l-.974.882c-1.092-1.102-2.066-2.364-3.311-3.253-.978-.699-2.265-1.009-3.454-1.358-1.55-.456-3.135-1.066-4.711-1.084-1.828-.02-3.663.532-5.499.837-.005.002.091-.069.091-.069zm-37.094 314.428c3.492-2.993 9.074-7.582 14.408-12.443 2.244-2.045 4.047-4.604 5.859-7.07.392-.533.291-1.93-.146-2.48-1.42-1.784-1.852-4.943-.543-5.968 1.438-1.124 5.505-.203 6.647 1.506 1.478 2.206.951 5.186-.597 7.406-3.729 5.352-9.565 8.109-14.214 12.239-4.141 3.679-9.484 4.818-11.414 6.81zM457.38 34.481c4.134 2.131 8.371 4.085 12.368 6.446 3.49 2.061 4.818 9.424 2.048 12.285-1.323 1.366-3.842 1.934-5.881 2.095-.997.079-2.134-1.6-3.482-2.71 5.399-2.21 5.861-3.885 3.53-8.782-1.898-3.989-5.414-5.939-9.039-7.836-.609-.318-1.292-.496-2.505-.95l3.067-.488c-.009-.007-.106-.06-.106-.06zm-61.435 549.673c1.172 5.331 2.604 10.623 3.395 16.011.346 2.353-.304 5.016-1.144 7.303-.357.975-2.523 2.045-3.567 1.799-1.084-.257-2.611-2.11-2.533-3.162.226-3.093.546-6.457 1.957-9.117 1.826-3.444 2.376-6.843 2.23-10.552-.032-.804.068-1.613.108-2.421l-.446.139zm-198.42-121.585l-10.625-6.936c-2.591-1.769-3.792-4.478-4.412-7.452-.518-2.485.395-4.763 2.478-5.771 1.185-.574 3.284.095 4.693.777 2.298 1.114 1.968 3.127.749 4.915-2.089 3.063-2.197 5.124.319 7.821 2.147 2.302 4.611 4.307 6.935 6.443l-.137.203zm199.524 112.424l1.472 7.782c.81 4.479 4.642 6.741 7.299 9.831 1.806 2.1 2.089 6.253.098 8.247-1.402 1.405-3.421 1.039-4.087-1.11-1.56-5.03-2.97-10.118-4.132-15.253-.689-3.043-.793-6.22-1.16-9.337l.51-.16zm45.845 1.012l-1.25-3.158c2.166-.753 4.806-1.123 6.73-2.497 1.856-1.324 3.459-3.498 4.278-5.642.822-2.15 2.216-2.454 3.712-2 .662.201 1.336 2.13 1.139 3.099-1.155 5.673-9.104 10.995-14.609 10.198zM158.963 149.653c6.648-9.843 25.707-14.092 28.224-7.586-8.464-2.767-15.376.737-22.087 4.986-.92.582-1.589 1.568-2.52 2.125-1.035.62-2.236.964-3.365 1.428l-.252-.953zm190.735 426.253c-6.356.02-12.235-.818-15.343-7.543-1.335-2.89-.893-4.757 2.316-6.636.341 5.945 4.658 8.853 8.864 11.815 1.292.91 2.715 1.632 4.083 2.434.007-.005.08-.07.08-.07zM140.137 269.185c-.351-5.015-2.776-8.545-7.369-10.699-1.926-.903-2.448-2.831-1.348-4.312.521-.703 2.945-.748 4-.169 4.376 2.401 5.094 6.765 5.214 11.247.035 1.306-.321 2.622-.497 3.933zM442.07 36.297c2.998.334 6.097.305 8.971 1.094 3.707 1.019 5.698 4.855 4.694 8.086-.177.568-.696 1.216-1.218 1.42-.314.123-1.194-.428-1.38-.865-2.137-5.016-6.416-7.305-11.363-8.782l.296-.953zm-91.278.935c-7.165-.173-11.16 3.713-14.462 8.72l-1.254-.602c.155-1.502-.136-3.257.545-4.461 2.397-4.236 9.661-6.169 15.171-3.657zm300.396 226.187l2.81-8.1c.641-1.552 4.609-2.438 5.639-1.16.527.657.406 2.721-.203 3.25-2.338 2.031-4.993 3.698-8.246 6.01zM138.409 364.718l-.372-2.975c.208-.285.512-.867.617-.834.513.165.974.495 1.453.767l1.339-.541-3.327 14.771a18.24 18.24 0 0 1-.255-.063l1.506-8.976c.121-.817 1.377-2.351-.961-2.149zm509.517 54.183l-2.404 8.949c-.277-.76-.935-1.598-.782-2.246.525-2.239 1.314-4.42 2.078-6.597.051-.146.724-.075 1.108-.106zM210.324 126.148l-6.091 1.775-5.67 1.114-.184-1.138 11.95-1.748zm375.727.857l9.973 1.766-.133.792-9.873-1.873.033-.685zm-363.987-23.242h8.817l.007.471-8.901.424.077-.895zm62.02-37.001l-1.664.842 1.81-3.039.695-1.037-.091.042-.75 3.192z"/><path d="M234.877 380.737c-1.994 2.121-4.165.423-6.115.05-2.312-.442-4.56-1.279-6.942-.928l-8.424 1.57c-2.885.82-4.119 4.321-1.928 6.318 2.71 2.473 5.924 4.985 9.354 5.969 11.595 3.323 23.27 6.595 35.121 8.746 18.907 3.433 37.916 6.508 57.001 8.691 17.669 2.021 35.478 3.321 53.254 3.772 23.646.601 47.328.39 70.982-.101 12.959-.268 25.94-1.405 38.826-2.895 23.168-2.677 46.471-4.847 69.039-11.1 10.905-3.022 21.491-7.192 32.243-10.78 3.409-1.137 4.434-4.366.824-7.216-5.295-4.181-16.793-3.832-21.589.762-.453.435-.959 1.543-.757 1.796.646.813 1.522 1.726 2.472 1.968 4.199 1.072 8.455 1.924 11.491 2.591-1.726.583-4.488 1.591-7.297 2.444-3.095.942-6.183.879-8.665-1.438-2.301-2.146-2.633-4.92-1.828-7.937.73-2.737 2.826-4.193 5.172-4.717 4.97-1.11 9.939-1.834 15.162-.476 3.572.929 6.357 2.642 8.932 5.009 2.043 1.879 2.924 4.247 1.1 6.554-2.179 2.755-4.752 5.209-7.263 7.685-.979.964-2.252 1.629-3.042 2.991l9.818-5.821c-.251 5.07-.251 5.07-13.603 17.057l11.419-7.086-3.299 4.171 2.159.388-9.248 6.816c1.581-.446 2.759-.623 3.789-1.111 1.243-.589 2.361-1.443 4.026-1.697l-4.665 6.749 4.264-2.858.734.821-4.404 5.234-.834-.504 4.709-1.738-3.523 5.795 1.858-.119.207.698-10.043 4.756.207.65 8.13-2.966-1.802 2.871 2.258.219c-.164.268-.263.535-.447.713-5.134 4.967-11.686 6.903-18.33 8.799-14.886 4.247-29.962 7.578-45.312 9.541-10.344 1.322-20.72 2.511-31.116 3.294l-50.529 3.109c-13.507.537-27.046.425-40.568.314-11.559-.094-23.147-.16-34.665-1.011-19.692-1.455-39.34-3.504-59.005-5.321-20.954-1.936-41.496-6.214-61.884-11.219-4.591-1.127-8.979-3.274-13.264-5.358-1.873-.911-4.311-1.843-3.69-5.211.293-1.594-1.063-3.491-1.724-5.398l2.945 1.202.269-.492-3.11-3.383.299-.443 7.767 4.627.353-.423-7.355-5.58.329-.522 9.209 4.753c-3.248-3.522-8.854-3.955-11.136-9.655l6.828 2.769c-3.505-2.902-7.899-4.855-8.822-9.56l8.937 6.959.571-.683-7.513-6.429.364-.446 6.859 2.954.212-.372-9.992-6.035.693-1.314 16.418 6.833.288-.628-10.185-5.079c-1.625-.795-3.702-1.122-4.838-2.345-1.451-1.561-2.156-3.813-3.464-6.3l14.6 6.612.295-.682-11.503-6.343c-5.246-2.928-6.536-8.715-2.774-12.822.663-.724 1.875-.927 2.799-1.433 1.445-.789 2.783-1.835 4.304-2.412 5.425-2.058 10.876-.724 16.266.286.567.105.858 1.681 1.277 2.574l.064-.093zm150.261 59.683l-3.248-13.457c-.186-.735-.638-1.924-1.09-1.985-2.655-.359-5.347-.446-7.467-.587 1.298 2.848 2.665 5.147 3.413 7.634 1.589 5.285 2.821 10.678 4.277 16.004.434 1.581.979 2.9 3.265 2.898 2.404-.002 2.196-1.658 2.649-2.978l3.958-11.792.988 3.443c.784 3.177 1.324 6.438 2.434 9.495.415 1.143 2.139 1.812 3.265 2.696.691-.989 1.682-1.886 2.023-2.983l6.179-20.546c.204-.66 1.37-1.577 1.876-1.46.77.18 1.507 1.068 1.964 1.832.327.547.079 1.405.25 2.085 1.693 6.734 2.214 13.39-1.093 19.904.057.051.207.302.354.3l11.952-.153c7.102-.024 6.101.503 6.679-6.187.014-.161-.185-.342-.535-.943-3.205 2.472-6.667 4.455-10.933 2.766v-7.628l7.661 1.201v-6.401c-7.809 2.939-8.669 2.325-7.716-4.892 3.72-1.981 6.829-.256 9.907 1.811.366-5.504.188-5.954-4.677-6.019-6.833-.091-13.67.191-20.505.34-.249.006-.49.289-.927.563l1.943 2.209-3.983 13.288-.952-.115-3.13-12.951c-.451-2.094-1.583-2.931-3.345-2.931l-5.436 15.539zm-103.21-22.739l-.007-.86-9.631-1.126c3.087 5.445.815 10.017-.196 14.757-2.129-3.309-4.151-6.61-5.602-10.146-2.552-6.223-3.334-6.919-9.888-7.004 0 2.423.251 4.873-.058 7.252-.474 3.646-1.199 7.276-2.094 10.845-.357 1.427-1.586 2.614-2.146 4.02-.262.658-.029 2.209.238 2.272 2.341.561 4.741.877 7.763 1.369-3.77-6.61-.248-11.869-.08-18.177.679 1.196.915 1.526 1.064 1.891l5.995 14.76c.969 2.58 3.038 3.098 5.146 2.814.824-.111 1.739-1.953 2.032-3.149.8-3.268 1.096-6.662 1.958-9.908.964-3.635 1.401-7.685 5.506-9.61zm186.362 19.27l1.103-.763c.974.64 2.19 1.087 2.87 1.956 1.634 2.089 2.988 4.394 4.516 6.569.436.621 1.045 1.518 1.633 1.564 2.283.183 4.591.074 7.479.074l-9.381-12.092 1.572-1.23c2.308-1.894 2.89-4.397 2.345-7.18-.554-2.823-2.925-3.901-5.262-3.886-4.872.032-9.741.611-14.608 1.004-.195.017-.357.431-.528.648 3.04 3.461 4.462 18.096 2.065 23.463h9.418l-3.222-10.127zm-141.761 10.868c7.505.594 12.681-4.526 13.299-13.156.517-7.222-4.412-13.078-11.5-13.666-7.568-.626-13.466 4.622-14.03 12.625-.545 7.758 2.631 14.534 12.231 14.197zm-40.503-5.757c1.183.438 2.264 1.104 3.398 1.212 3.553.333 7.136.354 10.689.687 4.69.438 7.495-2.019 9.434-5.858 2.608-5.166 1.796-11.219-1.941-15.095-2.939-3.05-14.542-5.927-17.844-4.289-.47.232-.749 1.95-.704 1.969 2.547 1.035 1.502 3.074 1.181 4.674-1.105 5.519-.704 11.421-4.213 16.7zm211.989-22.796c1.239 2.152 2.432 3.503 2.831 5.057.963 3.742 1.531 7.586 2.306 11.379.468 2.287-.806 3.771-2.657 4.139-2.068.412-4.948 1.045-5.902-1.692-2-5.735-3.502-11.629-.898-18.192l-10.848 1.532-.52 1.078c4.124 1.399 3.608 4.683 3.955 7.678.258 2.22.668 4.444 1.262 6.598 1.59 5.759 7.243 9.387 12.581 8.21 6.31-1.39 8.367-4.949 7.751-12.025-.416-4.775-3.158-9.701 1.105-15.059l-10.966 1.297zm-135.14 12.422c2.06-3.736 1.661-6.901-1.334-7.698-8.391-2.234-15.848-.893-18.478 8.728-2.257 8.255.37 15.015 9.133 16.495 3.726.63 7.647.105 11.571.105.188-2.666.202-4.617.496-6.526.279-1.82.85-3.596 1.436-5.971-2.22-.283-4.666-.697-7.127-.855-.925-.06-1.889.473-2.835.735.475.769.845 1.634 1.446 2.286 1.375 1.491 2.038 5.447.48 6.48-1.12.741-3.179.24-4.776.003-.7-.104-1.373-.857-1.92-1.444-3.23-3.467-3.751-10.039-1.159-14.046 1.868-2.888 5.557-3.94 8.565-2.132 1.674 1.006 3.024 2.553 4.502 3.84zm163.112-10.804c.333-4.14-.452-5.241-4.53-5.465-1.701-.094-3.468.161-5.139.544-3.229.742-5.482 3.243-5.696 6.017-.267 3.482 1.487 6.354 4.82 7.692 2.276.913 4.75 1.442 6.848 2.647 1.145.658 1.688 2.362 2.503 3.595-1.459.893-2.834 2.018-4.41 2.574-.738.261-1.881-.536-2.811-.923-1.157-.481-2.285-1.033-3.426-1.554.021 1.333.002 2.67.081 4 .034.576.273 1.139.506 2.045 2.63 0 5.165.109 7.688-.025 4.072-.217 7.177-3.581 7.94-8.396.479-3.015-.954-5.117-4.988-6.775-2.258-.929-4.757-1.296-6.96-2.32-1.054-.489-2.264-1.88-2.332-2.932-.082-1.264.891-2.714 2.798-2.296l7.108 1.572zm-69.716 27.449c-2.091-2.019-4.536-3.196-4.508-6.43.044-4.962-.443-9.929-.708-14.953h5.776c.643-3.385.313-4.014-2.84-3.99-4.186.031-8.376.234-12.55.558-5.065.393-6.407 3.001-4.131 7.928 2.604-.962 3.156-5.458 7.109-4.227l.973 14.385c.191 2.605 1.673 5.476-2.491 7.094l.865.465 12.505-.83zm79.188-32.415l.928.488c.818 7.506 4.113 14.715 2.019 22.611l8.3-2.104-4.886-21.811 8.488 2.247-.967-7.05-20.313 3.605 1.048 6.632 5.383-4.618zm-291.35-5.276c0 2.422.172 4.47-.042 6.476-.282 2.629-.669 5.281-1.38 7.82-.807 2.883-2.181 5.61-2.945 8.5-.188.71.901 2.431 1.637 2.587 2.493.53 5.09.566 7.647.791-3.364-2.801-1.845-6.057-1.388-9.131.314-2.117.533-4.265 1.063-6.329.733-2.86 1.717-5.656 2.739-8.948l-7.331-1.766zm313.1-21.087l-.232.578 5.781.719.22-1.088c-.974-.355-1.938-.953-2.925-.997-.935-.04-1.896.503-2.844.788zm-166.378 22.819V306.277h-116.08c2.131 44.15 20.035 78.916 57.739 102.899-6.824 1.796-15.058.156-19.978-3.812-26.98-21.755-42.427-50.02-45.316-84.4-1.662-19.762-1.175-39.719-1.309-59.59l-.077-85.823v-3.802h259.174l.007 26.509.198 39.975-.6 72.557c-.641 26.391-8.574 50.576-24.225 71.966-6.913 9.448-14.832 18.113-24.671 24.597-2.699 1.779-6.546 2.009-9.932 2.493-2.7.387-5.501.078-8.096.078 4.074-3.015 8.595-5.722 12.326-9.259 6.712-6.36 13.279-12.935 19.32-19.927 13.845-16.021 22.328-34.623 25.089-55.68.809-6.161 1.085-12.393 1.635-18.942H399.979c-.053 1.103-.147 2.186-.147 3.27l.005 93.513c.001 2.253-.015 4.521.22 6.756.222 2.116-.687 2.779-2.611 2.731-2.123-.052-4.249-.012-6.615-.012zm124.661-230.807h-115.69l.002 3.362.311 29.498-.262 77.768c-.014 4.033-.004 4.036 3.997 4.037l108.814.019c.888 0 1.774-.116 2.828-.189V181.567zm-240.462-.204v114.872h3.356l109.162.083c2.667.006 3.199-.941 3.196-3.376l.021-108.242c0-1.096-.117-2.192-.181-3.338l-115.554.001zm311.625 97.441c.877-4.674 1.958-9.321 2.577-14.029.657-5.001 2.766-9.15 6.188-12.734 2.395-2.508 4.887-2.936 7.739-1.087.446.289.637 1.56.398 2.157-.27.671-1.119 1.153-1.787 1.614-4.647 3.208-6.397 7.873-6.944 13.263l-4.292 40.287c-.306 2.698-1.208 5.328-1.158 8.273.561-1.587 1.289-3.137 1.655-4.768 1.856-8.272 3.113-16.723 5.623-24.787 1.27-4.082 4.577-7.603 7.28-11.135 1.567-2.049 4.001-2.373 6.414-1.181 1.7.84 2.063 3.326.451 3.871-4.768 1.612-6.003 5.995-7.668 9.754-3.475 7.842-6.193 16.018-9.664 23.862-1.325 2.996-2.856 6.32-6.49 7.615-.38.135-.592.736-1.117 1.434h1.91l-1.277 2.582.51.35 6.73-9.741c2.523-3.574 4.649-7.606 7.815-10.486 2.147-1.953 5.737-2.602 8.8-3.08.824-.128 2.316 2.385 3.009 3.91.247.544-.932 1.779-1.541 2.641-.218.308-.656.568-1.032.637-8.934 1.632-14.361 7.876-19.483 14.614-2.868 3.772-6.005 7.339-8.968 11.04-.545.679-.839 1.559-.905 2.647l11.169-7.869c3.524-2.529 7.437-3.519 11.637-2.589 1.42.313 3.248 1.27 3.794 2.442.782 1.682.562 3.83.77 5.778-1.725-.216-3.444-.515-5.176-.624-1.487-.094-3.059-.255-4.471.101-7.736 1.949-14.152 6.176-19.967 11.561-5.555 5.144-11.406 9.967-17.047 15.021-1.804 1.615-3.353 3.515-4.83 5.509 6.963-3.049 12.057-9.706 20.345-10.227l-2.79-.339c9.594-5.915 19.084-3.063 22.63 6.724 2.187 6.036-1.158 11.767-7.355 12.47-.79.09-2.173-.141-2.351-.591-.359-.908-.424-2.238-.004-3.098 1.953-3.987 1.057-7.014-2.829-9.205-4.981-2.81-10.172-1.983-14.794.166-5.7 2.653-10.913 6.354-16.325 9.623-.83.501-1.595 1.11-3.065 2.145 2.271-3.638 4.443-6.359 5.802-9.44 3.66-8.3 7.265-16.65 10.278-25.196 1.176-3.335.966-7.256.852-10.893-.039-1.259-1.446-3.009-2.672-3.578-2.177-1.012-3.068-2.299-2.508-4.529.582-2.317 3.118-3.843 5.451-3.419 3.565.648 7.444 5.576 7.725 10.125.35 5.694-1.271 10.912-4.281 15.723-1.13 1.807-2.244 3.623-2.812 5.905 1.443-1.813 2.977-3.56 4.307-5.451 1.937-2.752 4.398-5.385 5.425-8.471 1.648-4.952 2.322-10.23 3.374-15.378.451-2.209.867-4.428 1.207-6.656.369-2.42.818-4.851.902-7.287.188-5.441-1.187-10.524-4.16-15.114-.223-.343-.961-.354-1.725-.305 5.422 6.701 5.462 14.241 4.235 22.545-1.853-11.705-3.133-23.289-18.96-22.927-.298-3.22-.456-6.492 2.848-8.616 3.808-2.447 7.588-2.155 11.155.312 4.458 3.083 5.95 7.955 7.922 12.521 2.539 5.876 2.371 11.915.483 18.074l-1.106-1.463-2.002 10.3 1.014.13c5.72-13.389 6.418-27.238 3.128-41.452l.004.019zm-26.98 81.084l.686.605 7.252-10.004-.832-.602-7.106 10.001zm-139.327 12.513c-.043-.379-.149-.872-.149-1.366l-.094-47.319c-.013-2.45.806-4.176 3.055-5.12 10.1-4.243 20.151-3.901 29.97.763 1.191.565 2.266 2.753 2.283 4.202l.173 48.23c0 .879-.555 1.756-.909 2.805-5.975-5.473-12.805-5.982-19.85-5.019-4.827.66-9.58 1.85-14.479 2.824zm3.302-10.833c10.406-1.7 20.178-2.496 29.792.857-9.532-5.518-19.28-5.346-29.792-.857zm29.434-17.921c-5.426-3.685-27.771-2.861-31.257.948 10.277-2.807 20.503-1.513 31.257-.948zm-27.753 7.603c9.319.801 18.777-1.246 27.906 2.149-8.988-5.399-18.493-3.397-27.906-2.149zm27.273-24.65c-8.317-3.128-17.223-3.22-26.729-1.107l26.729 1.107zm-1.225 7.503c-9.196-2.228-18.509-2.95-27.836 0h27.836zm7.044 40.228v-29.789c10.636-3.621 21.559-1.832 32.444-1.109-10.715-3.687-21.508-3.454-32.704-.071l.071-21.511c.015-.815.842-1.842 1.578-2.384 7.449-5.482 22.038-5.254 30.175-.313 1.13.687 2.055 2.683 2.07 4.084l.193 45.816c.013 2.284-.84 3.247-3.098 2.879-.904-.148-1.854-.207-2.694-.535-8.18-3.195-16.244-2.556-24.215.704-1.239.507-2.341 1.354-3.82 2.229zm32.36-12.897c-10.15-3.438-25.854-3.649-30.071 0h30.071zm.348-9.093c-4.624-4.303-25.496-4.088-31.183.396 10.549-2.717 20.741-2.086 31.183-.396zm-30.159-25.212c9.655-1.624 19.343-1.984 29.063-.016-9.705-4.035-19.385-3.244-29.063.016zm-.594 6.854h27.951c-9.39-2.636-18.753-1.599-27.951 0zm-147.785 40.886c-.045-4.271 2.091-8.232 6.342-11.036 4.224-2.787 8.143-5.805 10.123-10.75.513-1.284 1.529-2.432 2.513-3.45 3.975-4.116 9.334-3.554 12.57 1.117 2.67 3.855 5.452 7.638 8.301 11.361.777 1.017 2.021 1.662 2.971 2.563 1.762 1.671 3.809 3.176 5.124 5.157 3.071 4.629 2.585 8.835-.996 12.872-3.519 3.967-7.921 5.048-12.74 2.85-1.924-.878-3.863-2.011-5.357-3.475-2.309-2.261-4.303-2.17-6.741-.334-1.869 1.407-3.922 2.597-5.984 3.717-7.061 3.835-16.256-1.747-16.126-10.592zm-84.443-19.332c.976 1.39 1.837 2.881 2.959 4.14 1.223 1.374 2.688 2.531 4.047 3.784l-.55.643-8.492-6.914-7.431-5.907c-2.741-2.442-5.262-5.129-7.909-7.677-5.382-5.179-12.266-7.672-19.021-10.267-1.761-.676-4.037.055-6.073 0-1.183-.032-3.372-.32-3.377-.532-.038-1.714-.26-4.038.725-5.013 1.37-1.356 3.755-2.397 5.675-2.35 5.166.13 9.846 2.019 13.864 5.436 2.865 2.437 5.862 4.717 9.346 6.86-1.006-1.531-1.881-3.173-3.049-4.568-1.917-2.289-4.031-4.412-6.052-6.615-3.145-3.428-6.072-7.09-9.485-10.224-2.818-2.586-6.164-4.617-9.37-6.752-.974-.649-2.238-.933-3.412-1.194-2.341-.521-3.905-1.735-3.163-4.258.671-2.28 2.587-3.062 4.878-2.528 5.215 1.214 8.703 4.842 11.692 8.911 2.413 3.284 4.428 6.861 6.602 10.319.517.823.967 1.688 1.448 2.533l1.076-.968c-.288-.548-.538-1.12-.872-1.638-4.763-7.383-7.609-15.628-10.788-23.733-1.525-3.888-3.079-7.815-5.14-11.427-1.319-2.313-3.642-4.037-5.403-6.12-.673-.795-1.67-2.404-1.42-2.695.846-.984 2.389-2.334 3.295-2.102 1.954.501 4.398 1.455 5.358 3.015 2.759 4.482 4.881 9.355 7.249 14.078.173.345.307.709.841 1.023v-2.684c.547 5.261.494 10.583 3.511 15.039l1.283-.391c-.376-.869-.804-1.72-1.118-2.611-.607-1.723-1.487-3.436-1.663-5.211-.909-9.154-1.953-18.315-2.295-27.498-.199-5.352-2.792-8.968-6.133-12.545-.755-.808-.929-2.161-1.37-3.262 1.045-.405 2.093-1.16 3.134-1.15 3.429.029 7.811 3.329 8.4 6.992.919 5.715 1.344 11.53 1.639 17.319.176 3.458-.502 6.954-.43 10.426.107 5.167.238 10.368.924 15.478.573 4.27 1.971 8.427 2.968 12.644.151.637.112 1.319-.365 2.188l-3.306-6.188-.957.494 3.573 6.265c1.234 2.154 2.66 4.224 3.655 6.482.902 2.05.938 4.541 2.05 6.427 4.305 7.296 8.885 14.429 13.375 21.615.097.154.336.22.718.455l-2.194-6.6 6.553 9.056zm175.355-192.076c.669-.807 1.216-1.773 2.026-2.392 3.059-2.333 6.018-4.896 9.374-6.706 2.739-1.476 7.954 2.279 9.05 6.145-.712.039-1.412.224-2.042.088-6.909-1.493-12.546.72-17.503 5.554-1.273 1.242-3.269 1.744-4.933 2.586l-1.12-1.09c2.632-5.43 4.214-11.833 8.137-16.065 6.232-6.724 14.173-11.657 23.931-12.396 4.862-.368 8.798 1.612 12.307 4.57 3.044 2.566 5.833 5.434 8.75 8.151 2.992 2.789 6.001 5.63 10.609 4.705 1.95-.392 4.141-.716 3.909-3.909l-2.767.845c0-.617-.191-1.245.036-1.507.668-.765 1.843-2.112 2.214-1.938 1.86.869 3.939 1.828 5.153 3.374 1.398 1.782.586 3.989-1.093 5.499-3.926 3.531-8.383 5.279-13.792 4.108-5.745-1.244-10.663-3.48-12.939-9.417-.132-.344-.195-.714-.332-1.226l4.01 2.54.443-.733c-4.575-3.775-8.48-8.596-15.546-9.513 2.447 1.631 4.624 2.753 6.393 4.334 2.896 2.588 4.437 8.531 2.217 11.428-1.924 2.51-7.87 2.558-9.283-.227-.319-.627.278-2.277.951-2.752 2.765-1.955 3.071-3.387.552-5.741-3.806-3.558-8.018-4.721-13.228-2.823-6.797 2.477-12.521 5.947-15.527 12.857-.188.43-.295.895-.44 1.343l.483.308zm75.384-32.638l-8.987-4.02c.631-1.28 1.361-2.458 1.812-3.733 1.491-4.231-2.66-9.479-7.15-8.968-.742.084-1.649.906-2.025 1.625-1.372 2.629-3.831 5.104-1.258 8.464-.742.117-1.069.277-1.306.19-4.576-1.685-9.182-3.301-13.678-5.179-1.021-.427-1.944-1.658-2.409-2.736-1.253-2.904-2.137-5.968-3.376-8.879-.438-1.03-1.482-1.803-2.638-2.47-.181 4.22-3.951 8.305.606 12.547l-11.874-1.438c3.866-2.158 4.306-5.445 4.751-8.635.735-5.259 1.358-10.537 1.867-15.823.14-1.452-.294-2.96-.523-4.948 5.058 1.215 10.304 2.332 15.458 3.778 2.34.657 4.24 2.219 4.179 5.057-.066 3.157-.585 6.15-3.706 7.889-3.997 2.228-3.852 2.145-1.612 6.302 1.142 2.121 1.652 4.583 2.425 6.897.829 2.482 2.307 3.783 4.736 2.001 2.118-1.553 4.147-3.314 5.894-5.271 3.814-4.276 7.462-8.704 11.099-13.134 1.429-1.74 3.214-2.075 4.864-.96 1.046.706 2.113 2.295 2.111 3.486-.01 6.648-.488 13.296-.493 19.944-.004 2.664.795 5.329 1.233 8.014zm-41.397-27.256c2.289-.657 4.172-.748 5.448-1.674 1.67-1.211 3.734-2.925 4.051-4.705.458-2.573-.851-5.297-3.673-6.38-.826-.318-2.819.167-2.964.665-1.085 3.742-1.842 7.581-2.862 12.094zm34.799.428l-.854-.229-5.97 7.858 6.823 3.131.001-10.76zm-124.084 48.014c-1.46 3.983-3.322 7.655-7.258 9.826-2.777 1.532-5.571 2.417-8.798 1.382-2.621-.84-5.413-1.164-7.999-2.083-3.018-1.073-3.951-3.98-2.759-7.766.785-2.493 2.709-3.2 5.088-2.824.595.094 1.113.669 2.057 1.272l-3.304 2.599c.86 3.167 5.272 4.134 8.603 1.407 3.149-2.58 6.462-5.213 8.8-8.471 3.767-5.25 18.326-9.213 25.106-6.216 9.97 4.406 17.736 10.76 22.108 21.222-1.891-1.392-3.962-2.6-5.628-4.222-2.089-2.035-3.637-4.649-5.82-6.553-1.456-1.27-3.539-2.118-5.468-2.485-4.571-.868-9.272-2.075-13.521 1.247-2.92 2.284-3.103 3.772-.645 6.482 1.713 1.89 1.719 4.156.016 5.873-1.43 1.439-4.142 1.357-5.806-.203-3.133-2.938-2.483-6.559-1.508-10.034.882-3.146 5.288-5.904 8.654-5.795 2.993.097 5.983.274 9.016-.199l-9.285-.757 1.897-.768-.669-.815c-4.159.246-7.751 1.911-10.886 4.679-.991.875-1.92 1.82-2.878 2.73-.404-.139-.954-.517-1.191-.375l-13.963 8.565 11.208-4.56-11.119 6.371c6.506-.587 11.604-4.39 15.952-9.529zm104.057 229.86c-6.542-5.683-14.37-5.71-22.348-5.028l-.01-.905 13.142-1.437c.729-.065 1.546.449 2.271.802 1.652.802 3.495 1.406 4.865 2.56 3.991 3.36 7.509 3.505 11.928.273 5.561-4.067 12.828-5.059 20.146-.798-3.065 0-6.147-.206-9.189.059-2.961.258-5.879.997-8.751 2.083 7.211-1.003 14.354-1.714 21.488-.224l.387 1.189c-1.403.594-2.785 1.624-4.216 1.699-4.081.215-8.222-.318-12.264.127-3.577.394-7.038 1.781-10.584 2.575-1.497.335-3.603.971-4.541.273-4.43-3.296-9.367-3.6-14.533-3.432l-19.329.5c-2.171.103-4.309.888-6.662 1.405l.001-10.712.048-45.188c-.002-2.088-.009-3.982 3.438-3.78v4.833l.012 44.891c.004 4.088.032 3.927 3.894 4.06 7.241.249 14.486.574 21.706 1.151 2.17.173 4.27 1.271 6.39 1.978.918.308 1.808.696 2.711 1.046zm-78.247 79.576c9.131-2.581 12.527 5.321 18.279 8.825l-.792-9.185c2.929.677 5.859.511 6.791 1.795 1.032 1.422.236 4.17.236 6.34l.91.473c.879-1.061 1.716-2.159 2.645-3.174 3.084-3.366 6.822-5.471 11.461-5.702.739-.036 1.492.208 2.238.323-.149.863-.018 1.947-.494 2.552a168 168 0 0 1-7.12 8.421c-3.147 3.486-6.413 6.865-9.621 10.297-3.016 3.226-4.864 3.323-7.65-.049l-16.883-20.916zM187.916 222.159l4.068-9.446c2.781 5.311 8 5.892 12.313 7.825 4.322 1.939 8.772 4.502 14.642 1.355l-4.019 10.164-11.278-5.419-3.334 9.8c-.566 1.667-.115 2.755 1.715 3.133.596.124 1.206.318 1.732.617 2.121 1.202 4.146 1.761 6.122-1.243 2.846 4.875-.779 8.618-.667 12.609-5.959-7.124-14.528-7.781-22.335-9.919-1.485-.407-3.457.968-5.619 1.652.048-4.318 2.24-8.292 3.588-13.003 1.998 5.113 6.5 4.982 10.254 6.108.485.146 1.55-.557 1.869-1.131 1.527-2.749 2.889-5.588 4.607-8.983l-13.658-4.119zM367.465 86.601l11.212-.729.633.914c-5.462 3.073-3.045 7.457-2.619 11.894l12.448-1.038-2.417-11.972h8.226c-1.039 9.293-.067 18.76 1.153 28.612h-10.343c6.407-3.031 2.521-7.938 3.274-12.685-3.807.281-7.321.475-10.81.883-.427.051-1.073 1.282-1.016 1.913.311 3.466.809 6.916 1.297 10.814l-7.807.789-.012-18.367c-.006-1.227-.319-2.464-.229-3.677.215-2.934-.253-5.492-2.99-7.351zm27.464 82.37l-2.9-6.96c-2.035-4.735-3.745-9.66-6.277-14.114-1.562-2.747-4.467-4.708-6.626-7.149-.903-1.021-1.819-2.303-2.044-3.586-.324-1.849.788-3.266 2.806-3.14 3.352.209 6.317 1.549 7.694 4.766 2.569 6.006 4.847 12.138 7.256 18.213.173.435.432.834 1.052 2.01l1.064-3.3c2.007-5.668 3.724-11.464 6.138-16.954 1.721-3.912 5.91-5.362 10.162-4.322.74.181 1.789.973 1.861 1.582.115.968-.157 2.593-.808 2.949-10.841 5.924-13.85 16.656-17.065 27.301-.307 1.015-.962 1.924-1.455 2.882l-.858-.178zm134.584-5.85c2.251-1.38 4.53-2.402 6.341-3.967 3.791-3.274 7.215-6.975 11.02-10.231 2.713-2.322 1.955-5.087 1.556-8.416 3.643 3.526 7.129 6.516 10.149 9.92 4.102 4.622 5.584 10.203 2.869 15.916-2.645 5.565-7.272 9.112-13.729 9.375-1.654.067-3.454-.386-4.989-1.055-3.779-1.645-11.163-8.401-13.217-11.542zm24.019-13.357l-13.773 13.293c-3.366 3.347-2.263 7.083 2.396 8.305 1.056.277 2.407.561 3.292.142 3.16-1.495 6.397-2.99 9.203-5.036 5.567-4.059 4.626-13.64-1.118-16.704zm-.317 37.753c-.085-8.816 7.062-15.22 16.532-15.763 5.832-.335 13.48 7.98 13.246 15.944-.29 9.844-5.394 13.667-15.236 14.362-7.21.51-14.47-7.081-14.542-14.543zm16.814-10.95c-4.654.477-8.929 3.504-11.967 8.321-1.739 2.757-1.23 7.724.744 10.128 1.881 2.29 6.029 3.351 9.327 1.995a38 38 0 0 0 7.232-3.924c3.256-2.269 4.697-7.313 3.498-10.997-1.093-3.361-3.952-5.417-8.834-5.523zM531.694 483.82l-27.923-10.504 1.635 3.584c2.27 3.654 4.459 7.372 6.992 10.838.82 1.122 2.601 1.544 4.233 2.448l-6.429 4.329c-3.486-9.273-6.69-18.076-15.074-24.04 4.831-1.747 9.438-2.6 14.246-.463 3.625 1.611 7.329 3.045 11.008 4.533.91.368 1.858.639 2.789.954l.746-.668-9.383-15.57 5.712-2.294c2.183 9.632 6.955 17.827 11.816 25.983l-.368.87zm-31.551 7.361c-.152 8.885-6.155 15.002-14.442 14.959-9.018-.046-14.456-7.044-14.479-14.651-.022-8.025 7.181-15.287 14.746-15.1 8.537.213 14.321 6.249 14.175 14.792zm-23.556-3.433c.435 6.132 2.008 11.668 8.261 14.501 5.553 2.516 10.159-.318 10.376-6.323.187-5.145-1.529-9.604-4.961-13.411-2.671-2.964-6.128-3.963-9.377-2.524-3.301 1.46-4.584 4.173-4.299 7.757zM199.221 201.124c-.468-7.518 4.413-13.203 11.714-13.645 9.054-.548 16.27 5.428 16.884 13.981.6 8.352-5.019 15.897-12.845 15.557-9.043-.393-15.592-3.797-15.753-15.893zm11.481-9.041c-6.468.065-9.915 5.069-8.138 10.319 2.089 6.174 7.061 8.236 12.735 9.63 4.258 1.045 6.551-1.307 8.42-4.456 1.771-2.985 1.176-5.95-.69-8.647-3.161-4.566-7.935-6.167-12.327-6.846zm145.494 309.489c.146 8.31-5.832 14.656-13.924 14.782-7.75.12-14.756-6.111-14.952-13.301-.219-7.992 6.875-15.75 14.808-15.33 7.357.391 14.321 4.753 14.068 13.849zm-5.537-.086c-.683-2.43-1.109-4.97-2.099-7.268-2.249-5.223-8.193-5.977-11.487-1.383-3.847 5.365-4.751 11.279-1.749 17.381 2.302 4.679 8.164 5.32 11.456 1.304 2.338-2.851 3.655-6.134 3.879-10.034zm-32.488-153.513c-.576 4.199-.825 8.742-5.156 11.024-1.525.804-4.063.939-5.594.221-3.446-1.619-5.662-4.58-6.131-8.567-.567-4.821-1.004-9.515 3.122-13.346 2.558-2.376 5.179-2.97 7.905-.828 3.676 2.886 6.167 6.469 5.854 11.496zm105.808-238.794l-.64 3.731c-.313 2.429-1.594 3.078-4.006 2.829-5.186-.534-10.404-.744-15.607-1.111-.752-.054-1.494-.248-3.032-.514 5.204-2.583 4.329-7.014 4.783-10.811.46-3.839.581-7.742.515-11.61-.04-2.291-.731-4.57-1.173-7.104l17.077 1.417c2.064.163 3.003 1.171 2.455 3.201-.188.696-.691 1.507-1.285 1.817-.339.177-1.354-.4-1.715-.893-2.034-2.774-5.221-1.838-7.89-2.501-.325-.081-1.023.735-1.308 1.265-.274.512-.34 1.195-.32 1.797.064 1.894-1.275 4.222 1.428 5.37 2.677 1.137 5.206 1.271 7.043-1.538.223-.34.331-.753.928-.678v9.908c-2.049-1.204-3.76-2.424-5.641-3.261-2.417-1.077-3.865-.145-4.306 2.465-.135.806-.375 1.634-.3 2.427.199 2.096.242 5.869.882 5.983 3.299.589 7.083 2.432 9.977-1.185.245-.306.639-.513.998-.703.247-.13.552-.153 1.137-.301zM325.547 315.6c1.854 1.255 3.644 1.945 4.655 3.243 4.171 5.355 4.527 11.393 2.269 17.602-.977 2.685-2.793 4.857-5.886 5.175-3.329.342-5.191-1.946-6.774-4.384-3.714-5.717-4.019-14.2.489-18.402 1.38-1.288 3.263-2.039 5.247-3.234zm267.518-93.612c1.435-2.223 3.05-3.842 3.611-5.769 1.451-4.978-1.965-9.297-7.291-9.643-5.896-.382-11.157.898-14.587 6.215-.806 1.248-1.41 2.786-1.573 4.25-.299 2.695-.162 5.881 2.525 7.013 1.653.698 4.18-.396 6.221-.999 1.214-.359 2.246-1.327 3.873-2.341l2.55 8.645c-3.058.505-5.816 1.273-8.583 1.298-1.614.014-3.893-.691-4.747-1.881-3.698-5.15-6.406-10.79-4.678-17.428 1.443-5.537 5.088-9.114 10.673-10.231 5.229-1.045 9.862.312 13.595 4.443 3.418 3.784 5.138 8.264 6.209 13.128.39 1.768-.144 2.459-1.899 2.58-1.819.126-3.625.434-5.899.72z"/><path d="M586.65 278.784c-2.188-10.704-9.341-17.566-17.967-23.323-3.819-2.55-7.688-5.055-11.295-7.884-3.67-2.879-5.174-7.03-5.441-11.597-.196-3.361 1.29-5.046 4.859-5.804.515 2.242.725 4.614 1.603 6.705 2.3 5.469 7.007 8.719 11.892 11.518 4.651 2.665 8.511 6.039 11.316 10.549 3.767 6.056 5.565 12.667 5.038 19.848zm-371.095 74.611l-10.986.843.038 1.185 7.833.041c2.135.142 4.454.196 6.331 1.067 8.622 4 16.21 9.376 21.199 17.882-3.814-3.111-7.441-6.497-11.485-9.274-6.828-4.689-14.76-7.488-22.734-3.839-1.676.768-3.224 2.169-4.374 3.637-1.232 1.573-1.869 3.43.813 4.744.727.356 1.298 1.916 1.18 2.825-.093.712-1.264 1.588-2.12 1.846-4.082 1.228-7.061-.662-7.86-4.801-1.521-7.875 2.676-15.506 9.759-16.67 4.024-.662 8.246-.12 12.378-.12l.028.634zm140.206-4.118c.264-5.423 1.42-9.558 4.957-12.652 3.453-3.021 7.82-2.087 9.952 1.998 3.63 6.961 2.533 14.032-2.945 18.971-3.573 3.222-9.061 1.961-10.72-2.622-.748-2.061-.956-4.318-1.244-5.695zm-15.473-17.486c.435-4.804.134-8.954 3.225-12.291 3.628-3.918 9.146-3.276 11.504 1.448 2.73 5.469.67 14.602-4.142 18.37-4.09 3.202-8.705 1.661-10.057-3.449-.409-1.553-.424-3.209-.53-4.078zM234.543 230.197c3.702 2.45 3.781 10.715.941 14.314-2.804 3.553-6.11 6.827-9.655 9.648-3.725 2.964-8.417 4.776-11.916 7.944-4.345 3.936-7.038 9.154-7.512 15.244-.087 1.108-.359 2.201-.865 3.206-.053-11.578 3.38-21.653 12.267-29.625 4.684-4.201 9.091-8.757 13.232-13.495 1.701-1.946 2.368-4.792 3.508-7.236zm246.858-98.466l5.022-6.734c2.303-3.857 4.316-7.887 6.493-11.821 1.522-2.752 2.146-5.497.075-8.237.358-.208.604-.432.681-.384 4.953 3.105 10.219 5.832 14.712 9.505 2.813 2.299 2.446 6.384.518 8.602-2.431 2.796-7.383 4.216-10.241 2.938-5.958-2.665-9.395-.25-9.025 6.429.071 1.286.568 2.548 1.038 4.541l-9.273-4.839zm24.948-14.158c-1.3-1.956-2.043-3.704-3.32-4.861-2.465-2.233-3.679-1.707-4.719 1.512-.497 1.54-1.348 2.98-1.723 4.542-.209.866.163 2.695.394 2.715 1.939.17 4.069.464 5.813-.175 1.354-.496 2.238-2.277 3.555-3.733zM209.208 324.746c-3.929-10.229-6.32-20.174-4.08-30.593 1.33-6.186 4.173-11.508 10.696-13.947 5.359-2.002 11.315 1.062 12.563 6.645.428 1.914-.059 2.993-2.291 2.658-5.473-.82-9.169 1.521-12.447 5.923-6.651 8.934-5.395 18.793-4.441 29.314zm-1.066-30.535l3.06-7.786c-3.832 3.271-6.28 16.125-4.85 21.257l2.195-12.72c.567-.479 1.286-.858 1.677-1.453 2.764-4.208 6.084-7.318 11.887-6.478-.643-.706-1.382-1.196-2.015-1.084-1.796.318-3.768 1.626-5.27 1.185-2.51-.738-2.904.82-3.745 2.18l-2.939 4.899zm222.541 226.471L422.255 522c1.266-3.344.511-8.868-1.326-9.05-2.632-.262-5.53.056-7.997.976-1.688.631-1.328 6.463.548 8.826l-4.284.223-4.225.008c5.169-7.832 6.776-17.057 8.999-26.052.438-1.771.91-2.999 2.976-3.25 2.325-.282 2.579 1.335 3.233 2.86l10.504 24.141zm-14.413-21.353l-3.004 11.377 7.02-1.188-4.016-10.189zm-136.884-350.2c.869-3.384-.868-5.738-2.542-8.271-2.758-4.172-5.214-8.542-7.845-12.799-1.124-1.818-2.766-2.709-4.567-1.152-.762.659-1.03 2.118-1.135 3.25-.134 1.443.124 2.924-.502 4.641l-5.326-6.251 22.528-14.328 3.245 6.087c-1.98-.209-3.428-.689-4.718-.419-1.799.375-3.676 1.061-5.096 2.16-.437.338.201 2.66.879 3.74 2.821 4.492 5.685 8.978 8.879 13.204 1.178 1.559 3.313 2.395 5.244 3.72l-9.044 6.418zm-3.887 341.03l-7.75-4.649 4.167-8.104c-3.445-1.16-5.54-4.297-9.125-3.024-2.354.835-2.987 2.031-3.446 5.742l-5.557-3.969c9.278-4.388 16.944-9.486 22.725-17.313 3.473.683 4.433 1.931 3.78 6.251-.656 4.336-1.736 8.606-2.57 12.917l-2.224 12.149zm-.073-25.783l-.871-.432-7.4 7.799 5.673 2.287 2.598-9.654zM254.05 157.957l2.681 1.336c2.41 1.339 5.988.709 7.714-1.382 1.559-1.889 1.622-5.057-.345-7.056-.905-.919-2.684-1.477-4.002-1.375-2.104.163-4.157 1.007-6.228 1.575-3.802 1.042-8.806-1.146-10.461-4.581-1.298-2.692.018-6.75 3.138-9.172 2.06-1.6 4.268-3.01 6.506-4.573l3.86 5.809-2.752-.563c-2.43-.574-6.404 1.346-7.106 3.66-.655 2.158.886 3.621 2.594 3.777 2.455.225 5.063-.07 7.463-.691 3.619-.936 6.929-1.063 9.611 1.909 2.593 2.875 3.401 6.217 2.061 9.972-1.41 3.951-7.162 7.578-11.236 7.042-2.87-.376-3.933-1.918-3.498-5.687zm48.264 322.712c-.225-3.48-2.528-6.117-5.848-6.697-2.142-.375-3.358 1.499-2.254 3.973 1.29 2.887 2.926 5.621 4.44 8.407 2.234 4.11 2.174 6.771-.254 9.44-2.746 3.019-6.784 3.909-10.627 2.05-1.909-.922-3.75-2.138-5.337-3.542-2.983-2.639-2.668-4.306 1.088-6.607.406 3.751 1.767 6.754 5.795 7.737 3.405.832 5.751-1.233 4.618-4.503-.923-2.663-2.649-5.035-3.859-7.611-.848-1.806-1.924-3.711-2.027-5.618-.246-4.593 3.959-7.75 8.471-6.63 1.778.441 3.485 1.169 5.225 1.768l5.191 1.788-3.817 6.528-.805-.483zm212.101-364.293l11.57 6.805-.514.946-3.322-1.427-1.921 7.593c-.111.596.798 1.986 1.217 1.978 2.598-.051 5.271-.108 7.743-.796.91-.254 1.34-2.23 2.247-3.893l5.068 4.695-.191 1.099-11.96 2.368c-1.098.234-2.474.502-3.122 1.265-2.846 3.343-5.529 6.832-8.122 10.376-.456.623-.199 1.765-.306 3.088l-7.819-5.777.005-1.091c5.142 2.362 5.411-1.906 7.043-4.323 3.958-5.86 3.828-12.485 3.516-19.122-.046-.978-.562-1.936-1.132-3.784zm-177.302-19.92l-.545-4.92 24.776-4.129 1.346 5.248-9.802-2.146.463 8.271 1.492 8.446c.494 3.591.742 7.239 5.214 8.617l-.226.946-11.791 2.196c2.892-3.336 1.671-6.86 1.232-10.183-.601-4.555-1.55-9.063-2.171-13.615-.287-2.104-1.389-2.771-3.127-2.094-2.199.855-4.261 2.065-6.861 3.363zm90.226 403.155l-.613-7.304 12.739-1.882 7.515-1.544c2.752-.549 4.684.019 4.691 3.378.003.875.374 1.747.446 2.06l-7.209-1.911c-1.934-.324-2.777.86-2.465 2.845l2.031 13.357c.542 3.477 1.247 6.879 5.512 8.17l-.424.72-11.882 2.604c2.935-3.104 2.397-5.844 1.829-8.696-.898-4.515-1.563-9.075-2.317-13.618-.298-1.791-.685-3.702-2.973-3.588-2.037.102-4.365.151-4.874 3.022-.148.841-.658 1.618-1.003 2.425l-1.003-.038zm-43.085 3.306l-1.557-2.349c-1.976-3.353-5.016-4.568-8.765-4.558-3.927.011-5.366 3.018-6.193 5.84-1.248 4.26-2.208 8.736.452 13.024 3.214 5.183 9.412 5.926 13.732 1.591.758-.761 1.739-1.301 2.753-2.043.568 4.938-2.862 8.026-8.333 7.889-7.51-.189-13.511-4.817-15.614-12.042-1.298-4.459 1.631-11.909 5.928-14.483 5.377-3.221 10.996-3.555 16.661-.688 2.759 1.395 2.961 3.104.936 7.819zM322.148 98.865l.875 6.453c-1.108-.637-1.615-.767-1.858-1.093-2.368-3.18-5.486-3.067-8.843-2.133-3.801 1.058-5.608 4.164-5.798 7.474-.311 5.443 1.941 10.362 6.448 13.553 5.045 3.572 12.735 2.429 14.145-6.593 2.551 3.358 1.844 7.451-1.862 8.921-3.288 1.304-6.744 2.462-10.225 2.898-1.993.25-4.543-.564-6.222-1.766-7.94-5.687-10.351-16.991-1.979-24.55 3.323-3 7.489-2.907 11.512-3.339 1.149-.124 2.334.097 3.807.175zm-16.089 397.492l.695 3.267c.272 3.535 5.127 6.753 8.412 5.527 1.907-.71 2.793-4.226 1.386-6.43-1.036-1.624-2.35-3.11-3.727-4.468-2.897-2.857-3.196-6.368-2.454-9.983.6-2.919 2.688-4.639 5.755-4.527 4.214.152 7.728 2.136 11.303 4.517l-3.771 4.501c-.853-1.589-1.41-2.993-2.28-4.163-1.43-1.921-3.529-2.176-5.49-1.13-2.32 1.236-1.249 3.281-.359 4.785 1.19 2.012 2.746 3.819 4.241 5.635 2.271 2.759 2.85 5.838 1.868 9.205-1.02 3.497-4.184 5.505-7.771 4.907-2.095-.35-4.267-.641-6.205-1.439-4.838-1.995-5.491-5.059-1.603-10.204zm-63.616-321.553c3.839 2.711 4.093 3.27 1.805 6.424-3.053 4.205-6.377 8.213-9.617 12.28-.347.436-.91.699-.75.58-1.076-1.864-1.724-3.944-3.114-5.21-3.695-3.365-7.66-6.442-11.615-9.509-2.557-1.982-5.37-2.787-8.624-.992l7.062-8.553 7.564 6.79 10.71 8.915c4.494-1.275 5.985-5.561 6.579-10.725zM228.15 355.537l-6.549-9.053c-2.022-6.181-6.568-11.474-6.157-18.541.194-3.325.212-6.523 2.581-9.188 2.184-2.456 5.108-3.153 7.66-1.732 2.197 1.223 2.736 3.074.811 4.614-7.152 5.726-4.961 12.72-2.637 19.487 1.474 4.292 3.963 8.23 5.938 12.356a5.77 5.77 0 0 1 .517 3.546l-2.164-1.489zm80.227-222.801l-13.557 6.887c1.576-5.574-5.669-25.513-10.633-28.649l10.543-4.649c.235.37.452.638.42.672-2.618 2.775-1.79 5.812-.563 8.784 1.87 4.534 3.834 9.031 5.837 13.509.91 2.033 1.984 3.906 4.859 2.776.584-.23 1.462.288 3.094.67zm86.896 21.108c.025-5.277-1.602-9.497-3.979-13.37-2.483-4.045-2.579-11.397.106-14.436 1.829-2.071 4.018-2.033 6.459-1.477 2.318.528 2.866 2.327 2.932 4.155.105 2.95-.166 5.915-.313 8.872-.024.502-.174 1.01-.333 1.494l-4.872 14.762zm-168.266 2.201l8.096-6.195c3.308 7.315 10.31 12.514 17.617 17.288 2.269 1.482 2.262 2.356.574 4.085-1.627 1.667-3.066 3.517-4.662 5.373-.317-.336-.695-.574-.664-.727.755-3.675-2.125-5.159-4.233-7.118-3.964-3.687-7.84-7.475-11.922-11.025-.988-.86-2.639-.958-4.806-1.681zM399.66 523.269h-11.597c4.634-3.373 3.866-7.551 3.942-11.488l.112-12.586c-.019-1.41-.456-2.815-.75-4.498h8.631c-3.739 7.895-2.3 16.438-2.336 24.8-.005 1.203 1.245 2.414 1.998 3.772zm71.675-11.45l-9.871 3.316c1.676-10.55-1.42-19.566-6.57-28.631l10.452-2.546c-3.158 7.007.127 22.995 5.989 27.861zm24.753-190.126c.759 1.987 2.134 3.964 2.172 5.965a652.28 652.28 0 0 1-.123 30.357c-.057 2.03-1.548 4.021-2.378 6.03l-.727-.195v-41.743l1.056-.414zm64.886-52.705c-2.538-3.262-1.883-5.068 1.43-6.713 6.08-3.02 15.491.409 20.001 8.715 1.155 2.129 1.707 4.588 2.209 7.012-10.57-11.462-15.915-13.6-23.64-9.014zm-340.199-3.83l-11.005 6.931-.586-.429 2.43-4.199c3.643-5.468 8.828-7.741 15.251-6.765 1.202.183 2.821 1.58 3.126 2.717.392 1.458.18 3.788-.77 4.678-.792.744-3.112.239-4.586-.237-1.265-.409-2.292-1.559-3.86-2.696zm170.715-96.222c-7.511-5.265-14.012-12.555-24.463-7.143 1.167-5.558 6.397-8.527 11.097-5.75 4.228 2.498 7.898 5.983 11.635 9.239.931.811 1.173 2.414 1.731 3.654zm20.61 304.248c3.377 3.659 6.915 6.186 11.063 1.474l-3.215-4.618c3.432-1.398 6.197-.65 7.295 1.625.973 2.015-.685 6.482-2.901 7.824-4.523 2.737-11.464 1.133-14.46-3.485l2.218-2.82zm-42.404-2.276c-.742 1.814-1.838 3.246-1.485 3.906.614 1.153 2.107 2.543 3.252 2.563 2.399.039 4.947-.539 5.568-3.881 2.614 1.831 1.879 3.554.317 5.114-3.114 3.111-11.013 2.899-13.663-.647-.995-1.331-1.444-3.816-.902-5.331.504-1.41 2.532-2.57 4.14-3.16.751-.276 2.092 1.053 2.773 1.436zm-134.883-90.075c1.812-1.394 3.767-.651 4.339 1.647.931 3.744-2.201 9.316-5.983 10.258-3.162.787-6.397 1.117-10.103-.746l3.599-.791.035-.641-4.574-.356c-1.558-.151-3.11-.358-4.619-1.078 3.624 0 7.273.273 10.865-.063 5.698-.533 6.946-2.337 6.512-8.336-.007.01-.071.106-.071.106zm327.145 2.438l13.315.759-.043 1.063-13.352-.821.08-1.001zm-337.442-.323l-8.46 1.478-.188-1.12 8.43-1.418.218 1.06zm243.662 42.86c5.103-.802 5.771-.504 6.081 2.355.391 3.6-.854 4.861-5.585 5.133l-.496-7.488zm-134.086 9.393c-.344 1.326-.615 3.493-1.469 5.398-1.334 2.977-4.918 4.445-7.976 3.658-3.015-.777-4.394-2.716-4.492-6.421l.043-4.588c.08-4.556 2.398-8.107 5.509-8.454 3.817-.426 7.102 2.467 8.083 7.17.165.79.157 1.614.302 3.237zm-37.322-12.082c6.393-.485 9.195 2.294 8.768 8.378-.416 5.917-3.438 9.276-8.106 9.246-2.595-.018-3.526-1.235-3.162-3.638.35-2.312.783-4.611 1.197-6.914l1.303-7.072zm178.886-218.488c.126 5.485 15.743 10.571 23.832 8.145-4.962 6.315-14.42 6.004-23.882-1.186-.558 4.985-4.265 6.691-8.101 8.208-1.914.757-3.989.964-5.061-1.174-1.195-2.381.085-4.93 2.547-5.842 4.738-1.756 5.421-3.389 3.828-7.993-.41-1.186-.462-3.299.237-3.878 1.071-.885 3.06-1.351 4.444-1.04 4.669 1.048 9.174 2.932 13.872 3.723 6.6 1.112 13.265 1.008 19.584-1.865-1.493 10.185-19.48 14.603-31.3 2.902zm-70.082-4.005c3.821.942 7.312 2.036 10.886 2.635 7.325 1.227 14.459.06 21.438-2.296 1.259-.425 2.532-.955 3.831-1.072 1.445-.13 3.852-.323 4.208.361.809 1.553 1.179 3.78.721 5.46-1.113 4.083.152 6.429 4.306 6.471 1.845.019 2.359.888 2.297 2.44-.07 1.731-.217 3.459-.328 5.162-5.278 1.171-11.873-3.791-15.793-11.636l4.332-2.951-.368-.701c-3.042 1.442-6.183 2.711-9.11 4.358-8.977 5.053-20.119 2.229-25.35-6.561-.312-.519-.654-1.021-1.07-1.67zm46.341 33.579c-1.412-.147-2.826-.46-4.227-.406-2.764.106-3.396 1.742-2.634 4.445.863 3.056 2.134 4.801 5.571 5.52 3.632.76 7.124 2.51 10.464 4.24 2.57 1.331 5.084 3.024 7.134 5.05 3.3 3.26 2.511 9.978-1.164 12.899-2.579 2.051-3.377 1.945-5.6-.737 4.575-5.833 3.664-9.763-3.24-12.699-4.406-1.874-8.965-3.402-13.502-4.946-5.169-1.76-8.003-6.479-6.696-11.433 1.331-5.046 5.958-7.876 11.293-6.906 2.915.529 3.092.882 2.601 4.973zm7.335 10.695c-5.238-2.124-5.383-2.28-5.066-6.846l1.752-24.126c.143-2.079.647-4.239-2.127-5.434-.667-.287-.561-2.37-.859-3.878l7.729.644c2.531.357 3.604 2.659 1.814 4.434-2.918 2.893-2.993 6.321-2.868 9.931l.683 20.189c.026 1.607-.651 3.226-1.058 5.086zm2.508 37.428c1.265-8.185-4.505-9.725-9.725-12.368-6.521-3.302-9.813-9.352-5.61-15.595 1.061-1.576 2.503-2.504 4.084-1.425.868.592 1.407 2.264 1.384 3.434-.042 2.151-2.385 4.396.203 6.393 1.749 1.349 3.627 2.566 5.57 3.614 3.336 1.799 6.063 4.147 7.66 7.638 1.364 2.98.342 5.904-3.566 8.309zm-.892-37.329l5.465-1.661c2.795-.788 3.763-2.933 3.419-5.434-.342-2.484-2.483-3.485-4.781-3.451-1.543.022-2.763.476-2.901-1.812-.144-2.363.898-2.886 3.009-3.09 4.848-.468 9.133 1.649 10.231 5.371 1.661 5.625-.161 9.878-5.221 12.191-2.782 1.272-5.821.585-9.221-2.114zm-21.255-28.976c2.202 3.877 6.51 4.407 10.233 5.866 1.961.769 2.916 1.698 1.714 4.349-2.809-1.035-5.576-2.215-8.446-3.041-1.279-.368-2.803-.224-4.146.039-3.295.643-6.513 1.767-9.635-.706-.957-.758-2.363-.947-3.42-1.343l13.7-5.164zm47.658 4.221c-1.863 2.808-4.879 3.614-7.121 2.975-5.275-1.505-9.641 1.284-14.419 1.968-.903.129-1.786.411-2.711.629-1.001-2.251.4-2.888 2.273-3.455 5.116-1.548 8.334-3.805 11.332-7.823 1.647 1.067 3.259 2.254 5.003 3.198 1.679.91 3.494 1.568 5.643 2.508zm-35.161-24.004c.006-3.386 2.42-5.882 5.705-5.898 2.845-.014 5.855 2.643 5.89 5.199.039 2.801-3.249 6.36-5.9 6.386-3.432.034-5.699-2.231-5.695-5.687zm-17.747 12.906l2.894 4.244c-4.442 5.4-15.927 5.8-21.442.525 3.226-.49 6.312-.715 9.261-1.474 3.039-.782 5.946-2.084 9.287-3.295zm21.652 64.061c.82.687 1.991 1.209 2.402 2.088 2.259 4.832 2.081 9.923.963 14.979-.174.789-1.506 1.322-2.303 1.973-.718-.987-2.015-1.95-2.056-2.964-.211-5.184-.098-10.38-.098-15.572l1.092-.504zm-.593-19.021c1.737 1.315 4.052 2.181 4.396 3.543.472 1.873-.548 4.121-.946 6.306-4.834-1.523-4.834-1.523-3.45-9.849zm-2.598 26.648c-4.272-2.141-5.462-5.618-3.396-8.233.394-.499 1.383-.912 1.956-.775s1.334.989 1.375 1.572c.158 2.288.065 4.593.065 7.436zM346.501 263.88l-1.077-3.31-.643.106v3.074c-2.572-4.132-5.038-7.514-6.82-11.224-.792-1.649-.498-4.011-.175-5.962.507-3.068 1.456-6.064 2.218-9.09l-.725-.252-2.531 7.106-.536.021-.741-10.4.846-.072.328 2.93.503.088c.639-2.309 1.174-4.651 1.941-6.916 1.022-3.018 2.508-5.905 3.261-8.98.609-2.485 2.185-5.273-.653-8.066v5.057l-.497.068-.784-2.081-.349 3.181-2.55-5.521-.553.21c.168.533.264 1.103.516 1.592 1.967 3.814-.405 7.358-.657 11.03-.354 5.159-4.065 9.661-2.98 15.095.416 2.087 1.288 4.147 1.325 6.232.06 3.416-.392 6.841-.628 10.263l-.891.081-1.077-5.972-.776.042c1.134 3.546-2.055 6.951.588 10.614l.586-2.746c7.012-1.491 8.113 5.117 11.865 8.439 1.282-1.405 2.739-2.74 5.333-1.869.742.249 2.156-1.505 3.319-1.656.714-.083 1.445-.096 2.136-.269s1.353-.505 2.646-1.008c.165-.204.638-1.187 1.419-1.69a41.75 41.75 0 0 0 11.039-10.325c1.396-1.883 3.4-3.312 4.828-5.177.828-1.081 1.058-2.62 1.423-3.593 1.249 3.709 2.991 7.873 3.965 12.208.48 2.135-.326 4.618-.792 6.893-.686 3.342-1.488 6.67-2.465 9.937-.268.895-1.339 1.549-2.061 2.335l-1.074-6.555-.526.033c.058 1.259.059 2.523.188 3.775.285 2.782-1.051 5.091-3.574 5.641-.331.071-1.306-1.115-1.363-1.772-.328-3.822-.467-7.66-.685-11.492-.011-.189-.161-.369-.261-.585 0 3.635.331 7.278-.093 10.83s-1.853 6.892-4.976 10.282l-.617-10.265c-1.601 4.89-1.153 10.215-6.732 12.133l2.332-5.254-.694-.327-4.114 5.38 3.914-9.688-.907-.393-6.463 12.987c-1.141-5.342.576-9.132 3.157-12.717l-.82-.412c-1.349 1.987-2.636 4.021-4.076 5.939-.669.89-1.792 1.449-2.417 2.359-.427.622-.351 1.589-.65 3.23l-2.667 2.49c-.122-2.059 2.552-3.823-.227-5.44l-1.609 2.766-1.597-1.503-1.14 3.034-.687-.226 2.652-7.202-.447-.231-3.271 5.917-.549-1.082-3.043 4.383-.728-.218.602-7.264-7.091 6.686-.595-.212 1.841-6.35-.378-.334c-.556.807-1.167 1.582-1.656 2.427-1.083 1.87-1.446 4.755-4.912 2.918l.735-1.697c-1.395.649-2.615 1.271-3.883 1.771-.315.125-.786-.144-1.421-.284l5.333-8.706c-3.95 1.974-4.811 8.029-10.945 7.121l5.197-6.095-.192-.358-4.309 2.709 4.077-5.889-.404-.5-4.708 2.079-.433-.424 2.144-3.229-1.421-.23c.708-2.168 1.287-4.158 4.333-4.062 1.071.034 2.182-1.222 3.706-1.479l-1.564 2.048.396.492 4.962-3.613c2.406-1.718 5.119-3.133 7.137-5.222 1.225-1.268 1.679-3.518 1.963-5.404.485-3.212.008-6.265-3.196-8.022l1.992 6.544-.691.271-2.387-4.677-.568.245c.531 1.899 1.41 3.787 1.477 5.704.049 1.396-.667 3.071-1.566 4.208-3.905 4.939-9.361 6.465-15.406 6.602-2.099.048-4.257.146-6.271.67-4.089 1.063-7.934.143-11.713-1.122-1.479-.495-2.961-1.481-4.016-2.635-1.923-2.104-3.627-4.429-5.242-6.787-2.263-3.305-2.116-4.012.998-6.716l-2.733-.245 1.493-2.581-.452-.356-3.171 2.127c-2.436-3.84-.875-7.458 1.59-10.04 3.621-3.794 7.952-6.942 12.147-10.147 3.406-2.602 6.031-5.605 6.324-10.023.905-13.644 9.14-21.491 21.044-26.009 11.192-4.248 22.616-4.336 33.348 1.402 5.169 2.764 10.62 6.045 14.208 10.492 6.32 7.834 11.588 16.677 11.166 27.436-.083 2.115-1.336 4.185-2.05 6.275l-1.317-.17-1.596-7.81c-.38 5.759 1.146 11.959-4.026 16.372l-2.327-20.848-.57.059 1.609 20.542c.32 3.911-2.071 7.739-6.393 9.495l1.047-15.84c-2.792 6.006.361 13.377-5.036 18.763v-4.961l-1.792 6.367-.945.374-1.43-1.902-1.129 2.891-1.155-2.954-1.393 2.995c-1.463-4.301-.74-7.843.306-11.272 1.6-5.25 3.85-10.331 5.083-15.654 1.233-5.329 1.556-10.869 2.277-16.316l-.814-.104c-.356 3.009-.415 6.092-1.134 9.011-1.313 5.33-3.183 10.522-4.51 15.85-1.102 4.422-1.749 8.958-2.616 13.439l-1.278 6.224-1.06-.306zm-37.955-45.258l1.412-3.215c-4.016.464-2.938 3.587-2.985 5.49-.042 1.66.972 4.346 2.2 4.821 2.222.86 4.646-.285 6.604-2.695l-7.231-4.401zm41.12-4.236l-9.365 38.907c4.067-13.109 9.425-25.931 9.365-38.907zm-37.901 48.77l-10.281 3.131c-.511.146-1.151-.08-1.715-.208-5.101-1.17-9.917-2.886-13.598-7.781 2.581 8.936 17.688 11.724 25.594 4.858zm44.77-15.93l1.171.107 1.997-20.615-1.246-.114-1.922 20.622zm6.378-27.38l-.918.091v14.795l.918-.002v-14.884zm8.742 21.101c.496-7.037-.439-13.058-3.069-18.797l3.069 18.797zm-24.39 3.356l-.501.031c-.48 2.495-1.141 4.972-1.388 7.49-.238 2.429-.052 4.9-.052 7.353l.44-.055 1.501-14.819zm28.658 18.986c.381-.835 1.187-1.742 1.061-2.492-.326-1.945-1.063-3.822-1.861-6.473-2.059 3.385.62 6.072.8 8.965zm-53.88-.077c2.534-3.952 2.491-4.175-1.102-5.41l1.102 5.41zm30.258-33.733l.679.005.898-10.034-.972-.063-.605 10.092z"/></svg>