<svg xmlns="http://www.w3.org/2000/svg" width="612" height="792" fill-rule="evenodd" fill="#ed1c24" xmlns:v="https://vecta.io/nano"><path d="M177.86 625.959c-5.756-3.711-10.723-5.396-16.407-1.925-2.652 1.619-5.462.704-7.671-1.239-2.17-1.909-2.009-4.712-.781-6.794 1.515-2.569 3.881-4.636 5.862-6.9-4.254-3.291-16.025-7.929-23.521-6.403 1.739.784 3.136 1.348 4.472 2.029 4.32 2.205 6.482 6.487 5.468 11.236-1.671 7.824-6.938 12.323-14.451 13.696-17.027 3.111-29.525-9.465-28.118-24.616 1.209-13.017 10.894-21.958 24.512-23.283 1.83-.179 3.672-.219 5.497-.484-7.343-1.276-14.608-2.168-21.64 1.66-3.217 1.75-5.987 1.14-7.457-1.021-1.501-2.208-1.236-5.631 1.198-7.833 2.185-1.978 4.867-3.407 6.906-4.79-8.938-3.24-17.724-4.221-24.41 1.711.237.181.435.419.686.511 4.65 1.688 6.894 4.601 6.505 8.476-.458 4.572-4.227 8.472-8.734 9.035-10.796 1.351-18.857-7.605-16.787-18.601 1.542-8.186 6.545-13.408 14-16.578.54-.229 1.089-.436 2.255-.899-8.674-3.001-16.67-6.093-25.275-6.796-2.284-.188-4.657.407-5.52 3.393-.212.735-2.019 1.55-2.986 1.435-4.345-.519-7.365-4.666-7.291-9.584.064-4.243 2.94-7.547 7.245-8.272.884-.148 1.79-.167 2.82-.257-3.85-5.469-8.259-10.465-11.184-16.217-3.402-6.689-5.524-14.032-8.158-21.107-1.286-3.451-2.304-7.014-3.772-10.383-.833-1.91-2.091-3.776-3.58-5.229-2.936-2.865-3.949-6.884-2.004-9.606 2.006-2.811 6.908-3.36 10.318-1.151.508.329.994.691 1.8 1.257 1.024-7.322 1.832-14.342-1.434-21.074-.546-1.126-1.697-2.016-2.708-2.847-2.352-1.936-3.49-4.323-2.699-7.312.786-2.969 3.023-4.595 5.895-5.216 4.144-.895 7.677.578 10.713 3.323.649.588.967 1.542 1.761 2.027.113-6.135-2.069-11.207-5.331-15.871-.854-1.221-1.663-2.05-3.488-.98-5.377 3.149-10.14 2.875-13.956-.45-3.398-2.963-4.455-8.396-2.626-13.625.401-1.146.871-2.268 1.31-3.403-6.558-.767-12.005-3.196-14.512-9.858-.988-2.625-.775-5.302 1.713-6.882 3.902-2.478 7.14-6.351 12.168-6.228-.415-2.689-1.144-5.251-1.145-7.814-.002-8.104 7.89-13.769 15.595-11.388 4.343 1.341 5.936 4.176 5.697 10.142 3.554-4.867 4.029-13.025.854-17.845-.661-1.003-1.887-1.78-3.019-2.296-2.856-1.304-5.071-6.142-3.538-8.836.565-.994 2.237-1.819 3.441-1.872 1.514-.067 3.067.738 5.357 1.377-1.222-1.304-1.975-2.672-3.121-3.224-3.302-1.588-6.738-2.913-10.167-4.219-7.729-2.942-11.613-9.48-9.853-17.477.502-2.28 1.802-4.631 3.373-6.377 3.134-3.483 8.435-3.102 11.571.753 2.83 3.478 5.325 7.219 10.247 9.366-2.327-8.438-2.627-17.01-7.88-24.097-.835-1.127-1.496-2.487-1.863-3.839-.909-3.351.748-5.302 5.555-6.405-.749-1.576-1.306-3.177-2.206-4.555-1.845-2.829-3.83-5.57-5.838-8.287-1.901-2.574-1.886-5.43-.969-8.197 1.4-4.226 6.698-5.411 11.138-2.667.938.581 1.801 1.282 3.185 2.277 2.156-26.293 16.664-41.945 41.317-49.354-.731-.479-1.14-.851-1.62-1.047-7.579-3.092-11.532-8.831-12.394-16.86-.83-7.731 6.689-15.534 13.655-14.155 3.944.782 5.583 2.792 6.447 7.495 1.009 5.5 2.718 10.818 8.605 12.815 3.074 1.042 6.545.916 10.27 1.37-3.239-2.264-6.102-3.936-8.557-6.075-2.373-2.066-2.35-4.397-.572-6.82 1.869-2.549 3.769-3.15 6.655-1.624 3.534 1.869 6.919 4.022 11.38 3.047-1.586-.67-3.204-1.276-4.754-2.02-9.409-4.511-15.065-11.787-15.895-22.335-.716-9.104 5.469-18.959 13.957-22.735 9.084-4.041 19.56-2.545 25.75 3.675 5.855 5.883 4.65 16.878-2.514 21.099-1.919 1.132-4.369 1.362-6.727 2.674l7.468 2.221c.424.117.986-.093 1.436-.274l14.036-5.683c2.726-1.081 5.498-2.047 8.392-3.118-1.734-1.367-3.235-2.294-4.403-3.533-1.717-1.824-2.496-4.187-1.292-6.48 1.281-2.442 3.666-2.891 6.357-2.587 3.899.439 7.905 1.125 11.393-1.469-2.708-1.683-5.458-3.144-7.92-4.988-2.735-2.048-3.953-4.925-2.974-8.373 1.062-3.738 4.164-6.345 7.936-6.682 3.571-.32 5.965 1.358 7.668 4.474 2.423 4.431 3.876 5.203 8.345 2.667 6.818-3.869 13.458-8.143 19.767-12.797 12.955-9.557 27.195-14.429 43.351-13.168 7.203.563 13.562 3.404 19.201 7.63l1.233-5.445c-.874-1.516-2.401-3.116-2.717-4.929-.701-4.009 2.138-6.978 6.972-6.979 3.671 0 7.343.966 11.159 1.524-.853-4.823 2.325-6.842 7.094-7.112 1.6-7.802 3.153-9.799 7.153-9.373 3.848.41 5.579 3.922 5.333 10.817 6.043-1.736 8.379-.433 9.572 4.912 3.989-.165 7.942-.824 11.762-.367 5.418.648 7.756 6.785 4.125 10.91-2.033 2.309-2.442 4.446-1.956 7.139 18.19-14.453 47.512-9.37 65.09 4.518 4.899 3.872 9.815 7.794 15.108 11.07 2.814 1.742 6.412 2.37 9.75 3.007.859.164 2.946-1.517 2.971-2.391.087-3.207 2.107-4.67 4.504-5.563 2.688-1.001 5.453-.7 7.741 1.389 3.838 3.503 4.191 9.595.256 13.101-2.275 2.028-5.32 3.207-8.061 4.689-.652.353-1.474.392-2.217.575l-.003 1.139c4.235.154 8.516.75 12.694.337 3.97-.393 6.347.013 7.539 2.832 1.259 2.976-.091 6.374-3.284 8.302-.515.311-.999.672-2.055 1.389l11.286 4.299c3.244 1.218 6.712 2.028 9.697 3.701 3.191 1.79 5.326.008 8.197-1.077-7.452-1.81-11.774-7.032-11.855-13.928-.078-6.789 5.1-13.223 12.209-15.17 10.536-2.886 22.875 2.075 28.521 11.467 5.424 9.019 4.291 20.085-2.967 27.817-1.521 1.621-3.383 2.922-4.817 4.635 5.627-.012 7.838 1.026 8.805 4.318 1.133 3.859-1.246 7.087-8.268 10.854.981.149 1.666.477 2.162.293 4.076-1.51 8.3-2.771 12.105-4.806 2.744-1.468 3.503-4.585 3.438-7.742-.124-6.02 3.844-9.502 9.801-8.617 4.145.616 7.296 2.746 9.007 6.608 4.098 9.255 1.918 16.538-7.126 23.124-1.702 1.239-3.767 1.981-5.458 2.848 25.718 6.837 39.777 23.537 41.766 50.384 1.084-.952 2.188-2.143 3.498-3.025 2.675-1.802 5.576-2.113 8.366-.318 2.867 1.844 3.572 4.756 2.793 7.837-.458 1.814-1.535 3.535-2.598 5.122-2.079 3.103-4.343 6.082-6.559 9.152 5.984 3.549 6.499 6.027 2.9 11.101-4.965 6.999-6.601 15.02-6.642 23.854 2.539-2.373 5.356-4.518 7.544-7.179 2.333-2.841 4.557-5.252 8.627-4.534 4.13.728 6.554 3.528 7.647 7.195 2.273 7.62-.836 16.028-9.129 18.49-4.059 1.205-7.834 3.369-11.723 5.133-.41.186-.712.61-1.488 1.302l3.209.004c2.263.061 4.477.517 5.183 2.97.74 2.573.04 5.016-2.376 6.428-8.582 5.014-8.352 13.158-3.956 20.617.312-5.549 3.26-8.583 8.22-9.608 4.738-.98 8.462.928 11.173 4.723 3.646 5.103 2.804 10.201-1.029 15.937 5.041-1.872 8.352.597 11.713 2.782 4.549 2.959 5.339 7.083 2.317 11.555-3.841 5.685-7.468 7.42-12.833 6.488.667 2.952 1.876 6.079 1.948 9.232.075 3.384-2.055 6.051-4.768 8.201-4.907 3.892-9.286 4.121-15.111.448-3.55 4.587-6.279 9.431-5.294 15.839l1.998-1.519c3.376-2.488 7.072-3.204 11.024-1.714 4.542 1.713 5.815 5.983 3.047 9.931-.526.75-1.098 1.534-1.822 2.066-4.622 3.397-5.889 8.171-5.642 13.559l.666 10.986c2.633-1.171 4.978-2.5 7.494-3.252 2.597-.776 4.867.241 6.311 2.629 1.528 2.527 1.705 5.555-.273 7.45-5.33 5.107-7.34 11.851-9.332 18.405-3.964 13.037-9.975 24.839-18.666 35.303-.113.137-.108.372-.155.563 7.625 1.132 11.068 5.356 9.593 11.764-1.296 5.622-5.111 8.278-9.838 6.848-.588-3.66-2.558-5.603-6.591-4.74-8.536 1.825-16.928 4.327-25.768 6.654 4.099 2.104 7.694 3.369 10.603 5.552 7.679 5.762 9.335 17.423 3.895 24.761-3.749 5.056-11.944 7.31-17.717 4.872-6.436-2.718-7.841-9.958-2.856-15.109.832-.86 2.056-1.343 3.047-1.968-3.933-4.361-15.25-4.705-23.811-1.332 1.524.487 2.855.655 3.89 1.299 1.857 1.157 3.875 2.327 5.205 3.989 1.775 2.219 1.955 4.942.037 7.372-1.885 2.388-4.37 2.153-6.681.952-6.433-3.342-14.687-3.36-20.725-2.074 2.972.489 5.246.773 7.479 1.246 14.946 3.166 23.975 16.634 20.492 30.509-3.908 15.57-24.576 22.874-36.47 12.888-7.659-6.431-7.195-16.328 1.022-21.934.239-.163.432-.394 1.443-1.33-2.191 0-3.681-.346-4.928.059-5.916 1.918-11.767 4.04-18.197 6.284 2.372 1.5 4.191 2.485 5.821 3.721 2.468 1.869 3.16 4.522 2.427 7.425-.637 2.516-2.482 3.987-5.031 4.343-.936.13-2.026-.043-2.901-.419-5.502-2.361-10.636-1.784-16.333 2.249l4.249.376c4.039.412 7.162 2.396 9.341 5.758 3.812 5.883.982 12.795-5.821 14.406-5.089 1.206-8.072-1.055-8.71-7.167-2.185.535-4.581.591-6.371 1.661-4.897 2.928-9.701 6.071-14.248 9.518-7.093 5.377-13.649 11.501-20.961 16.543-14.165 9.769-29.743 13.297-46.683 8.562-1.66-.464-3.24-1.246-4.813-1.978-1.566-.729-3.077-1.579-4.845-2.497l-.997 4.107c3.196 2.55 4.099 5.03 2.986 8.211-.932 2.666-4.17 4.593-7.708 4.524-1.639-.031-3.293-.051-4.908-.292-1.578-.235-3.115-.746-4.711-1.146-.181 6.182-1.533 7.628-7.459 8.216-1.597 3.554-2.274 8.061-7.441 8.145-3.477.056-5.291-2.337-6.734-8.122-5.89.079-7.225-4.014-7.397-8.316-4.165.491-8.049 1.245-11.947 1.326-3.563.074-6.878-2.881-6.705-5.887.098-1.705 1.307-3.43 2.291-4.97.572-.895 1.69-1.439 2.565-2.145l-.985-4.671c-7.128 4.75-14.777 7.605-23.281 7.7-16.043.179-29.695-5.725-41.636-16.213-6.689-5.876-13.49-11.651-20.555-17.061-2.84-2.175-6.484-3.342-9.847-4.765-1.029-.435-2.342-.196-3.47-.264-1.058 5.169-2.636 7.091-5.857 7.414-3.942.396-7.85-2.054-9.493-5.948-1.726-4.09-.628-8.507 2.763-11.325 3.489-2.899 7.581-3.909 12.952-3.818zm305.347-56.686c-3.533 2.606-7.783 4.539-8.963 9.886.907.135 1.949.631 2.687.345 8.138-3.165 16.023-1.948 23.928.942 1.215.443 2.8-.127 4.215-.228-.279-1.526-.203-3.263-.943-4.518-.652-1.105-2.112-1.983-3.399-2.41-2.605-.865-5.324-1.831-8.014-1.886-3.83-.078-8.04-.95-11.174 2.545-.265.295-1.142.039-1.937.039l4.403-3.525c3.118-.862 6.314-1.516 9.34-2.632 7.345-2.71 14.938-3.013 22.652-3.202 8.813-.218 13.095 5.023 10.048 13.015 3.281-.467 3.281-.467 4.994-9.865 2.889 5.845-.524 12.162-5.401 13.401l-3.978-7.032c-3.071 1.854-3.628 4.191-3.187 6.946.438 2.733 2.432 3.897 4.758 4.654 6.341 2.063 13.737-1.847 15.656-8.232 1.938-6.453-.538-13.861-6.046-17.707-5.893-4.113-12.39-5.411-19.514-4.284-7.494 1.186-13.944 5.046-20.809 7.817-2.354.951-4.257 3.026-6.364 4.589l-2.952 1.342zm-262.629 91.861l-.441-.743c-1.569-1.299-3.203-2.529-4.697-3.91-5.546-5.127-6.683-12.255-8.002-19.082-.734-3.797-1.819-8.093 1.234-11.756.189-.227-.521-1.702-1.112-1.997-3.813-1.909-8.075.716-8.317 5.081-.266 4.768 2.106 8.637 4.466 12.48.697 1.136 1.507 2.201 2.265 3.298l-.936.684c-2.053-2.549-4.533-4.87-6.049-7.705-1.802-3.371-3.293-6.735-5.801-9.83-9.549-11.785-18.947-23.537-31.264-32.787-10.213-7.67-20.981-12.141-33.876-10.762-7.752.828-14.11 4.055-18.684 10.464-5.827 8.167-4.91 20.323 1.467 26.672 4.779 4.758 10.427 6.518 16.723 6.171 6.111-.335 11.289-2.848 14.088-8.849 3.399-7.287-.258-10.494-5.88-12.878-2.612-1.107-4.348.762-5.571 2.66-.98 1.521-.918 3.288 1.052 4.542l1.378-2.23.846.097v4.472l-2.526 1.591c-4.254 2.695-7.218 1.977-10.568-1.967-4.798-5.649-1.841-15.734 3.654-19.544 6.588-4.566 13.761-5.946 21.563-3.861h-7.101l16.822 5.919-.294.864c-3.616-1.3-7.307-2.426-10.834-3.935-7.845-3.355-14.634-1.028-18.464 6.533-.263.52-.572 1.017-.969 1.718 1.907.819 3.525 2.168 4.816-.647.264-.575 1.336-1.063 2.061-1.099 4.45-.218 9.254-1.422 13.289-.18 8.16 2.513 15.936 6.305 23.79 9.75 1.459.639 2.545 2.129 3.803 3.227-3.194-.016-6.03-.782-8.915-1.096-2.977-.323-5.95.325-7.418 3.231-.724 1.435-1.127 3.758-.445 5.007 1.057 1.933 3.177 1.522 5.141.468 3.375-1.812 6.992-2.19 10.728-1.14 5.839 1.643 12.477 6.107 17.266 13.843-2.364-1.146-4.475-2.446-6.766-3.202-2.285-.754-4.752-.941-7.133-1.414-3.194-.633-5.843.527-8.223 2.497-3.887 3.217-3.555 9.311.879 11.674 1.405.749 3.676.793 5.183.209 2.176-.845 1.444-2.875.4-4.357-.272-.387-1.41-.164-2.367-.239 1.045-2.959 2.863-.714 4.321-.585 1.456-.589 3.107-1.584 4.429-1.256 3.624.9 7.369 1.897 10.583 3.712 3.799 2.146 7.083 5.198 10.613 7.829.512.383 1.527.979 1.659.845 1.488-1.528 1.771.274 2.231.862.98 1.249 1.514 2.924 2.651 3.963 3.323 3.038 6.762 5.968 10.319 8.729 14.265 11.072 30.201 14.955 47.641 9.705 8.549-2.573 15.301-7.853 15.792-17.839.339-6.888-1.871-13.179-9.932-14.618-4.57-.815-9.611 1.534-11.745 5.516-1.592 2.97-.701 8.071 1.932 10.879 1.843 1.966 4.137 2.855 6.672 1.821 2.584-1.055 3.466-3.28 3.187-6.036-.288-2.836-2.334-3.953-4.714-2.207-.888.652-1.079 2.254-1.626 3.512-2.259-1.134-1.296-3.317-.736-5.119.57-1.828 4.197-3.151 6.07-2.54 5.712 1.863 8.302 10.467 3.893 14.443-3.096 2.792-7.168 4.548-10.94 6.506-.89.463-2.325-.122-3.521-.213-1.362-.809-2.786-1.53-4.077-2.44-4.206-2.963-8.523-5.87-8.864-11.815-3.209 1.879-3.651 3.746-2.316 6.636 3.108 6.725 8.986 7.563 15.343 7.543.281 2.015-1.12 2.289-2.472 2.035-3.294-.618-6.578-1.346-9.81-2.234-6.599-1.813-11.435-9.291-10.292-15.984.445-2.604-.991-3.068-2.742-2.428-1.383.505-2.782 1.675-3.587 2.927-2.349 3.651-1.328 7.309.824 10.649 3.193 4.958 8.238 7.043 13.714 8.316 2.048.477 4.116.868 6.175 1.299-7.99-1.387-16.446-.915-23.643-5.518l.018.028 8.566 2.436c-1.338-.808-2.58-1.302-3.483-2.154-2.044-1.93-4.051-3.933-5.809-6.118-.862-1.07-.894-2.791-1.714-3.916-3.404-4.672-3.63-10.917-.715-16.26.583-1.067.506-2.876.004-4.023-.343-.783-2.188-1.65-2.952-1.369-2.261.832-5.125 1.701-6.275 3.5-1.927 3.013-3.187 6.718-.989 10.422l3.09 5.293-4.534-1.164 9.468 7.975c-.767.485-.932.674-1.102.679-.291.004-.579-.106-.866-.166zM39.274 389.647l.065.074c-.727-.301-1.435-.665-2.185-.892-3.324-1.004-6.634-2.074-10.003-2.905-1.923-.474-4.368-1.355-5.842-.606-3.016 1.532-5.616 3.95-8.188 6.229-.482.428-.237 1.963.021 2.891 1.38 4.942 9.757 9.528 14.817 6.386 2.535-1.574 5.709-2.12 8.55-3.115l-12.245 1.257c.409-.698.884-.792 1.364-.848 5.472-.628 11.004-.949 16.39-2.014 2.385-.472 4.032-.33 6.077 1.568h-6.138c1.728.49 3.428.878 5.149 1.061 3.875.409 7.074 1.501 8.106 5.935.332 1.423 1.604 2.673 3.163.911 1.882-2.127 1.31-7.207-1.078-8.769-1.691-1.106-3.625-1.842-5.722-2.878.642-.293.979-.497 1.344-.607 4.799-1.451 5.902-2.955 5.649-7.73-.181-3.421-2.092-4.345-5.563-2.669l1.733 2.998-15.464 3.723zm81.05-172.499c1.687-2.241 4.558-2.586 6.714-4.358 6.294-5.174 13.306-9.466 19.923-14.26 2.435-1.764 4.554-3.963 6.817-5.965-2.007.562-3.667 1.628-5.481 2.213-6.155 1.985-12.054 4.296-18.994 3.494-5.382-.623-10.778.183-15.391-3.66-.621-.517-2.781-.081-3.469.639-.638.668-.728 2.585-.214 3.452.726 1.227 2.102 2.238 3.419 2.916 7.687 3.954 15.35 3.499 22.943-.384 2.672-1.366 5.387-2.649 8.083-3.97l.352.769c-7.403 3.744-14.468 8.26-22.762 10.016-2.99.633-6.082.79-9.128 1.151-7.006.831-14.153-4.204-15.833-11.016-.3-1.217-1.127-2.303-1.666-3.361-1.138.192-1.935.363-2.74.457-2.953.341-4.032 1.63-2.812 4.227 2.185 4.649 5.387 8.663 10.627 9.88 4.811 1.118 9.791 1.504 14.365 2.164l-7.597.632.059.44h9.581c-5.303 1.625-9.647.98-14.075-.012-4.71-1.055-8.889-3.014-11.967-6.695-1.385-1.656-1.951-3.985-2.943-5.982-1.714-3.452.068-6.901 3.78-7.523 1.067-.178 2.04-.921 3.056-1.405-1.198-1.064-2.344-2.924-3.607-3.009-1.962-.13-4.334.475-5.955 1.601-5.423 3.769-5.948 11.983-1.416 18.11 4.618 6.243 11.483 8.185 18.604 9.627 3.428.694 6.582.257 9.758-1.396 2.275-1.184 4.922-1.651 7.404-2.438l.25.667-4.845 2.125 5.166.859-11.949 1.748.184 1.138c1.892-.364 3.803-.651 5.67-1.114 2.049-.51 4.06-1.179 6.089-1.777zm451.729 227.873l-.067-.058.281 2.79c1.792-2.073 3.45-3.495 4.466-5.282 1.601-2.816.46-4.92-2.707-5.703-6.455-1.598-11.686 3.754-11.15 10.921.222 2.979.819 5.929 1.246 8.892-1.47-1.432-2.941-2.925-3.158-4.581-.724-5.514-1.162-11.082-1.37-16.642-.097-2.574.129-5.356 1.042-7.724 1.143-2.965 3.176-5.58 4.735-8.396.25-.451.035-1.162.035-2.149-5.226 5.296-7.822 11.306-9.166 17.947-.269-10.941 4.336-19.715 12.248-26.863 2.318-2.095 5.866-1.833 8.629-.034 2.908 1.896 2.716 4.711 2.257 8.3-.984-1.086-1.855-1.666-2.174-2.467-1.342-3.372-5.146-4.502-7.983-2.045-.836.725-1.629 2.355-1.394 3.313 1.033 4.218 4.825 6.994 8.572 6.701 3.771-.296 8.22-4.877 8.646-8.905.796-7.526-8.414-13.918-16.096-11.25-7.29 2.53-11.34 8.062-14.093 14.851-3.539 8.727-3.782 17.831-2.316 26.907 1.069 6.615 3.439 12.935 7.487 19.483l.361-6.483.954.049.22 4.372c.07 1.788-.238 3.676.23 5.348 1.506 5.362 3.296 10.646 4.789 15.366l-.721-8.786.675-.035 1.123 26.071c.184-.551.446-1.146.579-1.771 2.58-12.107 1.431-24.288.228-36.389-.545-5.479 1.954-10.043 2.731-15.081.042-.259.564-.445.861-.667zm-19.874 85.296c2.108-1.716 4.833-2.228 6.64-4.789 6.624-9.392 11.438-19.536 14.834-30.496 1.949-6.287 3.496-12.925 8.738-17.655 1.836-1.655 2.421-3.813.936-5.746-1.419-1.846-3.568-1.54-5.613-.568-4.869 2.314-8.039 8.724-7.391 15.629l1.137-5.44c.398 7.878-1.514 15.277-3.837 23.461l-3.771-30.004-1.041.139.68 4.895-5.574-14.276c-2.051-5.104-5.089-6.997-10.524-6.047-1.186.207-2.393 1.93-2.956 3.229-.222.514 1.148 1.953 2.042 2.653 1.016.794 2.392 1.112 3.469 1.846 5.271 3.588 6.942 9.622 9.859 14.799.621 1.104.804 2.456.967 2.981-2.604-2.367-5.194-5.426-8.428-7.467-3.4-2.145-7.867-.333-9.731 3.117-1.155 2.137-.445 3.632 1.899 4.251 1.265.335 2.533.763 3.695 1.354 4.877 2.481 6.486 7.222 7.722 11.984.991 3.827 1.354 7.817 1.996 11.734-.384.03-1.057-.04-1.108.106-.764 2.177-1.553 4.357-2.078 6.597-.152.648.505 1.486.791 2.237l-2.584.137c-.287-3.665-.448-7.512-.944-11.314-.257-1.967-1.881-3.189-3.772-2.539-.699.241-1.169 2.295-1.08 3.472.258 3.427 1.245 6.766-.77 10.113-1.671 2.775-2.837 5.852-4.278 8.769-4.462 9.031-11.25 15.919-19.737 21.195-.989.614-2.199.873-3.503 1.371 4.172-3.215 8.434-5.824 11.809-9.296 3.058-3.146 5.523-7.034 7.58-10.947 3.339-6.354 4.141-13.009.219-19.574-1.293-2.164-3.382-2.846-5.566-2.156-2.553.806-5.789 1.41-6.123 4.747-.14 1.396 1.252 2.987 2.098 4.4.134.224 1.194.169 1.601-.1 1.048-.69 1.969-1.573 2.94-2.38l.572.634-1.455 2.708 2.568-.569c-1.127 9.547-3.475 20.313-29.939 38.28 3.249-.604 6.427-1.482 9.59-2.407l32.685-9.502c6.346-1.692 9.038-.327 12.479 4.854 3.067-1.38 5.185-5.375 4.503-8.497-.603-2.76-3.261-5.464-5.828-5-3.932.711-7.788 1.975-11.577 3.289-2.284.793-4.38 2.125-6.561 3.215 2.013-2.063 4.524-3.285 6.518-5.083 1.979-1.785 3.438-4.148 5.124-6.26l.078-.084zM32.781 319.349l.048.065c1.723-2.2 3.873-3.06 7.155-1.557-2.05-2.981-3.368-5.659-6.973-5.175-2.832.379-4.957 2.693-5.831 6.367-1.503 6.317.791 10.731 7.284 13.794 3.785 1.785 7.694 3.315 11.432 5.189 3.929 1.97 4.845 6.361 5.417 9.794.849 5.09.077 10.508-.404 15.75-.59 6.436-2.397 12.232-8.749 15.714-4.366 2.393-6.311 2.376-9.361-1.495-2.401-3.047-1.123-6.751 2.635-7.54.39-.083.856.201 1.288.315-.116.415-.123.916-.368 1.227-.646.819-1.395 1.556-2.133 2.358 3.807 2.651 4.713 2.851 6.249 1.532 2.38-2.044 2.18-7.183-.353-9.061-3.805-2.821-10.031-1.477-12.655 2.733-2.724 4.371-1.456 12.808 2.459 14.435 10.531 4.375 17.277 2.202 23.327-6.981 6.558-9.954 5.982-21.878 7.246-33.216.657-5.897.852-11.905 2.18-17.649.862-3.728 3.46-7.039 5.131-10.607.471-1.006.417-2.258.604-3.397-1.273.419-3.072.456-3.711 1.335-1.407 1.936-2.521 4.208-3.219 6.505-1.103 3.626-1.765 7.387-2.613 11.091-.877-1.488-1.344-3.003-1.118-4.407 1.265-7.856 2.01-15.89 4.263-23.468 2.292-7.709 5.067-15.83 14.929-17.608.79-.143 1.984-2.029 1.811-2.857-.791-3.757-3.018-5.138-6.974-4.895-3.531.217-6.447 1.768-8.138 4.782-1.683 2.997-2.907 6.273-4.112 9.51-.787 2.113-1.181 4.373-1.951 7.336l-1.508-7.504-2.819-14.309c-1.102-4.958-2.385-9.988-8.17-11.547-1.569-.423-4.221-.519-4.918.375-1.049 1.345-1.416 3.845-.973 5.572.531 2.071 2.054 3.974 3.434 5.725 4.286 5.438 6.737 11.673 8.092 18.352 1.358 6.69 2.472 13.43 3.655 20.155.132.749.018 1.542.018 2.314l-.898-.023-2.505-15.709-.2 3.944c-.702-3.137-1.017-6.291-1.708-9.361-.362-1.609-1.124-3.299-2.199-4.516-.709-.802-2.299-.826-3.494-1.199-.083 1.22-.385 2.478-.183 3.648.165.952.817 1.893 1.452 2.678 3.367 4.163 4.159 9.206 5.233 14.229 1.729 8.084 3.94 16.065 5.63 24.156 1.017 4.867 1.431 9.859 2.116 14.795l-.981.118c-.063-.813-.227-1.631-.173-2.435.465-6.91-1.812-13.089-5.006-19.027-4.208-7.823-8.815-10.292-17.528-9.5-.36.035-.775-.552-1.162-.85zm15.34 147.557l3.326-14.771-1.339.541c-.479-.271-.939-.602-1.453-.767-.105-.033-.409.549-.621.848.102-1.018-.058-2.157.35-3.032 2.111-4.531-.851-7.633-3.151-10.7-1.91-2.548-5.004-3.446-8.02-2.382-1.53.54-3.28 2.117-3.705 3.58-.318 1.098 1.027 3.09 2.153 4.107 2.224 2.006 3.694 4.263 4.35 7.181 2.493 11.084.284 22.067-.686 33.158-1.121-2.938-1.903-5.926-2.445-8.957-.476-2.665-1.649-4.948-4.416-5.079-1.63-.078-4.073.883-4.837 2.161-1.354 2.268.409 4.108 2.367 5.567 1.026.765 2.142 1.774 2.571 2.916 2.375 6.313 4.546 12.701 6.797 19.061 1.501 4.241 2.523 8.742 4.629 12.66 5.214 9.7 11.816 18.306 21.688 23.877.993.561 1.701 1.626 2.542 2.457l-.576.639c-1.08-.539-2.224-.981-3.229-1.637-3.818-2.488-8.037-2.75-12.378-2.329-2.91.282-4.746 1.718-4.929 4.84-.233 3.979 1.356 6.655 4.524 7.539 2.183-4.877 5.926-6.1 11.111-4.771 11.166 2.862 22.255 6.034 33.327 9.246 6.112 1.773 12.127 3.885 18.079 5.81l-9.388-5.402c-3.061-1.781-5.654-4.372-9.406-4.959-1.223-.191-3.318-1.254-3.298-1.859.102-3.02-2.623-2.979-4.039-4.254-4.982-4.488-8.358-10.066-10.958-16.13-.659-1.538-.872-3.408-.782-5.098.224-4.233 3.545-6.409 7.997-4.651 0-1.91.58-3.879-.139-5.053-1.017-1.659-2.863-3.599-4.588-3.856-2.844-.426-6.046.238-7.668 3.251-1.716 3.185-2.702 6.559-2.125 10.315 1.029 6.703 5.041 11.726 9.061 16.777.647.814 1.238 1.674 1.854 2.512-2.072-.813-3.84-1.766-5.094-3.175-4.166-4.686-8.042-9.395-9.788-15.832-1.242-4.579-2.598-8.999-2.454-13.755.047-1.54.069-3.238-1.827-3.16-1.084.044-2.707 1.138-3.071 2.131-1.785 4.879-2.33 9.451 1.581 14.116 2.978 3.553 4.644 8.205 6.894 12.368l.07-.056c-1.141-.608-2.641-.938-3.366-1.869-7.572-9.725-11.947-20.536-9.525-33.041.649-3.354 2.688-6.552 4.564-9.522 1.523-2.413 4.11-3.238 7.126-3.382 1.371-.065 3.642-1.81 3.799-3.016.492-3.771-6.228-7.895-9.632-6.093-3.648 1.932-7.508 3.713-9.157 7.993-.101.261-.539.391-.82.581.143-1.669.786-2.987 1.507-4.262.8-1.412 1.657-2.793 2.515-4.171 1.687-2.709 3.153-5.605 5.179-8.033 1.222-1.465 3.315-2.212 5.037-3.249.875-.527 2.611-1.164 2.55-1.436-.282-1.265-.767-2.967-1.728-3.478-1.317-.698-3.386-1.061-4.68-.508-2.989 1.278-6.357 2.189-8.012 5.614-.794 1.643-2.163 3.006-3.296 4.529l-.922-2.65zm480.605-219.308c1.832-.303 3.667-.855 5.495-.835 1.576.018 3.161.628 4.711 1.084 1.189.349 2.477.659 3.454 1.358 1.244.889 2.219 2.151 3.311 3.253l.974-.882c-1.56-2.173-2.987-4.458-4.703-6.5-5.538-6.594-12.014-7.333-18.921-2.298-3.332 2.428-4.085 6.96-2.059 9.182l7.825-4.429 6.51.901-2.273 1.38 2.361.282-10.306 2.877c-.3.087-.573.556-.7.905-1.024 2.808-1.202 5.613.347 8.298 1.713 2.97 4.275 3.291 7.144.859-.322-.484-.574-1.079-1.009-1.472-1.359-1.23-2.587-2.435-1.183-4.393 1.389-1.936 2.344-4.026 5.583-3.724 5.998.559 9.739 4.381 11.928 9.033 3.457 7.345 6.417 15.036 6.476 23.451.011 1.429.908 2.852 1.396 4.278.319 2.301-.077 4.823-.396 7.355-.319 2.538-.562 5.085-.837 7.628l-1.009-.059c1.625-4.763-1.218-9.375-.025-14.155.146-.582-.416-1.453-.857-2.032-.362-.474-1.173-.604-1.541-1.076-1.999-2.56-3.712-5.374-5.923-7.725-2.703-2.876-5.572-3.269-8.828-1.149-1.322.86-2.616 2.865-2.601 4.335.013 1.207 1.786 3.087 3.12 3.467 6.041 1.718 9.059 6.203 10.688 11.603 1.825 6.052 3.06 12.295 4.288 18.507.427 2.156.068 4.467.068 6.708-5.706-11.338-5.706-11.338-9.061-11.335l2.286 5.69c5.377 13.503 6.02 27.902 7.747 42.067.852 6.979 2.77 13.366 6.75 19.152 3.788 5.504 12.193 8.325 18.498 6.144 6.669-2.308 9.764-10.835 5.935-16.552-1.935-2.888-4.783-4.198-8.219-3.702-3.155.455-5.501 2.484-5.757 5.553-.163 1.951.942 4.299 2.188 5.926.474.619 3.23.149 4.38-.645.749-.518.477-2.514.663-3.856-1.288.136-2.062.45-2.43.191-.358-.252-.537-1.186-.356-1.649.162-.418.94-.874 1.406-.834a4.47 4.47 0 0 1 2.215.83c2.196 1.649 2.871 4.401 1.634 6.18-2.058 2.96-6.659 4.874-8.958 3.248-3.66-2.587-7.548-5.272-8.465-10.111-1.536-8.115-3.068-16.288 1.358-24.096.044-.077-.149-.287-.531-.971l-4.27 9.323-.889-.323c1.163-3.748 2.091-7.592 3.588-11.202.729-1.758 2.24-3.594 3.89-4.484 3.471-1.875 7.189-3.384 10.947-4.612 5.267-1.722 8.303-5.103 8.816-10.576.545-5.794-2.862-10.516-7.517-10.169-.995.074-2.378.894-2.733 1.731-.296.697.383 2.213 1.092 2.865 3.471 3.191 4.144 5.965 1.063 8.873-1.569 1.48-4.313 1.714-6.525 2.511l-.264-.717c1.191-.5 2.808-.68 3.48-1.572 1.1-1.455 2.44-3.554 2.123-5.053-.459-2.174-2.74-2.919-4.982-1.767-4.512 2.32-8.687 4.972-10.771 10.002-.887 2.141-2.292 4.068-3.461 6.092 1.209-7.824 3.297-15.39 4.441-23.097.629-4.233 4.544-8.133 1.318-12.846.883.148 1.759.5 1.923.291 1.64-2.084 3.237-4.213 4.657-6.449.313-.493.086-1.976-.248-2.108-.946-.375-2.261-.672-3.083-.277-.874.419-1.315 1.695-2.009 2.546-.447.548-1.006 1.004-1.515 1.501l-1.024-.706c1.898-4.134 3.595-8.378 5.767-12.362 1.504-2.756 3.65-5.164 5.539-7.706 1.662-2.237 1.747-5.701.136-7.34-1.526-1.553-4.986-1.536-6.941.742a33.46 33.46 0 0 0-5.273 8.46c-1.208 2.806-1.545 5.987-2.266 9.002-.336-2.065-.085-4.073-.067-6.083.056-6.007.634-12.091-.1-18.007-1.945-15.698-10.459-27.313-23.9-35.324-8.526-5.082-17.396-7.877-27.372-3.719-7.976 3.324-9.559 11.439-2.975 16.961 1.713 1.436 3.815 1.811 5.286.315.943-.961 1.516-3.294 1.008-4.477-1.334-3.106.396-4.681 2.53-5.573 2.677-1.12 5.662-2.088 8.516-2.089 9.175-.001 15.302 6.482 22.232 11.191.045.031-.086.32-.232.823-2.521-1.692-4.842-3.543-7.418-4.917-5.372-2.863-10.937-5.276-17.276-3.726-2.553.624-2.64 1.106-1.017 3.226 6.988-1.625 13.483-.264 19.331 3.358 2.824 1.749 6.289 3.141 7.062 7.432.405 2.247 2.543 4.171 3.855 6.268.901 1.44 1.697 2.947 2.598 4.387 2.162 3.461 3.787 7.083 4.043 11.384-2.307-3.725-4.268-7.311-6.628-10.612-4.445-6.218-10.262-9.841-18.276-8.636zm-84.044-68.351c.845-.15 1.766-.59 2.52-.392 1.469.385 2.811 1.229 4.264 1.703 4.289 1.399 8.526 1.775 12.693-.998l-32.186-12.247.353-1.198c1.28.079 2.57.299 3.839.207 2.907-.211 5.871-.292 8.683-.964 2.377-.569 3.205-2.869 2.165-4.872-.482-.929-2.777-1.572-4.051-1.323-5.78 1.131-11.205.208-16.496-2.08-.715-.309-1.427-.751-1.975-1.297-1.566-1.562-3.047-3.209-4.563-4.823 1.613.569 3.14 1.59 4.746 2.463.569.309 1.424.512 1.996.317 1.724-.586 3.363-1.413 5.053-2.105 1.319-.541 2.763-.851 3.978-1.56 3.911-2.281 5.265-7.349 2.901-10.598-1.434-1.973-3.478-2.82-5.628-1.618-1.201.672-2.757 2.353-2.643 3.414.304 2.792-.962 3.753-3.234 4.402-4.663 1.331-8.987.222-12.806-2.303-4.775-3.156-9.298-6.706-13.831-10.215-14.229-11.013-29.903-16.767-48.134-13.563-8.405 1.478-15.518 4.984-20.45 12.282-3.052 4.515-3.067 13.976 1.414 17.96 4.412 3.924 14.413 5.318 17.89-2.931 1.104-2.621.694-5.009-.984-7.21-1.622-2.127-3.937-3.323-6.438-2.668-1.349.353-2.313 2.174-3.449 3.333 1.093.508 2.207 1.483 3.274 1.433 2.707-.125 2.842 1.256 2.579 2.78-.903.479-1.56.706-2.068 1.115-2.147 1.725-4.53 1.694-6.2-.284-2.456-2.908-4.151-8.718-.841-12.445 1.979-2.227 4.482-4.464 7.202-5.449 4.521-1.638 9.407-2.272 14.14-3.329l.176.405-2.815-.223.154-1.034 11.588 2.213-3.077.481c1.213.454 1.896.632 2.505.95 3.625 1.896 7.141 3.847 9.039 7.836 2.331 4.897 1.869 6.572-3.53 8.782 1.349 1.11 2.485 2.789 3.482 2.71 2.039-.161 4.558-.729 5.881-2.095 2.771-2.86 1.442-10.224-2.048-12.285-3.997-2.361-8.234-4.315-12.368-6.446 1.706.313 3.46 1.043 5.108.855 4.054-.464 6.743 1.517 9.842 3.767 5.223 3.792 6.909 8.761 6.444 14.673-.257 3.271-.856 6.727-4.667 8.228-.448.176-.886 1.183-.793 1.71.099.562.933 1.5 1.275 1.432 2.487-.498 5.581-.482 7.267-1.99 4.949-4.426 5.048-14.961.754-20.703-.887-1.187-1.832-2.332-3.188-4.05 5.867 3.8 13.211 17.097 13.464 23.455.126 3.19-.101 6.171-3.102 8.01 1.05 3.271 3.475 3.946 6.172 3.6 2.677-.344 3.351-2.771 3.321-4.86-.038-2.793-.453-5.685-1.32-8.333-.932-2.852-2.572-5.472-3.903-8.193 1.229.337 1.954 1.107 2.584 1.949 1.467 1.963 2.479 4.656 4.414 5.798 4.019 2.37 5.632 6.254 7.777 9.883l.074-.071c-2.256 1.064-.224 2.163.203 2.808 7.496 11.331 17.977 19.251 29.833 25.455 3.495 1.829 7.34 2.989 11.03 4.458-.156.104-.327.191-.46.319-.041.04-.014.233.045.282 2.584 2.136 5.264 4.165 7.749 6.409 8.795 7.943 17.078 16.507 30.275 16.817 7.764.182 15.231 1.093 22.617-3.007 9.045-5.022 12.305-11.354 9.158-20.946-1.531-4.669-7.137-6.998-11.542-4.762-2.229 1.131-2.829 2.91-2.243 5.338.282 1.173.399 2.643-.059 3.696-2.794 6.421-8.27 9.878-14.776 10.566-10.501 1.11-20.444-1.841-29.917-6.321-.54-.256-.992-.713-1.458-1.109-.456-.388-.878-.817-1.315-1.229 5.889 2.87 11.766 5.25 18.235 5.293 4.661.03 9.294-.92 12.763-4.32 1.108-1.088 1.802-3.356 1.494-4.837-.175-.841-2.726-1.425-4.275-1.658-1.004-.151-2.157.479-3.204.865-5.383 1.99-10.777 4.257-16.648 3.496-5.742-.745-11.526-1.646-16.541-4.956l9.712 1.061c12.479 1.725 22.893-1.332 29.961-12.561 6.273-9.97 4.615-20.495-4.512-27.902-7.153-5.805-18.113-6.777-24.998-2.22-7.758 5.138-7.449 16.193.572 20.495 3.44 1.845 7.132.207 7.694-3.596.175-1.183-.046-2.904-.803-3.598-.628-.576-2.307-.007-3.295.043l1.274 3.638-1.324.989c-1.36-1.768-3.058-3.384-3.954-5.362-.521-1.153.075-2.942.536-4.323.121-.363 1.606-.271 2.466-.388l.898-.514c5.114-2.46 10.808-1.576 12.92 2.419 3.973 7.513 3.428 16.313-4.832 21.59-7.68 4.906-16.007 5.756-24.8 4.18-1.688-.303-3.492.066-5.241.054-.586-.004-1.261-.083-1.74-.378-2.304-1.417-4.554-2.919-6.822-4.39.873-.167 1.555.001 2.167.31 7.185 3.623 14.849 4.34 22.689 3.516 2.499-.262 5.18-.776 7.313-1.99 2.109-1.201 3.862-3.261 5.345-5.261 1.334-1.8 3.216-3.754 1.72-6.732-1.051 1.198-1.723 2.561-2.804 3.096-6.341 3.136-12.389 6.618-19.895 7.216-5.804.462-10.47-1.369-15.354-3.521l-.08.081zm-250.598-21.485l.75-3.192 1.338-1.578.659 2.411 7.37-12.849.897.444c-.648 1.639-1.123 3.376-1.979 4.898-2.086 3.701-2.811 7.521-2.348 11.788.358 3.306 2.699 4.573 5.036 5.479 1.086.421 3.249-.626 4.242-1.661.912-.952.373-2.429-.943-3.581-.961-.842-1.77-2.484-1.718-3.73.117-2.814.479-5.71 1.335-8.383 1.793-5.597 5.382-10.212 8.522-15.125 3.352-5.245 8.366-6.924 12.193-8.784-3.118 2.735-7.521 5.756-10.808 9.706-3.793 4.56-5.958 9.975-3.056 16.192 2.801 5.996 4.932 6.626 10.177 2.549-5.007-6.655-4.229-18.043 3.116-23.328 2.617-1.882 5.583-3.307 8.487-4.747 1.67-.829 3.533-1.269 5.284-1.875l-11.489 8.36c-2.623 1.811-4.113 4.404-3.642 7.285.371 2.275 1.805 4.724 3.493 6.336 1.564 1.494 4.073 1.582 6.386-.197-.57-.852-.903-1.985-1.577-2.25-3.676-1.445-2.445-4.061-1.479-6.337 2.87-6.761 9.312-9.492 15.414-11.522 5.834-1.94 11.911.136 17.382 3.168 4.21 2.333 8.825 11.22 6.827 16.203-.836 2.084-1.973 3.581-4.055 3.512-1.771-.06-3.566-.906-5.22-1.684-.349-.164-.475-1.857-.086-2.286.582-.642 1.736-1.096 2.597-1.026.496.041.896 1.271 1.499 2.215 1.556-1.848 1.587-3.479.253-4.916-1.553-1.672-3.317-3.123-5.926-2.144-2.474.93-4.229 2.473-4.665 5.194-.856 5.355.74 7.911 6.013 9.698 6.151 2.083 14.581-1.854 15.81-7.565 1.455-6.76-.748-12.472-5.546-17.285-6.156-6.175-13.91-8.455-22.311-8.732-15.302-.504-28.535 4.891-40.584 14.123-5.971 4.575-12.435 8.616-19.05 12.207-4.66 2.529-10.153.669-13.218-3.18.476-.501 1.316-.999 1.295-1.458-.029-.66-.535-1.51-1.1-1.899-2.176-1.498-5.305-.919-7.243 1.19s-2.297 5.255-.489 7.297c3.742 4.227 8.398 6.414 14.191 5.729.873-.103 1.783.12 2.676.193-.667 1.271-1.306 1.77-2.024 2.092-6.288 2.821-12.608 5.411-19.792 4.185-1.004-.171-2.865.38-3.11 1.045-.386 1.047-.171 3.119.563 3.615 1.739 1.177 3.931 2.285 5.942 2.291 1.97.005 3.935-1.414 5.92-2.156.771-.288 1.592-.438 2.391-.649l.383.938c-3.213 2.124-6.232 4.664-9.685 6.27-4.693 2.183-9.738 3.6-14.593 5.448-2.456.934-4.827 2.092-7.236 3.148l.246 1.329 6.896 1.098c-9.437 1.236-17.583-2.358-25.799-6.955-.01 1.969.106 3.746.98 4.988 4.72 6.711 11.618 6.598 18.867 5.871-2.65 1.048-5.32 1.681-8.018 1.841-5.568.331-10.7-1.28-14.589-5.261-3.716-3.805-3.74-9.278-5.107-14.115-.102-.358.104-.8.153-1.205.52-4.305 3.414-6.798 6.809-8.901 3.543-2.195 7.851-1.684 11.019 1.025 2.133 1.825 1.343 3.341.201 5.284-1.264 2.152-2.638 1.231-4.159.663-.993-.371-2.021-.648-3.477-1.108.367 1.907.493 3.028.805 4.094 1.208 4.128 4.437 5.507 8.302 3.477a9.99 9.99 0 0 0 2.849-2.284c4.588-5.325 3.447-12.949-2.449-16.823-6.683-4.391-17.323-3.942-24.409 1.032-6.75 4.737-10.368 14.003-7.996 22.023 3.688 12.468 13.79 18.733 27.794 18.512 4.087-.065 8.279.746 12.312-1.16 2.936-1.388 6.129-2.265 9.256-3.211 16.148-4.888 27.546-15.603 36.302-29.546.239-.381-.157-1.163-.257-1.758zM437.83 615.458c1.045-1.196 1.895-2.678 3.165-3.543 8.353-5.691 17.44-9.798 27.337-11.966 5.658-1.24 10.973-.543 15.418 3.54 1.996-2.026 2.563-4.511 1.457-6.236-2.733-4.264-8.005-5.636-13.367-4.206l5.521 2.856-.107.396-9.119-1.387c.688-1.878.688-1.878 8.688-3.211l-4.467-.33c5.604-1.731 11.038-.629 15.308 2.951 1.555 1.303 3.526 2.731 4.064 4.484.959 3.125 1.353 6.546 1.304 9.834-.105 7.085-7.021 11.357-13.452 8.607-1.589-.679-3.227-1.243-4.97-1.908.844-2.046 1.405-4.163 4.157-4.699.979-.19 2.594-1.468 2.493-1.961-.228-1.127-1.263-2.864-2.099-2.941-2.111-.19-4.639-.21-6.384.784-6.22 3.542-6.104 12.724.188 17.352 6.858 5.045 14.332 4.589 21.529 1.039 6.595-3.252 10.368-8.984 10.926-16.354.85-11.249-6.946-20.753-18.961-23.802-17.953-4.556-31.045 4.448-43.433 15.445-2.938 2.609-5.825 5.282-8.629 8.035-3.746 3.678-7.868 7.108-10.955 11.29-4.106 5.563-7.319 11.78-11.017 17.654-2.213 3.515-4.618 6.911-6.938 10.36l-.896-.613c.931-1.534 1.952-3.021 2.773-4.611 1.493-2.89 3.57-5.726 4.076-8.802.43-2.615-.152-6.367-1.84-8.112-2.062-2.132-5.729-3.12-9.093-.414 2.798 1.937 4.612 4.362 3.479 7.892-2.341 7.291-4.544 14.636-7.204 21.81-1.614 4.353-5.588 6.705-9.391 9.022.352-.879.851-1.638 1.534-2.151 5.153-3.871 7.246-9.36 7.654-15.448.601-8.95-2.615-11.988-11.55-11.557-.404.019-.807.077-2.005.196.762 1.902.982 3.969 2.131 5.057 4.471 4.234 3.806 12.078 1.314 16.259-3.424 5.743-7.933 10.432-14.084 13.093-3.649 1.577-7.66 2.318-11.508 3.436l-.333-1.262c1.236-.241 2.466-.533 3.712-.714 7.701-1.121 15.856-7.8 16.96-14.568.324-1.982-.679-4.571-1.909-6.282-.852-1.185-3.135-1.341-5.524-2.235 1.45 9.205-1.366 15.421-8.832 18.917-6.884 3.223-14.03 3.312-21.523.356l1.911-.15c-2.464-2.246-5.021-4.375-7.334-6.744-2.122-2.171-2.486-6.712-.967-9.172 1.896-3.07 4.985-5.616 7.83-4.193.742 1.382 1.519 2.356 1.787 3.456.278 1.132.063 2.384.063 3.583-.761-.41-.665-1.017-.912-1.236-1.085-.963-2.193-1.957-3.46-2.622-.395-.206-1.619.411-1.944.958-1.941 3.28.478 7.443 4.333 7.621 5.231.241 9.854-6.272 8.065-11.364-1.498-4.264-8.146-7.809-12.673-6.757-6.105 1.418-10.603 7.335-10.616 13.68-.016 7.372 3.277 12.683 9.605 16.28 11.943 6.788 24.479 6.23 36.871 2.126 12.484-4.136 22.214-12.872 32.17-21.116 4.799-3.974 9.676-7.984 15.02-11.123 3.678-2.158 8.091-4.799 12.582-.98l.854-1.281.221 2.742c.186 3.531 2.052 4.655 5.331 3.199 4.958-2.201 5.941-5.046 3.457-9.796-1.64-3.133-4.458-4.556-7.711-4.912-5.225-.573-10.191.263-14.555 3.566-1.754 1.328-3.725 2.373-5.597 3.547l-.408-.546 10.032-9.726c2.758-.301 4.952-1.787 7.273-3.168 4.933-2.933 10.144-4.374 15.714-1.556.355.18.827.375 1.174.286 1.396-.356 3.448-.434 3.967-1.348.633-1.115.462-3.251-.229-4.445-1.903-3.293-5.954-4.619-9.646-3.376-2.658.897-5.207 2.132-7.806 3.215zM308.414 156.105c-7.07 0-14.156-.292-21.206.082-7.139.38-14.283 1.149-21.355 2.218-28.825 4.354-55.961 13.813-81.545 27.711-25.101 13.637-47.05 31.262-65.512 53.068-12.36 14.598-22.667 30.578-30.325 48.172-5.101 11.719-10.611 23.249-14.009 35.675-4.844 17.718-8.682 35.604-9.681 53.963-.874 16.072-.074 32.091 2.323 48.057 3.907 26.021 11.486 50.882 23.022 74.497 13.143 26.904 31.31 50.122 53.069 70.547 18.641 17.497 39.481 31.855 62.598 42.88 12.865 6.136 25.904 11.935 39.872 14.899 14.489 3.076 29.085 5.936 43.777 7.679 15.178 1.801 30.424.354 45.626-1.545 16.425-2.052 32.427-5.353 47.945-11.262 25.549-9.728 49.356-22.379 70.521-39.848 26.143-21.576 47.364-47.223 63.859-76.774 8.27-14.813 14.114-30.652 18.689-46.951 5.301-18.88 8.91-38.053 9.399-57.728.431-17.335-.038-34.633-2.841-51.772-3.625-22.166-10.923-43.151-20.244-63.564-5.951-13.034-13.319-25.188-21.547-36.76-10.063-14.155-22.354-26.414-35.539-37.721-11.168-9.577-23.559-17.315-36.396-24.463-17.447-9.716-35.7-17.469-54.948-22.592-21.431-5.702-43.237-9.336-65.552-8.468zm-208.405 75.064c.691 2.392 1.188 4.452 1.904 6.433.308.85.914 1.934 1.654 2.224 2.654 1.041 6.856-1.467 7.323-4.347 1.368-8.443-2.727-12.659-10.56-14.926-5.53-1.601-10.687.167-15.785 2.267-15.817 6.514-25.518 18.002-29.705 34.67-2.2 8.757-.176 17.199-.059 25.908l.697-.784 1.18 6.05c.578-1.512.792-3.019.994-4.526.883-6.574 1.528-13.127 4.355-19.346 3.592-7.898 8.686-11.438 16.922-10.212 1.12.167 2.146 2.322 2.815 3.745.606 1.29.54 2.539-1.686 2.391-.531-.035-1.178 1.669-1.772 2.574.84.435 1.655 1.184 2.522 1.249 3.776.285 7.139-4.357 5.954-8.056-1.614-5.039-5.686-7.683-11.87-7.794-.718-.013-1.429-.391-2.144-.6.535-.615.983-1.356 1.632-1.806.537-.372 1.313-.399 2.063-.601v2.042c4.518-2.489 7.359.051 10.327 2.598.739.634 2.24.892 3.176.61.669-.201 1.383-1.593 1.382-2.453-.007-4.43-4.672-9.188-9.134-8.962-6.982.353-13.452 1.925-16.166 9.633-.178.506-.626.919-1.467 2.11l.703-2.775-2.459.349c1.334-2.203 2.388-3.782 3.28-5.448 2.551-4.76 5.747-8.921 10.66-11.443 5.538-2.843 11.451-4.041 17.668-4.5 3.069-.226 5.639-.921 6.619 3.083l-1.023.643zM81.848 575.194l.602-.386c.287-1.402.142-3.151.938-4.146 2.893-3.607 6.502-5.938 11.43-6.289 5.831-.414 11.469.272 16.992 1.892 4.417 1.294 8.713 3.002 13.529 4.688-4.992.595-9.249.817-13.358 1.716-1.95.426-3.754 1.977-5.371 3.322-1.354 1.126-1.957 3.062-.448 4.283.886.719 2.943.846 4.029.32 6.054-2.928 12.35-3.731 18.822-2.312 4.339.952 8.546 2.506 13.324 3.945-3.144-3.485-5.498-7.169-8.803-9.517-5.692-4.044-11.961-7.282-18.021-10.802-2.238-1.301-4.444-2.927-6.883-3.551-4.837-1.237-9.809-1.993-14.755-2.747-7.693-1.171-14.106 1.167-18.961 7.389-5.59 7.165-4.371 17.695 2.546 22.007 5.091 3.171 11.886 1.501 13.992-3.438 1.564-3.67-.758-7.357-4.435-7.075l-2.4 6.509c-4.763-3.13-5.563-4.807-4.58-9.408l1.811 3.6zm200.59 104.309l-.113 1.424c-.813-.311-1.648-.573-2.432-.944-.868-.41-1.896-1.48-2.482-1.263-.996.371-2.227 1.439-2.379 2.374s.686 2.733 1.463 2.98c2.259.721 4.828 1.516 7.058 1.104 10.491-1.935 16.203-8.907 19.019-18.894.012 2.072-.45 4.014-.746 5.981-.605 4.02-2.212 7.549-5.58 9.873-2.625 1.813-2.888 4.377-1.71 7.631.746 2.061 2.224 2.667 3.604.806 2.04-2.755 4.861-5.616 5.311-8.727 1.059-7.32.958-14.813 1.236-22.239.167-4.47-1.424-8.444-3.98-12.017-4.09-5.718-10.157-7.396-16.675-7.885 1.518 1.601 3.374 3.079 4.589 4.971 1.238 1.926 1.984 4.211 2.705 6.418 2.373 7.261-2.036 15.923-9.265 18.641-.978.368-1.698 1.421-2.537 2.157 1.028.628 2.004 1.674 3.094 1.811 4.727.594 7.544-2.295 9.991-5.827.642-.927 1.708-1.559 2.581-2.325-.435 6.35-7.432 13.274-12.752 13.95zM50.7 462.622c3.853-5.994 7.213-12.211 6.879-19.722-.022-.502-.088-1.114.15-1.498 1.697-2.73 1.76-2.716 1.763-4.564.003-2.455.063-4.92-.12-7.364-.782-10.514-5.085-19.286-13.276-26.008-4.106-3.37-10.571-3.663-14.251-.839-5.508 4.227-7.425 9.767-5.165 14.925 1.157 2.642 4.26 4.632 7.09 4.549 3.362-.099 6.6-2.103 7.385-5.035.352-1.313.296-3.715-.425-4.123-1.362-.771-3.355-.659-5.052-.516-.957.08-1.848.953-2.905 1.546-.559-4.739 1.066-6.693 5.152-6.603 4.727.104 7.718 2.787 9.893 6.696.941 1.69 2.054 3.287 2.941 5.003 1.238 2.392 2.337 4.854 3.497 7.287l-.679.299-8.557-11.423c-.427 1.04-.303 1.793-.014 2.478 1.534 3.636 3.649 7.126 4.547 10.908 1.507 6.341 2.819 12.835 3.124 19.316.227 4.854-1.256 9.789-1.977 14.688zm263.069-324.24c-1.441-6.334-.426-12.474 4.171-17.505 4.408-4.826 9.922-7.49 16.751-5.937.86-3.91-.288-5.713-4.13-6.098-5.192-.521-9.563 1.362-13.522 4.67-4.018 3.357-5.528 8.218-8.195 12.392-3.687 5.77-.426 18.406 4.704 22.085 5.157 3.698 10.964 4.93 17.071 5.516-.714-.589-1.477-1.132-2.318-1.324-5.172-1.174-7.674-4.672-8.897-9.579-2.188-8.779 3.649-15.819 10.549-18.618.641-.26 1.323-1.624 1.203-2.347-.519-3.152-4.441-3.95-7.393-1.396-4.163 3.603-7.627 7.682-7.548 13.681.01.719-.172 1.441-.265 2.163l-.715-.08.891-8.982-.881-.091-1.476 11.45zm-20.108 3.207c-.294-3.503.003-6.82-.93-9.746-2.528-7.926-5.359-11.456-11.389-12.015-1.045-.097-2.184.805-3.28 1.245.766 1.06 1.319 2.708 2.336 3.076 4.049 1.467 6.996 3.54 9.27 7.603 3.21 5.739 1.107 17.143-6.56 19.572-1.38.438-2.645 1.241-3.963 1.875l.272.791c3.839-.868 7.95-1.149 11.438-2.77 3.468-1.612 7.086-4.029 9.218-7.085 2.36-3.384 2.997-7.84 2.362-12.297-1.708-12.004-4.835-17.999-16.789-22.553-2.381-.907-5.547-.058-8.265.444-.654.121-1.519 2.241-1.265 3.158.209.756 1.883 1.27 2.995 1.565 1.125.299 2.377.078 3.535.294 4.313.805 6.853 4.028 8.961 7.37 2.948 4.672 4.761 9.804 4.059 15.665-1.306-.627-1.306-.627-2.005 3.808zm270.341 252.385c-6.926-.443-10.715 1.987-12.543 8.752-.226.834.739 1.99 1.152 2.997.855-.433 1.804-.749 2.543-1.329.88-.691 1.436-1.946 2.392-2.363 2.359-1.032 4.868-1.72 7.314-2.555 3.111-1.063 6.152-2.551 9.351-3.059 2.225-.353 4.661.633 7.004 1.021l-.18.877-9.517-.777c2.194.717 4.438.842 6.591 1.353 2.281.541 4.429 1.798 6.719 2.098 2.322.305 5.259.613 7.002-.511 2.377-1.535 4.113-4.286 5.629-6.813.516-.861-.016-3.097-.846-3.889-3.262-3.112-7.107-5.612-11.852-4.043-5.885 1.946-11.705 3.63-18.006 1.995l-.022 1.163 11.132.723-.082.834c-3.657-.26-7.369-.219-10.951-.879-2.638-.486-5.045-2.457-7.665-2.735-3.192-.339-3.959-1.75-3.571-5.127-1.33.263-3.43.468-3.435.711-.041 2.226-.398 4.916.702 6.553.996 1.483 3.697 1.822 5.648 2.66l5.491 2.343zm-238.189 245.13c-.229 0-1.38-.231-2.399.035-11.712 3.064-16.682 11.067-15.717 22.369.657 7.694 4.167 14.196 9.782 19.6 3.784 3.641 8.251 4.799 13.258 4.263 2.472-.265 4.263-1.593 4.272-4.353.003-.832-.236-2.031-.797-2.393-.508-.327-1.713.068-2.422.474-4.019 2.302-7.218 1.908-10.048-1.533-2.009-2.442-3.921-4.972-5.759-7.547a19.48 19.48 0 0 1-3.555-13.937c.274-2.276 1.754-4.407 2.687-6.604.221 2.598-.233 4.854-.705 7.107-1.456 6.977 5.762 16.92 12.89 17.73.505.057 1.028.042 1.534-.019 2.265-.271 3.524-1.32 3.017-3.874-5.482-1.253-9.184-4.733-11.82-9.276-1.813-3.124-3.524-6.531-1.295-10.272l7.077-11.77zm-22.125-532.021l-.761.439c-1.459-1.037-2.882-2.129-4.386-3.097-1.993-1.282-4.142-.42-4.075 1.903.05 1.768.898 3.649 1.825 5.225 1.595 2.713 3.679 5.14 5.268 7.856 1.142 1.951 2.254 4.112 2.575 6.298.367 2.501-.156 5.133-.292 7.708l.984.015.819-14.877.673.063.899 5.832c2.5-5.733 3.858-11.514 9.236-15.194 2.161-1.479 1.494-4.01-1.014-4.929-2.373-.869-4.539-.464-5.965 1.701-.732 1.112-.977 2.547-1.441 3.835l-1.268-1.46v8.949c-2.234-3.931-1.81-8.653-.039-12.869.999-2.378 1.088-5.269.991-7.906-.034-.959-1.697-2.393-2.805-2.598-.774-.143-2.588 1.359-2.68 2.256-.271 2.637-.015 5.349.248 8.01.096.976.788 1.894 1.208 2.84zm188.031 454.876c1.931-1.992 7.273-3.131 11.415-6.811 4.648-4.13 10.485-6.888 14.214-12.239 1.548-2.221 2.074-5.2.597-7.406-1.143-1.709-5.21-2.63-6.647-1.506-1.309 1.024-.877 4.184.543 5.968.438.551.538 1.947.146 2.48-1.813 2.466-3.615 5.025-5.859 7.07-5.335 4.862-10.917 9.451-14.409 12.444zM305.945 675.154l.445-.14c-.04.808-.141 1.617-.108 2.421.146 3.709-.404 7.107-2.23 10.552-1.411 2.66-1.73 6.024-1.957 9.117-.078 1.052 1.449 2.905 2.533 3.162 1.044.246 3.21-.824 3.567-1.799.84-2.287 1.489-4.95 1.144-7.303-.789-5.387-2.222-10.679-3.394-16.01zm-198.42-121.585l.136-.202c-2.324-2.137-4.787-4.142-6.935-6.443-2.516-2.697-2.408-4.759-.319-7.821 1.22-1.788 1.549-3.801-.749-4.915-1.409-.683-3.508-1.352-4.693-.777-2.083 1.009-2.996 3.286-2.478 5.771.621 2.975 1.821 5.684 4.412 7.452 3.494 2.384 7.08 4.63 10.626 6.935zm199.524 112.424l-.511.16c.367 3.117.471 6.294 1.16 9.337 1.162 5.135 2.572 10.223 4.132 15.253.666 2.149 2.685 2.516 4.087 1.11 1.991-1.994 1.708-6.147-.098-8.247-2.657-3.09-6.489-5.353-7.299-9.831l-1.471-7.782zm45.845 1.012c5.506.797 13.454-4.524 14.609-10.198.197-.969-.477-2.897-1.139-3.099-1.496-.454-2.89-.15-3.712 2-.819 2.144-2.422 4.317-4.278 5.642-1.925 1.374-4.564 1.744-6.73 2.497l1.25 3.158zM68.963 240.653l.252.954c1.129-.464 2.33-.808 3.365-1.428.93-.558 1.6-1.543 2.52-2.125 6.711-4.249 13.624-7.753 22.087-4.986-2.517-6.507-21.575-2.258-28.224 7.585zM50.137 360.185c.176-1.311.532-2.627.497-3.933-.121-4.481-.838-8.845-5.214-11.247-1.055-.579-3.479-.534-4 .169-1.1 1.481-.578 3.409 1.348 4.312 4.593 2.154 7.019 5.684 7.369 10.699zM352.07 127.297l-.296.955c4.947 1.477 9.227 3.766 11.363 8.782.186.437 1.065.988 1.38.865.521-.205 1.041-.853 1.218-1.42 1.004-3.231-.987-7.067-4.694-8.086-2.874-.791-5.973-.762-8.971-1.096zm-91.278.935c-5.51-2.512-12.773-.579-15.171 3.657-.681 1.205-.39 2.959-.545 4.461l1.254.602c3.301-5.007 7.296-8.893 14.462-8.72zm300.396 226.187c3.253-2.312 5.907-3.979 8.245-6.009.609-.529.73-2.594.203-3.25-1.029-1.278-4.998-.392-5.639 1.16-.993 2.406-1.725 4.92-2.809 8.099zm-65.137-136.414l-.033.685 9.873 1.873.133-.792-9.973-1.766zm-363.987-23.242l-.078.896 8.901-.424-.007-.471-8.816-.001z"/><path d="M552.096 530.401l-1.161.937-.688-.396c8.061-10.495 14.427-21.55 12.35-35.462l2.231 7.453c-.218.18-1.111.561-1.145 1.005-.221 3.01-.523 6.054-.292 9.047.286 3.701-1.182 6.418-3.626 8.947-2.617 2.708-5.063 5.582-7.585 8.385-.001 0-.084.084-.084.084zm-68.045 40.151l-.844-1.278 2.953-1.342c8.948-4.067 18.196-6.815 28.22-6.271l-1.414.603.063.371c2.405-.237 4.825-.371 7.211-.733 4.206-.641 9.549 3.997 9.42 8.473-.058 1.983-.6 3.953-.922 5.931l-.973-.222c.126-.44.239-.885.38-1.32 1.864-5.766-.392-9.652-6.229-10.864-12.961-2.689-25.13-.354-36.722 5.709-.428.221-.764.623-1.143.943zm-10.853-410.977c.274-4.592 5.967-7.814 10.428-5.538-5.166-1.843-7.137 1.963-9.529 5.024l-.899.514zm-252.62 501.559l7.305 4.861c0 .002-.018-.026-.021-.026l1.097 1.311c-3.647-1.237-6.854-3.03-9.137-6.133-.083-.113.202-.497.315-.756l.441.743zM32.781 319.349l1.803 7.375c-3.373-2.636-3.725-4.501-1.747-7.296-.008-.014-.056-.079-.056-.079zm264.842-158.613c20.263.069 39.959 1.136 59.427 4.993 31.941 6.328 61.499 18.599 88.5 36.661 28.802 19.266 51.193 44.443 67.337 75.218 11.69 22.285 20.352 45.63 24.791 70.36 1.944 10.835 2.414 21.969 3.04 32.996.463 8.156.34 16.367.046 24.538-.487 13.535-2.299 26.947-5.824 40.021-3.086 11.447-6.589 22.799-10.358 34.041-4.221 12.589-10.607 24.209-17.779 35.312-16.605 25.704-35.828 49.153-60.503 67.65-12.129 9.093-24.81 17.242-38.373 24.205-16.146 8.288-32.771 15.06-50.464 18.78-13.098 2.755-26.399 4.405-39.878 4.832-16.537.522-32.977.153-49.294-2.548-20.376-3.373-40.178-8.623-58.782-17.983-20.221-10.174-39.173-22.113-56.267-37.063-24.269-21.222-43.922-45.996-58.62-74.659-7.877-15.361-13.619-31.563-17.719-48.323a257.74 257.74 0 0 1-7.076-48.541c-1.144-22.979 1.484-45.493 6.957-67.843 4.417-18.038 11.399-34.949 19.429-51.583 7.359-15.245 16.826-29.015 27.478-42.076 11.304-13.861 25.135-24.876 39.371-35.469 19.964-14.856 42.487-24.602 65.853-32.461 16.637-5.595 33.802-9.015 51.399-9.948l17.309-1.11zm-40.243 81.778l-.06.027c.957-.913 1.887-1.858 2.877-2.733 3.135-2.769 6.727-4.434 10.886-4.679l.669.815-1.897.768 9.285.757c-3.033.474-6.023.296-9.016.199-3.366-.109-7.772 2.649-8.654 5.795-.975 3.475-1.625 7.096 1.508 10.034 1.664 1.56 4.376 1.642 5.806.203 1.704-1.716 1.698-3.983-.016-5.873-2.458-2.71-2.275-4.199.645-6.482 4.249-3.322 8.95-2.115 13.521-1.247 1.93.367 4.013 1.215 5.468 2.485 2.183 1.904 3.731 4.519 5.82 6.553 1.666 1.623 3.737 2.831 5.628 4.222-4.372-10.462-12.138-16.816-22.108-21.222-6.781-2.997-21.339.965-25.106 6.216-2.338 3.258-5.651 5.892-8.8 8.471-3.331 2.728-7.743 1.761-8.603-1.407l3.304-2.599c-.944-.603-1.462-1.178-2.057-1.272-2.379-.376-4.304.331-5.088 2.824-1.191 3.786-.258 6.693 2.759 7.766 2.586.919 5.378 1.244 7.999 2.083 3.228 1.035 6.021.15 8.798-1.382 3.936-2.171 5.797-5.843 7.258-9.826l-.826-.496zM138.15 446.537l2.163 1.49a5.77 5.77 0 0 0-.517-3.546c-1.975-4.126-4.464-8.064-5.938-12.356-2.325-6.768-4.515-13.762 2.637-19.487 1.925-1.54 1.386-3.392-.811-4.614-2.552-1.421-5.476-.724-7.66 1.732-2.369 2.664-2.387 5.862-2.581 9.188-.412 7.067 4.135 12.36 6.157 18.541l2.194 6.6c-.381-.235-.621-.301-.718-.455l-13.375-21.615c-1.112-1.886-1.148-4.377-2.05-6.427-.995-2.259-2.421-4.328-3.655-6.482l-3.573-6.265.957-.494 3.306 6.188c.477-.869.516-1.552.365-2.188-.998-4.217-2.395-8.374-2.968-12.644-.686-5.11-.816-10.311-.924-15.478-.072-3.472.606-6.968.43-10.426-.294-5.79-.72-11.604-1.639-17.319-.589-3.664-4.971-6.963-8.4-6.992-1.041-.01-2.089.745-3.134 1.15.441 1.101.614 2.454 1.37 3.262 3.341 3.577 5.934 7.193 6.133 12.545.343 9.183 1.386 18.344 2.295 27.498.176 1.775 1.056 3.488 1.663 5.211.314.891.742 1.743 1.118 2.611l-1.283.391c-3.017-4.457-2.964-9.778-3.511-15.039v2.684c-.534-.314-.668-.679-.841-1.023-2.368-4.722-4.49-9.596-7.249-14.078-.96-1.56-3.404-2.514-5.358-3.015-.906-.232-2.449 1.118-3.295 2.102-.25.292.747 1.9 1.42 2.695 1.761 2.083 4.084 3.808 5.403 6.12 2.061 3.612 3.615 7.539 5.14 11.427 3.178 8.105 6.025 16.351 10.788 23.733.334.518.583 1.09.872 1.638l-1.076.968c-.481-.845-.931-1.71-1.448-2.533-2.174-3.458-4.189-7.035-6.602-10.319-2.989-4.069-6.477-7.697-11.692-8.911-2.291-.533-4.207.248-4.878 2.528-.743 2.522.822 3.737 3.163 4.258 1.174.262 2.438.545 3.412 1.194 3.206 2.135 6.551 4.166 9.37 6.752 3.413 3.134 6.34 6.796 9.485 10.224 2.021 2.203 4.135 4.326 6.052 6.615 1.168 1.396 2.043 3.037 3.049 4.568-3.484-2.144-6.481-4.424-9.346-6.86-4.018-3.417-8.698-5.306-13.864-5.436-1.92-.048-4.306.993-5.675 2.35-.985.975-.763 3.299-.725 5.013.005.212 2.194.5 3.377.532 2.036.055 4.312-.676 6.073 0 6.755 2.595 13.639 5.088 19.021 10.267 2.647 2.548 5.168 5.234 7.909 7.677 2.359 2.102 4.963 3.926 7.431 5.907l8.492 6.914.55-.643c-1.359-1.253-2.824-2.41-4.047-3.784-1.125-1.263-1.986-2.754-2.962-4.144zm358.506-76.75c.526-7.173-1.272-13.784-5.039-19.84-2.806-4.511-6.665-7.885-11.316-10.549-4.885-2.799-9.592-6.049-11.892-11.518-.878-2.09-1.088-4.462-1.603-6.705-3.569.758-5.056 2.443-4.859 5.804.268 4.567 1.771 8.717 5.441 11.597 3.607 2.83 7.476 5.334 11.295 7.884 8.626 5.757 15.779 12.619 17.967 23.323 3.29 14.214 2.592 28.063-3.128 41.452l-1.014-.13 2.002-10.3 1.106 1.463c1.888-6.159 2.056-12.198-.483-18.074-1.972-4.566-3.464-9.438-7.922-12.521-3.567-2.467-7.348-2.759-11.155-.312-3.304 2.124-3.146 5.396-2.848 8.616 15.827-.362 17.107 11.222 18.96 22.927 1.227-8.305 1.187-15.844-4.235-22.545.764-.049 1.502-.038 1.725.305 2.974 4.59 4.348 9.673 4.16 15.114-.084 2.437-.533 4.867-.902 7.287-.34 2.229-.756 4.447-1.207 6.656-1.052 5.147-1.726 10.426-3.374 15.378-1.026 3.086-3.488 5.719-5.425 8.471-1.33 1.892-2.863 3.639-4.307 5.451.567-2.282 1.682-4.099 2.812-5.905 3.011-4.811 4.631-10.028 4.281-15.723-.28-4.549-4.159-9.477-7.725-10.125-2.333-.424-4.869 1.102-5.451 3.419-.561 2.23.331 3.518 2.508 4.529 1.226.569 2.633 2.319 2.672 3.578.114 3.637.324 7.558-.852 10.893-3.014 8.546-6.618 16.896-10.278 25.196-1.358 3.081-3.53 5.803-5.802 9.44 1.471-1.034 2.235-1.644 3.065-2.145 5.412-3.269 10.625-6.97 16.325-9.623 4.622-2.149 9.813-2.976 14.794-.166 3.886 2.191 4.782 5.218 2.829 9.205-.42.859-.355 2.189.004 3.098.178.45 1.561.681 2.351.591 6.197-.703 9.542-6.434 7.355-12.47-3.546-9.786-13.036-12.639-22.63-6.724l2.79.339c-8.288.521-13.382 7.178-20.345 10.227 1.478-1.994 3.026-3.894 4.83-5.509l17.047-15.021c5.814-5.385 12.23-9.611 19.967-11.561 1.412-.355 2.983-.194 4.471-.101 1.731.109 3.451.408 5.176.624-.208-1.948.013-4.097-.77-5.778-.546-1.173-2.374-2.129-3.794-2.442-4.2-.93-8.112.06-11.637 2.589l-11.169 7.869c.066-1.089.36-1.969.905-2.647 2.963-3.701 6.1-7.268 8.968-11.04 5.122-6.738 10.55-12.982 19.483-14.614.376-.068.814-.329 1.032-.637.609-.862 1.788-2.097 1.541-2.641-.692-1.525-2.185-4.039-3.009-3.91-3.063.479-6.652 1.127-8.8 3.08-3.166 2.879-5.292 6.912-7.815 10.486l-6.73 9.741-.51-.35 1.277-2.582h-1.91c.525-.697.737-1.299 1.117-1.434 3.634-1.295 5.165-4.619 6.49-7.615 3.471-7.844 6.189-16.021 9.664-23.862 1.665-3.759 2.9-8.142 7.668-9.754 1.611-.545 1.249-3.031-.451-3.871-2.413-1.192-4.847-.868-6.414 1.181-2.703 3.532-6.011 7.054-7.28 11.135-2.51 8.064-3.767 16.514-5.623 24.787-.366 1.631-1.095 3.181-1.655 4.768-.05-2.945.853-5.575 1.158-8.273l4.292-40.287c.547-5.39 2.297-10.055 6.944-13.263.668-.461 1.518-.943 1.787-1.614.238-.598.048-1.869-.398-2.157-2.853-1.848-5.345-1.421-7.739 1.087-3.423 3.584-5.531 7.733-6.188 12.734-.618 4.709-1.699 9.356-2.575 14.014zM144.892 471.718c.427 6.009-.821 7.813-6.519 8.346-3.592.336-7.242.063-10.865.063 1.509.72 3.062.927 4.619 1.078 1.522.147 3.049.239 4.574.356l-.035.641-3.599.791c3.705 1.863 6.94 1.533 10.103.746 3.783-.941 6.915-6.514 5.983-10.258-.572-2.299-2.527-3.041-4.339-1.647-.419-.894-.71-2.469-1.277-2.574-5.39-1.01-10.841-2.344-16.266-.286-1.521.577-2.859 1.623-4.304 2.412-.925.506-2.136.709-2.799 1.433-3.761 4.107-2.471 9.895 2.774 12.822l11.503 6.343-.295.682-14.6-6.612c1.308 2.487 2.014 4.739 3.464 6.3 1.136 1.223 3.214 1.55 4.838 2.345l10.185 5.079-.288.628-16.418-6.833-.693 1.314 9.992 6.035-.212.372-6.859-2.954-.364.446 7.513 6.429-.571.683-8.937-6.959c.923 4.704 5.317 6.657 8.822 9.56l-6.828-2.769c2.283 5.7 7.889 6.133 11.136 9.655l-9.209-4.753-.329.522 7.355 5.58-.353.423-7.767-4.627-.299.443 3.11 3.383-.269.492-2.945-1.202c.66 1.907 2.017 3.805 1.724 5.398-.62 3.368 1.817 4.3 3.69 5.211 4.284 2.084 8.673 4.231 13.264 5.358 20.388 5.005 40.931 9.283 61.884 11.219l59.005 5.321c11.518.851 23.105.917 34.665 1.011 13.522.11 27.062.223 40.568-.314 16.858-.671 33.702-1.842 50.529-3.109 10.396-.783 20.772-1.972 31.116-3.294 15.35-1.963 30.426-5.294 45.312-9.541 6.645-1.896 13.196-3.832 18.33-8.799.185-.178.283-.445.447-.713l-2.258-.219 1.802-2.871-8.13 2.966-.207-.65 10.043-4.756-.207-.698-1.858.119 3.523-5.795-4.709 1.738.834.504 4.404-5.234-.734-.821-4.264 2.858 4.665-6.749c-1.665.254-2.783 1.108-4.026 1.697-1.03.488-2.208.665-3.789 1.111l9.248-6.816-2.159-.388 3.299-4.171-11.419 7.086c13.352-11.986 13.352-11.986 13.603-17.057l-9.818 5.821c.79-1.362 2.063-2.027 3.042-2.991 2.511-2.476 5.084-4.93 7.263-7.685 1.824-2.307.943-4.675-1.1-6.554-2.574-2.367-5.359-4.08-8.932-5.009-5.223-1.358-10.192-.635-15.162.476-2.346.523-4.441 1.979-5.172 4.717-.805 3.017-.473 5.79 1.828 7.937 2.482 2.316 5.57 2.38 8.665 1.438 2.809-.854 5.571-1.861 7.297-2.444-3.036-.667-7.292-1.519-11.491-2.591-.949-.242-1.825-1.154-2.472-1.968-.202-.253.304-1.361.757-1.796 4.796-4.594 16.294-4.942 21.589-.762 3.609 2.85 2.585 6.079-.824 7.216-10.752 3.588-21.338 7.758-32.243 10.78-22.568 6.253-45.871 8.423-69.039 11.1-12.886 1.489-25.867 2.627-38.826 2.895-23.654.49-47.336.701-70.982.101-17.777-.451-35.585-1.751-53.254-3.772-19.085-2.184-38.094-5.259-57.001-8.691-11.851-2.151-23.526-5.423-35.121-8.746-3.43-.983-6.644-3.496-9.354-5.969-2.191-1.997-.957-5.498 1.928-6.318 2.737-.777 5.598-1.154 8.424-1.57 2.382-.352 4.631.485 6.942.928 1.95.369 4.12 2.067 6.129-.073zm155.939 31.656l6.617.012c1.925.048 2.833-.615 2.611-2.731-.234-2.235-.219-4.503-.22-6.756l-.005-93.513c0-1.084.095-2.167.147-3.27h116.056c-.55 6.55-.826 12.781-1.635 18.942-2.761 21.057-11.244 39.658-25.089 55.68-6.041 6.992-12.608 13.566-19.32 19.927-3.731 3.537-8.252 6.244-12.326 9.259 2.595 0 5.396.309 8.096-.078 3.386-.484 7.232-.714 9.932-2.493 9.839-6.483 17.758-15.148 24.671-24.597 15.65-21.39 23.584-45.575 24.225-71.966.587-24.177.503-48.371.6-72.557l-.198-39.975-.007-26.509H175.812v3.802l.077 85.823c.133 19.872-.353 39.829 1.309 59.59 2.89 34.381 18.336 62.646 45.316 84.4 4.92 3.968 13.154 5.607 19.978 3.812-37.704-23.983-55.607-58.749-57.739-102.899h116.08l-.002 106.097zm29.517-39.973c4.899-.975 9.652-2.164 14.479-2.824 7.045-.964 13.875-.454 19.85 5.019.354-1.049.909-1.926.909-2.805l-.173-48.23c-.018-1.449-1.092-3.637-2.283-4.202-9.818-4.664-19.87-5.006-29.97-.763-2.249.944-3.067 2.67-3.055 5.12l.094 47.319c-.001.494.106.987.149 1.366zm38.075 1.93c1.479-.875 2.581-1.722 3.821-2.229 7.971-3.26 16.035-3.899 24.215-.704.84.328 1.79.387 2.694.535 2.258.368 3.11-.595 3.098-2.879l-.193-45.816c-.016-1.401-.94-3.397-2.07-4.084-8.137-4.941-22.726-5.17-30.175.313-.736.542-1.563 1.568-1.578 2.384l-.071 21.511c11.196-3.383 21.989-3.615 32.704.071-10.886-.723-21.809-2.512-32.444 1.109l-.001 29.789zm-145.83.538c-.13 8.845 9.064 14.427 16.125 10.592 2.062-1.12 4.116-2.31 5.984-3.717 2.438-1.836 4.432-1.927 6.741.334 1.495 1.464 3.434 2.597 5.357 3.475 4.819 2.198 9.221 1.117 12.74-2.85 3.581-4.037 4.067-8.243.996-12.872-1.315-1.981-3.361-3.486-5.124-5.157-.949-.9-2.194-1.546-2.971-2.563-2.849-3.724-5.631-7.506-8.301-11.361-3.236-4.671-8.595-5.233-12.57-1.117-.984 1.019-2 2.166-2.513 3.45-1.979 4.945-5.898 7.963-10.123 10.75-4.25 2.804-6.386 6.766-6.341 11.036zm90.912-211.408l-.483-.307c.146-.448.253-.913.44-1.343 3.006-6.91 8.73-10.38 15.527-12.857 5.21-1.898 9.422-.735 13.228 2.823 2.52 2.354 2.213 3.786-.552 5.741-.673.475-1.271 2.125-.951 2.752 1.413 2.785 7.359 2.737 9.283.227 2.22-2.896.679-8.839-2.217-11.428-1.769-1.581-3.945-2.703-6.393-4.334 7.065.917 10.971 5.738 15.546 9.513l-.443.733-4.01-2.54c.137.512.2.882.332 1.226 2.276 5.937 7.194 8.172 12.939 9.417 5.409 1.171 9.866-.577 13.792-4.108 1.679-1.51 2.491-3.717 1.093-5.499-1.214-1.546-3.293-2.505-5.153-3.374-.371-.174-1.546 1.173-2.214 1.938-.228.262-.036.89-.036 1.507l2.767-.845c.231 3.193-1.959 3.517-3.909 3.909-4.608.925-7.617-1.917-10.609-4.705-2.917-2.717-5.706-5.585-8.75-8.151-3.509-2.958-7.444-4.938-12.307-4.57-9.758.739-17.698 5.672-23.931 12.396-3.923 4.232-5.505 10.635-8.137 16.065l1.12 1.09c1.664-.842 3.659-1.344 4.933-2.586 4.957-4.833 10.594-7.047 17.503-5.554.63.136 1.33-.049 2.042-.088-1.096-3.866-6.311-7.621-9.05-6.145-3.356 1.809-6.315 4.373-9.374 6.706-.81.618-1.357 1.584-2.026 2.391zm75.384-32.638c-.438-2.685-1.236-5.35-1.234-8.013.005-6.648.483-13.296.493-19.944.002-1.191-1.065-2.78-2.111-3.486-1.65-1.114-3.436-.78-4.864.96l-11.099 13.134c-1.746 1.957-3.775 3.718-5.894 5.271-2.43 1.782-3.907.481-4.736-2.001-.772-2.315-1.283-4.777-2.425-6.897-2.239-4.157-2.385-4.074 1.612-6.302 3.121-1.739 3.64-4.732 3.706-7.889.062-2.838-1.839-4.4-4.179-5.057-5.154-1.447-10.4-2.563-15.458-3.778.229 1.988.663 3.496.523 4.948-.509 5.286-1.132 10.563-1.867 15.823-.445 3.19-.885 6.477-4.751 8.635l11.874 1.438c-4.558-4.242-.787-8.327-.606-12.547 1.155.667 2.199 1.44 2.638 2.47 1.239 2.911 2.123 5.975 3.376 8.879.465 1.078 1.388 2.309 2.409 2.736 4.496 1.878 9.102 3.495 13.678 5.179.236.087.563-.073 1.306-.19-2.573-3.36-.114-5.835 1.258-8.464.376-.718 1.283-1.54 2.025-1.625 4.49-.512 8.642 4.737 7.15 8.968-.45 1.276-1.181 2.454-1.812 3.733l8.988 4.019zm-26.625 251.046c-.902-.351-1.793-.738-2.711-1.045-2.12-.706-4.22-1.805-6.39-1.978-7.22-.577-14.465-.902-21.706-1.151-3.861-.133-3.89.028-3.894-4.06l-.012-44.891v-4.833c-3.447-.202-3.44 1.692-3.438 3.78l-.048 45.188-.001 10.712c2.354-.518 4.491-1.303 6.662-1.405 6.437-.306 12.887-.291 19.329-.5 5.166-.168 10.104.136 14.533 3.432.938.697 3.044.062 4.541-.273 3.546-.794 7.007-2.182 10.584-2.575 4.042-.445 8.183.088 12.264-.127 1.431-.075 2.813-1.105 4.216-1.699l-.387-1.189c-7.135-1.49-14.277-.779-21.488.224 2.872-1.086 5.79-1.825 8.751-2.083 3.042-.265 6.124-.059 9.189-.059-7.318-4.261-14.586-3.27-20.146.798-4.419 3.231-7.937 3.087-11.928-.273-1.37-1.153-3.213-1.758-4.865-2.56-.726-.353-1.542-.867-2.271-.802-4.388.397-8.763.941-13.142 1.437l.01.905c7.978-.683 15.806-.655 22.348 5.027zm-78.247 79.576l16.882 20.916c2.787 3.372 4.635 3.274 7.65.049l9.621-10.297a168 168 0 0 0 7.12-8.421c.477-.604.345-1.688.494-2.552-.746-.115-1.499-.359-2.238-.323-4.639.231-8.377 2.336-11.461 5.702-.929 1.015-1.766 2.113-2.645 3.174l-.91-.473c0-2.17.796-4.918-.236-6.34-.932-1.284-3.862-1.118-6.791-1.795l.792 9.185c-5.751-3.503-9.147-11.406-18.278-8.825zM97.916 313.159l13.657 4.12c-1.718 3.395-3.08 6.235-4.607 8.983-.319.574-1.384 1.276-1.869 1.131-3.754-1.126-8.257-.995-10.254-6.108-1.348 4.712-3.54 8.686-3.588 13.003 2.162-.684 4.134-2.059 5.619-1.652 7.807 2.138 16.376 2.795 22.335 9.919-.112-3.991 3.513-7.733.667-12.609-1.975 3.003-4 2.444-6.122 1.243-.527-.299-1.136-.493-1.732-.617-1.831-.378-2.281-1.467-1.715-3.133l3.334-9.8 11.278 5.419 4.019-10.164c-5.87 3.146-10.319.583-14.642-1.355-4.312-1.934-9.531-2.515-12.313-7.825l-4.067 9.445zm179.549-135.558c2.737 1.859 3.205 4.417 2.989 7.352-.089 1.213.224 2.45.229 3.677l.012 18.367 7.807-.789-1.297-10.814c-.057-.631.589-1.862 1.016-1.913 3.489-.408 7.003-.602 10.81-.883-.754 4.747 3.133 9.653-3.274 12.685H306.1c-1.221-9.852-2.192-19.319-1.153-28.612h-8.226l2.417 11.972-12.448 1.038c-.426-4.438-2.843-8.821 2.619-11.894l-.633-.914-11.211.728zm27.464 82.37l.857.177c.493-.958 1.148-1.868 1.455-2.882 3.216-10.645 6.225-21.377 17.065-27.301.65-.355.923-1.98.808-2.949-.072-.609-1.121-1.401-1.861-1.582-4.252-1.04-8.441.411-10.162 4.322-2.414 5.489-4.131 11.285-6.138 16.954-.303.854-.559 1.725-1.064 3.3-.62-1.176-.879-1.575-1.052-2.01l-7.256-18.213c-1.376-3.217-4.342-4.557-7.694-4.766-2.018-.126-3.129 1.291-2.806 3.14.226 1.284 1.142 2.565 2.044 3.586 2.159 2.44 5.064 4.402 6.626 7.149 2.532 4.455 4.242 9.379 6.277 14.114l2.901 6.961zm134.584-5.85c2.055 3.141 9.438 9.896 13.216 11.542 1.535.669 3.335 1.123 4.989 1.055 6.457-.263 11.085-3.81 13.729-9.375 2.715-5.713 1.232-11.294-2.869-15.916-3.021-3.404-6.507-6.395-10.149-9.92.399 3.329 1.157 6.094-1.556 8.416-3.805 3.256-7.229 6.957-11.02 10.231-1.81 1.565-4.089 2.587-6.34 3.967zm23.702 24.396c.072 7.462 7.332 15.053 14.542 14.543 9.843-.695 14.946-4.518 15.236-14.362.234-7.964-7.414-16.279-13.246-15.944-9.471.543-16.617 6.946-16.532 15.763zM441.694 574.82l.369-.869c-4.861-8.156-9.634-16.352-11.816-25.983l-5.712 2.294 9.383 15.57-.746.668c-.931-.315-1.879-.586-2.789-.954l-11.008-4.533c-4.809-2.137-9.415-1.284-14.246.463 8.384 5.964 11.588 14.767 15.074 24.04l6.429-4.329c-1.633-.904-3.413-1.326-4.233-2.448-2.533-3.466-4.723-7.184-6.992-10.838-.537-.864-.859-1.862-1.635-3.584l27.922 10.503zm-31.551 7.361c.146-8.543-5.638-14.579-14.175-14.792-7.565-.188-14.769 7.074-14.746 15.1.022 7.607 5.461 14.605 14.479 14.651 8.286.043 14.289-6.075 14.442-14.959zM109.221 292.124c.161 12.096 6.71 15.5 15.753 15.894 7.827.34 13.445-7.205 12.845-15.557-.614-8.553-7.831-14.529-16.884-13.981-7.301.441-12.182 6.126-11.714 13.644zm156.975 300.448c.253-9.097-6.711-13.458-14.068-13.849-7.933-.42-15.026 7.338-14.808 15.33.196 7.189 7.202 13.421 14.952 13.301 8.092-.125 14.071-6.472 13.924-14.782zm-38.025-153.599c.313-5.026-2.178-8.609-5.854-11.496-2.726-2.142-5.348-1.548-7.905.828-4.126 3.831-3.688 8.524-3.122 13.346.469 3.987 2.685 6.948 6.131 8.567 1.531.719 4.069.583 5.594-.221 4.331-2.282 4.58-6.825 5.156-11.024zm105.808-238.794c-.585.148-.89.17-1.137.301-.359.19-.753.396-.998.703-2.894 3.616-6.678 1.774-9.977 1.185-.64-.114-.683-3.887-.882-5.983-.075-.792.165-1.621.3-2.427.44-2.609 1.889-3.542 4.306-2.465 1.881.837 3.592 2.057 5.641 3.261v-9.908c-.597-.075-.705.338-.928.678-1.837 2.809-4.366 2.674-7.043 1.538-2.703-1.147-1.363-3.476-1.428-5.37-.02-.602.046-1.285.32-1.797.284-.529.982-1.345 1.308-1.265 2.669.663 5.855-.272 7.89 2.501.36.493 1.376 1.07 1.715.893.594-.311 1.098-1.121 1.285-1.817.548-2.03-.391-3.039-2.455-3.201l-17.077-1.417c.441 2.534 1.133 4.813 1.173 7.104.066 3.869-.055 7.771-.515 11.61-.454 3.797.421 8.228-4.783 10.811 1.538.266 2.28.46 3.032.514 5.203.368 10.422.578 15.607 1.111 2.412.249 3.693-.4 4.006-2.829.152-1.189.402-2.367.64-3.731zM235.547 406.6c-1.984 1.195-3.867 1.946-5.248 3.233-4.508 4.202-4.203 12.686-.489 18.402 1.583 2.438 3.446 4.726 6.774 4.384 3.093-.317 4.909-2.49 5.886-5.175 2.259-6.209 1.902-12.246-2.269-17.602-1.01-1.297-2.801-1.988-4.654-3.242zm267.518-93.612c2.273-.286 4.079-.594 5.898-.719 1.756-.121 2.289-.812 1.899-2.58-1.071-4.864-2.791-9.344-6.209-13.128-3.732-4.132-8.365-5.488-13.595-4.443-5.585 1.117-9.229 4.694-10.673 10.231-1.729 6.638.979 12.278 4.678 17.428.854 1.19 3.133 1.896 4.747 1.881 2.767-.025 5.525-.793 8.583-1.298l-2.55-8.645c-1.627 1.014-2.659 1.982-3.873 2.341-2.041.603-4.567 1.697-6.221.999-2.688-1.132-2.824-4.318-2.525-7.013.163-1.464.768-3.003 1.573-4.25 3.43-5.317 8.69-6.598 14.587-6.215 5.326.346 8.742 4.665 7.291 9.643-.56 1.926-2.175 3.545-3.61 5.768zm-377.51 131.407l-.028-.635c-4.132 0-8.354-.542-12.378.12-7.083 1.164-11.28 8.795-9.759 16.67.799 4.139 3.778 6.028 7.86 4.801.856-.258 2.027-1.134 2.12-1.846.118-.909-.454-2.469-1.18-2.825-2.681-1.314-2.045-3.171-.813-4.744 1.149-1.468 2.697-2.869 4.374-3.637 7.974-3.649 15.906-.851 22.734 3.839 4.044 2.777 7.671 6.163 11.485 9.274-4.989-8.506-12.577-13.882-21.199-17.882-1.876-.871-4.196-.926-6.331-1.067-2.601-.173-5.221-.041-7.833-.041l-.038-1.185 10.986-.842zm140.206-4.118c.288 1.377.496 3.634 1.243 5.694 1.659 4.583 7.146 5.844 10.72 2.622 5.478-4.938 6.576-12.01 2.945-18.971-2.131-4.085-6.499-5.019-9.952-1.998-3.536 3.096-4.692 7.23-4.956 12.653zm-15.473-17.486c.105.869.121 2.525.531 4.078 1.352 5.11 5.966 6.651 10.057 3.449 4.813-3.769 6.872-12.901 4.142-18.37-2.359-4.725-7.876-5.366-11.504-1.448-3.092 3.337-2.791 7.487-3.226 12.291zM144.543 321.197c-1.14 2.443-1.808 5.29-3.507 7.235-4.141 4.738-8.548 9.294-13.232 13.495-8.886 7.972-12.32 18.047-12.267 29.625.506-1.005.778-2.098.865-3.206.474-6.09 3.167-11.308 7.512-15.244 3.498-3.168 8.191-4.98 11.916-7.944 3.544-2.821 6.851-6.095 9.655-9.648 2.84-3.597 2.761-11.863-.942-14.313zm246.858-98.466l9.272 4.839c-.47-1.993-.967-3.255-1.038-4.541-.369-6.679 3.067-9.093 9.025-6.429 2.858 1.278 7.811-.142 10.241-2.938 1.929-2.218 2.295-6.303-.518-8.602-4.493-3.673-9.759-6.399-14.712-9.505-.076-.048-.322.176-.681.384 2.071 2.74 1.447 5.485-.075 8.237-2.177 3.934-4.19 7.963-6.493 11.821-1.309 2.196-3.056 4.132-5.021 6.734zM119.208 415.746c-.954-10.521-2.21-20.38 4.442-29.314 3.277-4.402 6.974-6.743 12.447-5.923 2.232.334 2.719-.745 2.291-2.658-1.248-5.583-7.204-8.647-12.563-6.645-6.523 2.438-9.367 7.761-10.696 13.947-2.241 10.419.15 20.364 4.079 30.593zm221.475 195.936l-10.504-24.141c-.654-1.525-.908-3.143-3.233-2.86-2.065.251-2.538 1.479-2.976 3.25-2.223 8.995-3.83 18.22-8.999 26.052l4.225-.008c1.31-.033 2.618-.133 4.284-.223-1.876-2.363-2.236-8.195-.548-8.826 2.467-.92 5.365-1.237 7.997-.976 1.837.182 2.592 5.706 1.326 9.05l8.428-1.318zM189.386 240.129l9.044-6.418c-1.931-1.325-4.065-2.162-5.244-3.72-3.195-4.227-6.058-8.712-8.879-13.204-.678-1.08-1.316-3.402-.879-3.74 1.42-1.1 3.297-1.785 5.096-2.16 1.291-.27 2.738.21 4.718.419l-3.245-6.087-22.528 14.328 5.326 6.251c.626-1.717.368-3.198.502-4.641.105-1.131.374-2.591 1.135-3.25 1.802-1.558 3.444-.666 4.567 1.152 2.63 4.257 5.087 8.626 7.845 12.799 1.675 2.533 3.411 4.887 2.542 8.271zm-3.887 341.03l2.224-12.149c.834-4.311 1.915-8.581 2.57-12.917.653-4.32-.307-5.568-3.78-6.251-5.781 7.826-13.447 12.925-22.725 17.313l5.557 3.969c.459-3.711 1.091-4.907 3.446-5.742 3.586-1.272 5.68 1.864 9.125 3.024l-4.167 8.104 7.75 4.649zM164.05 248.957c-.435 3.769.628 5.312 3.498 5.689 4.074.535 9.826-3.091 11.236-7.042 1.34-3.754.532-7.097-2.061-9.972-2.682-2.973-5.993-2.845-9.611-1.909-2.401.621-5.009.916-7.463.691-1.708-.156-3.25-1.619-2.594-3.777.702-2.314 4.676-4.234 7.106-3.66.692.164 1.394.287 2.752.563l-3.86-5.809c-2.239 1.563-4.446 2.973-6.506 4.573-3.121 2.422-4.437 6.479-3.138 9.172 1.656 3.435 6.66 5.623 10.461 4.581 2.071-.567 4.124-1.412 6.228-1.575 1.319-.102 3.098.456 4.002 1.375 1.967 1.999 1.904 5.167.345 7.056-1.726 2.091-5.304 2.721-7.714 1.382-.775-.432-1.587-.796-2.681-1.338zm48.264 322.712l.803.482 3.817-6.528-5.191-1.788c-1.739-.599-3.446-1.326-5.225-1.768-4.512-1.12-8.717 2.037-8.471 6.63.103 1.907 1.18 3.813 2.027 5.618 1.21 2.576 2.937 4.948 3.859 7.611 1.134 3.27-1.213 5.335-4.618 4.503-4.029-.983-5.389-3.986-5.795-7.737-3.756 2.302-4.071 3.969-1.088 6.607 1.588 1.404 3.429 2.62 5.337 3.542 3.843 1.859 7.881.969 10.627-2.05 2.428-2.669 2.488-5.33.254-9.44-1.514-2.786-3.15-5.521-4.44-8.407-1.104-2.474.112-4.348 2.254-3.973 3.322.581 5.625 3.217 5.85 6.698zm212.101-364.293c.57 1.848 1.086 2.806 1.132 3.784.313 6.637.442 13.262-3.516 19.122-1.632 2.417-1.901 6.685-7.043 4.323l-.005 1.091 7.819 5.777c.106-1.324-.15-2.466.306-3.088 2.593-3.545 5.276-7.033 8.122-10.376.648-.763 2.024-1.031 3.122-1.265l11.96-2.368.191-1.099-5.068-4.695c-.907 1.662-1.337 3.638-2.247 3.893-2.472.688-5.146.746-7.743.796-.419.009-1.328-1.382-1.217-1.978.473-2.541 1.243-5.026 1.921-7.593l3.322 1.427.514-.946-11.57-6.805zm-177.302-19.92c2.6-1.297 4.662-2.507 6.862-3.364 1.738-.677 2.841-.009 3.127 2.094.621 4.552 1.57 9.06 2.171 13.615.439 3.322 1.66 6.846-1.232 10.183l11.791-2.196.226-.946c-4.473-1.377-4.721-5.025-5.214-8.617-.389-2.831-1.132-5.613-1.492-8.446-.305-2.398-.287-4.837-.463-8.271l9.802 2.146-1.346-5.248-24.776 4.129.544 4.921zm90.226 403.155l1.004.037c.345-.807.854-1.584 1.003-2.425.509-2.871 2.837-2.921 4.874-3.022 2.288-.114 2.675 1.797 2.973 3.588l2.317 13.618c.568 2.853 1.105 5.592-1.829 8.696l11.882-2.604.424-.72c-4.265-1.291-4.97-4.693-5.512-8.17l-2.031-13.357c-.313-1.984.531-3.169 2.465-2.845 2.469.412 4.863 1.268 7.209 1.911-.072-.313-.443-1.185-.446-2.06-.008-3.359-1.939-3.927-4.691-3.378-2.508.5-4.993 1.129-7.515 1.544-4.102.675-8.225 1.222-12.739 1.882l.612 7.305zm-43.085 3.306c2.024-4.715 1.823-6.424-.935-7.819-5.665-2.866-11.283-2.532-16.661.688-4.297 2.574-7.226 10.024-5.928 14.483 2.103 7.225 8.104 11.853 15.614 12.042 5.471.138 8.901-2.951 8.333-7.889-1.015.742-1.995 1.282-2.753 2.043-4.32 4.335-10.518 3.592-13.732-1.591-2.66-4.288-1.7-8.765-.452-13.024.827-2.822 2.266-5.829 6.193-5.84 3.75-.011 6.789 1.205 8.765 4.558.449.763.976 1.479 1.556 2.349zm-62.106-404.052c-1.473-.079-2.658-.299-3.807-.176-4.023.432-8.188.339-11.512 3.339-8.373 7.559-5.962 18.863 1.979 24.55 1.678 1.202 4.229 2.016 6.222 1.766 3.48-.436 6.937-1.594 10.225-2.898 3.707-1.47 4.414-5.563 1.862-8.921-1.41 9.022-9.1 10.165-14.145 6.593-4.507-3.191-6.759-8.11-6.448-13.553.189-3.31 1.997-6.416 5.798-7.474 3.357-.934 6.475-1.047 8.843 2.133.243.327.75.456 1.858 1.093l-.875-6.452zm-16.089 397.492c-3.888 5.145-3.235 8.209 1.604 10.203 1.938.799 4.11 1.09 6.205 1.439 3.587.598 6.751-1.41 7.771-4.907.982-3.367.403-6.446-1.868-9.205-1.495-1.815-3.051-3.623-4.241-5.635-.889-1.504-1.96-3.549.359-4.785 1.961-1.046 4.061-.791 5.49 1.13.871 1.17 1.427 2.574 2.28 4.163l3.771-4.501c-3.575-2.381-7.089-4.364-11.303-4.517-3.067-.111-5.155 1.608-5.755 4.527-.742 3.615-.443 7.126 2.454 9.983 1.377 1.357 2.691 2.844 3.727 4.468 1.407 2.204.521 5.72-1.386 6.43-3.285 1.226-8.14-1.992-8.412-5.527-.067-.867-.358-1.719-.696-3.266zm-63.616-321.553c-.594 5.164-2.085 9.45-6.579 10.726l-10.71-8.915c-2.447-2.093-4.798-4.299-7.564-6.79l-7.062 8.553c3.253-1.795 6.067-.991 8.624.992 3.955 3.067 7.92 6.144 11.615 9.509 1.39 1.266 2.039 3.346 3.114 5.21-.16.119.403-.145.75-.58 3.24-4.067 6.564-8.075 9.617-12.28 2.289-3.155 2.035-3.713-1.805-6.425zm65.934-42.068c-1.632-.382-2.51-.9-3.093-.671-2.875 1.13-3.95-.743-4.859-2.776l-5.837-13.509c-1.226-2.972-2.055-6.008.563-8.784.032-.034-.185-.302-.42-.672l-10.543 4.649c4.964 3.136 12.208 23.075 10.633 28.649l13.556-6.886zm86.896 21.108l4.872-14.762c.159-.483.309-.991.333-1.494.146-2.957.418-5.922.313-8.872-.065-1.828-.613-3.626-2.932-4.155-2.441-.557-4.63-.595-6.459 1.477-2.685 3.038-2.589 10.39-.106 14.436 2.378 3.873 4.005 8.092 3.979 13.37zm-168.266 2.201c2.167.722 3.818.821 4.807 1.681 4.082 3.55 7.958 7.338 11.922 11.025 2.107 1.959 4.988 3.442 4.233 7.118-.032.153.346.391.664.727 1.596-1.856 3.035-3.706 4.662-5.373 1.688-1.729 1.695-2.603-.574-4.085-7.307-4.774-14.309-9.973-17.617-17.288l-8.097 6.195zM309.66 614.269c-.753-1.357-2.003-2.568-1.997-3.772.036-8.361-1.403-16.905 2.336-24.8h-8.631c.294 1.683.731 3.088.75 4.498.053 4.194-.031 8.391-.112 12.586-.076 3.938.692 8.115-3.942 11.488h11.596zm71.675-11.45c-5.862-4.866-9.147-20.854-5.989-27.86l-10.452 2.546c5.15 9.064 8.246 18.081 6.57 28.631l9.871-3.317zm24.753-190.126l-1.056.414v41.743l.727.195c.83-2.01 2.321-4 2.378-6.03a652.28 652.28 0 0 0 .123-30.357c-.038-2.001-1.413-3.977-2.172-5.965zm64.886-52.705c7.726-4.586 13.07-2.449 23.64 9.014-.502-2.424-1.054-4.882-2.209-7.012-4.51-8.306-13.921-11.735-20.001-8.715-3.313 1.645-3.968 3.452-1.43 6.713zm-340.199-3.83c1.567 1.137 2.595 2.287 3.861 2.696 1.474.477 3.793.981 4.586.237.949-.89 1.161-3.22.77-4.678-.306-1.137-1.924-2.535-3.126-2.717-6.423-.976-11.608 1.297-15.251 6.765-.895 1.343-1.625 2.797-2.43 4.199l.586.429 11.004-6.931zm170.715-96.222c-.558-1.24-.799-2.843-1.731-3.654-3.737-3.256-7.407-6.742-11.635-9.239-4.7-2.776-9.93.193-11.097 5.75 10.451-5.412 16.952 1.878 24.463 7.143zm20.61 304.248l-2.219 2.819c2.996 4.618 9.937 6.223 14.46 3.485 2.217-1.342 3.874-5.81 2.901-7.824-1.098-2.275-3.863-3.023-7.295-1.625l3.215 4.618c-4.147 4.712-7.685 2.186-11.062-1.473zm-42.404-2.276c-.682-.383-2.022-1.712-2.773-1.437-1.607.59-3.636 1.75-4.14 3.16-.542 1.515-.093 4 .902 5.331 2.65 3.547 10.549 3.759 13.663.647 1.562-1.561 2.297-3.283-.317-5.114-.621 3.342-3.169 3.92-5.568 3.881-1.146-.02-2.639-1.409-3.252-2.563-.353-.659.743-2.09 1.485-3.905zm192.262-87.637l-.079 1.001 13.352.821.043-1.063-13.316-.759zm-337.442-.323l-.218-1.061-8.43 1.418.188 1.12 8.46-1.477zM475.49 619.903c.58-.207.973-.468 1.095-.374 8.326 6.328 19.914-2.349 20.292-12.663.266-7.267-4.226-14.488-11.005-17.179-1.881-.746-3.818-1.352-6.253-2.204 12.718.235 20.084 11.421 18.699 22.802-1.129 9.275-13.548 15.193-21.671 10.684-.385-.214-.669-.61-1.157-1.066zm-16.918-27.155l-12.665 8.652-.733-1.159 12.969-8.19.429.697zm-20.623 22.615l-8.369 8.101c-.768.755-1.421 1.627-2.126 2.446l-.852-.635 11.347-9.912zm-67.163 56.753l14.065-5.313.317.778-14.029 5.417-.353-.882zm-26.943-2.864l11.457 1.821c-3.96.192-8.014.964-11.457-1.821zm50.092-19.492l-3.696 8.143-.981-.442 3.871-8.063.806.362zM145.751 189.217c-1.852.519-3.841 1.75-5.529 1.424-4.987-.96-9.863-2.503-14.766-3.881-3.972-1.116-6.509-3.875-7.78-7.65-1.961-5.827-2.547-11.59.208-17.544 2.154-4.656 10.253-7.973 15.403-7.424-2.91 1.079-6.745 2.198-10.304 3.896-4.319 2.06-6.745 9.316-5.379 15.231 1.774 7.688 6.034 12.948 14.169 14.597 4.636.939 9.101 3.159 13.989 1.366l-.011-.015z"/><path d="M145.764 189.232c3.466-1.127 7.038-2.004 10.379-3.425 11.046-4.698 20.26-12.173 29.351-19.805.115-.097.381-.012 1.114-.012-1.124 1.569-1.808 3.253-3.057 4.152-10.686 7.69-20.742 16.552-34.206 19.291-1.132.23-2.382-.122-3.585-.21zm59.583-47.703l5.173-5.269.675.639-4.935 5.55-.913-.92zm-10.421 12.999l-.695 1.037.695-1.037zm294.487 24.188c4.606-9.118 2.686-16.558-5.31-22.508 9.349 1.814 12.241 13.215 5.31 22.508zm-8.115 9.474c-6.238 4.275-22.078 4.101-28.014-.336 1.841.566 2.85.806 3.805 1.183 6.727 2.657 13.325 1.761 19.942-.51 1.307-.448 2.839-.241 4.267-.337zm-62.468-27.479l8.452 8.78 10.86 10.789c-2.101-1.474-4.2-2.539-5.769-4.127-4.435-4.489-8.665-9.182-12.929-13.837-.36-.394-.371-1.107-.543-1.674.003-.002-.071.069-.071.069zm25.933 18.457c-5.448-2.191-9.8-5.931-14.178-9.635l.463-.649 13.633 10.364.082-.08zm47.438 4.421l5.119-9.433.71.367-5.002 9.612-.827-.546zm-331.01 420.085l11.279 6.549c1.174-3.177-1.576-4.007-2.793-5.422-1.411-1.64-3.251-2.909-4.713-4.537 6.87 3.432 10.628 9.854 15.137 15.836l-19.304-11.854.394-.572zm-49.844 6.297c5.52 12.098 13.9 16.024 26.18 9.205-9.952 8.725-22.909 4.121-26.18-9.205zm10.868-18.615c-.231.418-.356 1.024-.711 1.228-4.852 2.777-6.803 7.348-7.899 12.493-.197.926-.644 1.798-1.128 3.104-1.71-5.846 3.597-14.507 9.79-16.767l-.052-.058zm39.713 7.102l-11.916-4.51c4.911-.819 8.738.803 11.916 4.51z"/><path d="M122.267 591.415c4.056-3.724 10.003-5.478 15.826-4.234-1.483.108-3.042-.04-4.433.373-3.852 1.143-7.633 2.52-11.443 3.803-.002-.001.05.058.05.058zm61.228 32.182l-5.361-6.423c2.664 1.305 5.207 2.765 5.361 6.423zm-45.731-26.427c4.513-1.861 7.923-.245 11.509 1.223l-11.509-1.223zm-21.267 1.199l9.007-7.432.54.633-8.936 7.476-.611-.677zm389.721-373.271l-3.604 10.503c-1.786-5.722-.185-10.03 3.604-10.503zm49.124 83.09l1.784-13.634 1.17.171-2.146 13.579-.808-.116zm3.018-3.894v15.054h-.513v-15.054h.513zm-52.153-74.631l3.783-5.194c1.857 1.861 1.857 1.861-3.783 5.194zM48.409 455.718c2.338-.202 1.082 1.332.961 2.15l-1.506 8.976-.943 5.978c-1.135 8.721-2.187 17.446-1.032 26.258.224 1.705.434 3.412.215 5.259-.277-.949-.76-1.892-.798-2.851-.265-6.61-.797-13.238-.538-19.832.248-6.302 1.282-12.578 2.108-18.849.315-2.389 1.011-4.727 1.533-7.089zm18.506 77.237l5.728 5.314-.36.68c-1.121-.427-2.398-.638-3.336-1.316-4.7-3.402-9.117-7.007-11.831-12.436-1.804-3.608-4.413-6.813-6.64-10.213-.261-.399-.385-.889-.073-1.656.746 1.208 1.438 2.451 2.245 3.617l10.336 14.795c1.222 1.724 2.948 2.155 4 1.16 0-.001-.069.055-.069.055zm-22.014-23.889l-4.924-22.342 1.199-.255 5.046 22.407-1.321.19zm29.683 35.564c6.021.784 12.27 1.168 17.906 5.669l-17.906-5.669zm-32.636-40.651l7.029 14.098c-2.946-2.026-6.364-8.876-7.029-14.098zM66.5 288.364c1.13-4.533 4.713-6.844 7.179-4.973l-7.179 4.973zm-3.271 6.149c-.919 2.128-2.038 4.196-2.698 6.402-.609 2.031-.726 4.21-1.113 6.667-1.626-5.424 1.058-9.324 3.811-13.069zm-10.963 68.511v-7.828l.547.003v7.828l-.547-.003zM47.59 274.69l-2.171 1.663-1.152-4.653.452-.306 2.871 3.296zm512.964 227.079c-.518-7.082-5.527-11.469-9.816-16.379 3.842-.386 10.728 10.971 9.816 16.379zm3.867-6.246l-1.379-14.169.729-.083 1.704 14.133-1.054.119zM56.98 270.445l1.71-14.98c1.511 1.072.137 4.5 2.735 3.106l-4.445 11.874zm5.54-13.355c3.584-5.527 8.551-8.21 11.771-7.349L62.52 257.09zm36.595-34.316c3.724.244 5.842 2.886 8.035 6.864l-8.035-6.864zm472.938 222.247c-.278-2.582-1.665-3.874-4.408-3.718 1.977.016 4.076-2.457 5.682.341.822 1.435.516 2.782-1.341 3.319l.067.058zm-12.936 10.978c-1.117-2.447-2.27-4.851-1.521-7.326l.94-.043.581 7.369zm-58.702-242.747c3.822-1.193 7.871-1.938 11.397-3.718 2.978-1.501 5.556-4 7.933-6.427 2.591-2.647 2.18-4.759-1.064-8.975 2.29-.571 3.18 1.031 3.973 2.484 1.207 2.213 1.997 4.6.161 6.859-5.682 6.994-13.014 10.222-22.044 9.425-.182-.016-.355-.12-.533-.183l.177.535zm-17.112-3.496l12.264 4.282-.267.783-12.257-4.286.26-.779zM87.404 562.765c.276-.36.519-.999.833-1.036 3.747-.443 7.505-.797 11.317-.618l-2.423.479 3.907.417-.013.647c-3.649 0-7.299-.003-10.948.002l-2.718.039.045.07z"/><path d="M87.359 562.694l-6.052 2.595c1.626-3.443 3.926-5.147 7.957-5.893l-3.257 2.351 1.393 1.01c.004.008-.041-.063-.041-.063zm-10.744 8.068l3.442-6.942.888.453-3.031 7.078-1.299-.589zm448.206-10.951c9.042 3.284 14.314 13.371 9.744 18.94 1.955-9.116-1.929-15.076-9.744-18.94zM19.463 391.769h28.538c-9.522 1.708-19.042 1.835-28.538 0zm19.811-2.122c-.488.318-.973.906-1.466.913l-13.704.042-.029-.885 15.262.002c.002.002-.063-.072-.063-.072zm550.164 3.493l-16.87.89-.06-1.028 16.961-1.055-.031 1.193zM219.017 642.387l1.872 10.099-.853.273-3.465-10.529 2.446.157zm39.19-399.378c-4.348 5.139-9.445 8.942-15.952 9.53l11.119-6.371 4.006-3.655.827.496z"/><path d="M257.38 242.514l-4.006 3.655-11.208 4.56 13.963-8.565c.237-.142.787.236 1.191.375 0 .002.06-.025.06-.025zm37.758 288.906l5.437-15.539c1.762 0 2.894.837 3.345 2.931.933 4.341 2.075 8.637 3.13 12.951l.952.115 3.983-13.288-1.943-2.209c.437-.273.678-.557.927-.563 6.835-.148 13.672-.431 20.505-.34 4.865.064 5.043.515 4.677 6.019-3.078-2.066-6.188-3.792-9.907-1.811-.953 7.217-.093 7.831 7.716 4.892v6.401l-7.661-1.201v7.628c4.266 1.689 7.728-.294 10.933-2.766.351.602.549.782.535.943-.578 6.689.423 6.162-6.679 6.187l-11.952.153c-.146.002-.297-.249-.354-.3 3.307-6.515 2.786-13.17 1.093-19.904-.171-.68.077-1.538-.25-2.085-.457-.764-1.194-1.652-1.964-1.832-.506-.117-1.672.8-1.876 1.46l-6.179 20.546c-.342 1.098-1.332 1.994-2.023 2.983-1.126-.885-2.85-1.554-3.265-2.696-1.109-3.057-1.65-6.318-2.434-9.495-.211-.854-.483-1.692-.988-3.443l-3.958 11.792c-.454 1.319-.245 2.976-2.649 2.978-2.286.002-2.831-1.317-3.265-2.898-1.457-5.326-2.688-10.719-4.277-16.004-.748-2.486-2.115-4.786-3.413-7.634 2.12.141 4.812.228 7.467.587.453.062.905 1.25 1.09 1.985l3.247 13.457zm-103.21-22.739c-4.105 1.926-4.542 5.976-5.506 9.608-.861 3.246-1.157 6.641-1.958 9.908-.293 1.196-1.208 3.038-2.032 3.149-2.109.283-4.177-.234-5.146-2.814-1.867-4.97-3.976-9.848-5.995-14.76-.15-.364-.386-.694-1.064-1.891-.168 6.308-3.69 11.566.08 18.177-3.022-.492-5.422-.809-7.763-1.369-.268-.063-.5-1.614-.238-2.272.56-1.405 1.789-2.593 2.146-4.02.895-3.568 1.62-7.198 2.094-10.845.309-2.379.058-4.829.058-7.252 6.554.085 7.336.781 9.888 7.004 1.45 3.536 3.472 6.838 5.602 10.146 1.011-4.74 3.283-9.312.196-14.757l9.631 1.126.007.862zm186.362 19.27l3.221 10.129h-9.418c2.396-5.367.975-20.002-2.065-23.463.171-.218.333-.632.528-.648 4.867-.393 9.736-.972 14.608-1.004 2.337-.016 4.708 1.063 5.262 3.886.545 2.782-.037 5.286-2.345 7.18-.379.311-.771.604-1.572 1.23l9.381 12.092c-2.888 0-5.195.108-7.479-.074-.588-.047-1.197-.943-1.633-1.564-1.527-2.176-2.882-4.48-4.516-6.569-.68-.869-1.896-1.316-2.87-1.956l-1.102.761zm-.112-11.143l.496 7.488c4.731-.271 5.976-1.533 5.585-5.133-.31-2.859-.979-3.157-6.081-2.355zm-141.649 22.011c-9.601.337-12.776-6.439-12.23-14.197.564-8.003 6.462-13.251 14.03-12.625 7.088.588 12.016 6.444 11.5 13.666-.619 8.63-5.795 13.75-13.3 13.156zm7.563-12.618c-.145-1.623-.138-2.447-.302-3.236-.981-4.703-4.266-7.596-8.083-7.17-3.111.347-5.429 3.898-5.509 8.454-.027 1.529-.083 3.061-.043 4.588.098 3.705 1.477 5.644 4.492 6.421 3.058.787 6.642-.682 7.976-3.658.855-1.906 1.125-4.073 1.469-5.399zm-48.066 6.861c3.508-5.278 3.107-11.181 4.213-16.701.321-1.6 1.366-3.639-1.181-4.674-.044-.019.234-1.736.704-1.969 3.302-1.638 14.905 1.239 17.844 4.289 3.737 3.876 4.549 9.929 1.941 15.095-1.939 3.84-4.744 6.297-9.434 5.858-3.554-.333-7.136-.354-10.689-.687-1.133-.107-2.215-.773-3.398-1.211zm10.744-18.943l-1.303 7.072-1.197 6.914c-.364 2.402.566 3.62 3.162 3.638 4.668.03 7.69-3.329 8.106-9.246.427-6.084-2.375-8.863-8.768-8.378zm201.245-3.853l10.966-1.299c-4.264 5.357-1.521 10.283-1.105 15.059.616 7.076-1.441 10.636-7.751 12.025-5.338 1.177-10.991-2.451-12.581-8.21-.594-2.153-1.004-4.378-1.262-6.598-.347-2.995.169-6.278-3.955-7.678l.52-1.078 10.848-1.532c-2.604 6.563-1.102 12.457.898 18.192.954 2.737 3.834 2.104 5.902 1.692 1.852-.368 3.125-1.852 2.657-4.139-.774-3.793-1.343-7.637-2.306-11.379-.4-1.552-1.592-2.903-2.831-5.055zm-135.14 12.422c-1.478-1.286-2.828-2.833-4.503-3.84-3.008-1.809-6.698-.756-8.565 2.132-2.592 4.007-2.071 10.579 1.159 14.046.547.587 1.22 1.341 1.92 1.444 1.597.237 3.657.738 4.776-.003 1.558-1.033.895-4.989-.48-6.48-.601-.652-.971-1.518-1.446-2.286.946-.263 1.91-.795 2.835-.735 2.462.158 4.908.572 7.127.855-.586 2.375-1.157 4.15-1.436 5.971-.294 1.909-.308 3.86-.496 6.526-3.924 0-7.845.524-11.571-.105-8.763-1.48-11.39-8.24-9.133-16.495 2.629-9.62 10.086-10.962 18.478-8.728 2.996.796 3.395 3.961 1.335 7.698zm163.112-10.804l-7.107-1.571c-1.907-.418-2.88 1.032-2.798 2.296.068 1.052 1.278 2.442 2.332 2.932 2.203 1.024 4.702 1.392 6.96 2.32 4.034 1.658 5.467 3.761 4.988 6.775-.764 4.814-3.868 8.179-7.94 8.396-2.523.135-5.059.025-7.688.025-.232-.906-.472-1.469-.506-2.045-.079-1.33-.061-2.667-.081-4 1.141.521 2.269 1.072 3.426 1.554.93.387 2.072 1.184 2.811.923 1.576-.557 2.951-1.682 4.41-2.574-.815-1.232-1.358-2.937-2.503-3.595-2.098-1.205-4.571-1.734-6.848-2.647-3.333-1.338-5.087-4.21-4.82-7.692.214-2.773 2.467-5.274 5.696-6.017 1.671-.383 3.438-.638 5.139-.544 4.077.223 4.862 1.324 4.529 5.464zm-69.716 27.449l-12.504.829-.865-.465c4.164-1.618 2.683-4.488 2.491-7.094l-.973-14.385c-3.953-1.231-4.505 3.265-7.109 4.227-2.276-4.927-.935-7.535 4.131-7.928 4.174-.323 8.364-.526 12.55-.558 3.152-.023 3.482.605 2.84 3.99h-5.776c.265 5.024.752 9.991.708 14.953-.03 3.235 2.416 4.412 4.507 6.431zm79.188-32.415l-5.384 4.62-1.048-6.632 20.313-3.605.967 7.05-8.488-2.247 4.886 21.811-8.3 2.104c2.095-7.896-1.2-15.105-2.019-22.611l-.927-.49zm-291.35-5.276l7.331 1.766-2.739 8.948c-.529 2.064-.749 4.212-1.063 6.329-.457 3.074-1.976 6.33 1.388 9.131-2.558-.225-5.155-.261-7.647-.791-.736-.156-1.825-1.877-1.637-2.587.764-2.89 2.138-5.617 2.945-8.5.71-2.539 1.098-5.191 1.38-7.82.214-2.007.042-4.055.042-6.476zm313.1-21.087c.948-.285 1.909-.828 2.844-.788.987.044 1.951.642 2.925.997l-.22 1.088-5.781-.719.232-.578zm-41.717-207.988v114.494l-2.828.189c-36.271 0-72.543-.009-108.814-.019-4.001-.001-4.011-.004-3.997-4.037l.262-77.768-.311-29.498-.002-3.362 115.69.001zm-39.836 23.064c11.819 11.701 29.807 7.283 31.302-2.902-6.319 2.873-12.984 2.977-19.584 1.865-4.698-.791-9.203-2.675-13.872-3.723-1.385-.311-3.373.155-4.444 1.04-.699.579-.647 2.692-.237 3.878 1.593 4.604.91 6.237-3.828 7.993-2.462.913-3.742 3.461-2.547 5.842 1.071 2.138 3.146 1.931 5.061 1.174 3.836-1.517 7.543-3.223 8.101-8.208 9.462 7.19 18.92 7.501 23.882 1.186-8.091 2.426-23.708-2.66-23.834-8.145zm-70.082-4.005l1.068 1.672c5.23 8.79 16.373 11.614 25.35 6.561 2.928-1.647 6.068-2.917 9.11-4.358l.368.701-4.332 2.951c3.92 7.845 10.515 12.807 15.793 11.636l.328-5.162c.063-1.552-.452-2.421-2.297-2.44-4.153-.042-5.419-2.389-4.306-6.471.458-1.68.088-3.907-.721-5.46-.356-.684-2.763-.491-4.208-.361-1.299.117-2.572.647-3.831 1.072-6.979 2.356-14.112 3.522-21.438 2.296-3.572-.601-7.062-1.695-10.884-2.637zm46.341 33.579c.491-4.091.314-4.444-2.601-4.974-5.335-.97-9.962 1.86-11.293 6.906-1.307 4.954 1.527 9.673 6.696 11.433 4.537 1.544 9.096 3.073 13.502 4.946 6.904 2.936 7.815 6.866 3.24 12.699 2.223 2.682 3.021 2.788 5.6.737 3.675-2.921 4.464-9.639 1.164-12.899-2.05-2.026-4.563-3.719-7.134-5.05-3.34-1.73-6.832-3.48-10.464-4.24-3.438-.719-4.708-2.464-5.571-5.52-.763-2.703-.13-4.338 2.634-4.445 1.401-.053 2.815.26 4.227.407zm7.335 10.695c.407-1.86 1.084-3.479 1.057-5.087-.113-6.731-.449-13.459-.683-20.189-.125-3.609-.05-7.038 2.868-9.931 1.789-1.774.717-4.077-1.814-4.434-2.397-.338-4.832-.414-7.729-.644.299 1.508.192 3.591.859 3.878 2.774 1.195 2.27 3.355 2.127 5.434l-1.752 24.126c-.316 4.567-.171 4.723 5.067 6.847zm2.508 37.428c3.908-2.405 4.93-5.329 3.566-8.31-1.598-3.49-4.324-5.839-7.66-7.638-1.943-1.048-3.821-2.265-5.57-3.614-2.588-1.997-.245-4.242-.203-6.393.023-1.17-.516-2.842-1.384-3.434-1.581-1.079-3.023-.151-4.084 1.425-4.202 6.244-.911 12.293 5.61 15.595 5.22 2.644 10.989 4.184 9.725 12.369zm-.892-37.329c3.399 2.699 6.438 3.387 9.221 2.115 5.06-2.313 6.882-6.566 5.221-12.191-1.099-3.722-5.384-5.839-10.231-5.371-2.11.204-3.152.727-3.009 3.09.139 2.288 1.358 1.834 2.901 1.812 2.298-.035 4.439.966 4.781 3.451.344 2.501-.624 4.646-3.419 5.434-1.82.512-3.621 1.096-5.465 1.66zm-21.255-28.976l-13.7 5.163c1.057.396 2.463.585 3.42 1.343 3.122 2.473 6.34 1.349 9.635.706 1.344-.263 2.867-.407 4.146-.039 2.87.826 5.638 2.006 8.446 3.041 1.202-2.65.247-3.58-1.714-4.349-3.723-1.458-8.031-1.988-10.233-5.865zm47.658 4.221c-2.148-.94-3.964-1.598-5.643-2.507-1.744-.944-3.355-2.131-5.003-3.198-2.998 4.018-6.216 6.274-11.332 7.823-1.873.567-3.274 1.204-2.273 3.455.925-.219 1.808-.5 2.711-.629 4.778-.685 9.144-3.473 14.419-1.968 2.242.637 5.257-.169 7.121-2.976zm-35.161-24.004c-.005 3.456 2.263 5.721 5.694 5.687 2.651-.026 5.939-3.585 5.9-6.386-.034-2.556-3.045-5.212-5.89-5.199-3.284.016-5.698 2.512-5.704 5.898zm-17.747 12.906c-3.342 1.211-6.248 2.513-9.288 3.295-2.949.759-6.035.984-9.261 1.474 5.516 5.275 17 4.875 21.442-.525l-2.893-4.244zm21.652 64.061l-1.091.503c0 5.192-.113 10.389.098 15.572.041 1.014 1.338 1.978 2.056 2.964.797-.651 2.129-1.185 2.303-1.973 1.118-5.055 1.296-10.146-.963-14.979-.412-.878-1.583-1.4-2.403-2.087zm-.593-19.021c-1.384 8.326-1.384 8.326 3.449 9.849.398-2.186 1.418-4.434.946-6.306-.343-1.362-2.658-2.228-4.395-3.543zm-2.598 26.648c0-2.843.093-5.148-.064-7.436-.041-.583-.803-1.436-1.375-1.572s-1.563.276-1.956.775c-2.067 2.615-.877 6.092 3.395 8.233zM185.03 272.363h115.553l.181 3.338-.021 108.242c.003 2.435-.529 3.382-3.196 3.376l-109.162-.083h-3.356l.001-114.873zm71.471 82.517l1.059.305 1.278-6.224c.868-4.482 1.514-9.017 2.616-13.439 1.327-5.328 3.197-10.52 4.51-15.85.72-2.919.778-6.002 1.134-9.011l.814.104c-.721 5.448-1.043 10.987-2.277 16.316s-3.483 10.404-5.083 15.654c-1.045 3.43-1.769 6.971-.306 11.272l1.393-2.995 1.155 2.954 1.129-2.891 1.43 1.902.945-.374 1.792-6.367v4.961c5.396-5.386 2.243-12.757 5.036-18.763l-1.047 15.84c4.322-1.756 6.712-5.584 6.393-9.495l-1.609-20.542.57-.059 2.327 20.848c5.172-4.413 3.646-10.613 4.026-16.372l1.596 7.81 1.317.17c.713-2.09 1.967-4.16 2.05-6.275.422-10.758-4.846-19.602-11.166-27.436-3.588-4.447-9.039-7.729-14.208-10.492-10.731-5.738-22.155-5.65-33.348-1.402-11.905 4.518-20.14 12.366-21.044 26.009-.293 4.418-2.918 7.421-6.324 10.023-4.195 3.205-8.526 6.353-12.147 10.147-2.464 2.581-4.026 6.2-1.59 10.04l3.171-2.127.452.356-1.493 2.581 2.733.245c-3.113 2.704-3.26 3.411-.998 6.716 1.615 2.357 3.319 4.683 5.242 6.787 1.055 1.153 2.537 2.14 4.016 2.635 3.78 1.265 7.624 2.185 11.713 1.122 2.014-.524 4.172-.622 6.271-.67 6.045-.137 11.501-1.663 15.406-6.602.899-1.137 1.616-2.811 1.566-4.208-.067-1.917-.946-3.804-1.477-5.704l.568-.245 2.387 4.677.691-.271-1.992-6.544c3.204 1.757 3.681 4.81 3.196 8.022-.284 1.886-.738 4.136-1.963 5.404-2.018 2.089-4.73 3.504-7.137 5.222l-4.962 3.613-.396-.492 1.564-2.048c-1.524.256-2.635 1.512-3.706 1.479-3.046-.096-3.625 1.894-4.333 4.062l1.421.23-2.144 3.229.433.424 4.708-2.079.404.5-4.077 5.889 4.309-2.709.192.358-5.197 6.095c6.134.908 6.995-5.147 10.945-7.121l-5.333 8.706c.635.14 1.105.409 1.421.284 1.268-.5 2.488-1.122 3.883-1.771l-.735 1.697c3.466 1.837 3.829-1.048 4.912-2.918.489-.846 1.1-1.621 1.656-2.427l.378.334-1.841 6.35.595.212 7.091-6.686-.602 7.264.728.218 3.043-4.383.549 1.082 3.271-5.917.447.231-2.652 7.202.687.226 1.14-3.034 1.597 1.503 1.609-2.766c2.779 1.617.105 3.381.227 5.44l2.667-2.49c.299-1.641.223-2.609.65-3.23.625-.91 1.748-1.469 2.417-2.359 1.44-1.918 2.727-3.952 4.076-5.939l.82.412c-2.581 3.585-4.298 7.375-3.157 12.717l6.463-12.987.907.393-3.914 9.688 4.114-5.38.694.327-2.332 5.254c5.579-1.917 5.131-7.243 6.732-12.133l.617 10.265c3.124-3.39 4.551-6.726 4.976-10.282s.093-7.195.093-10.83c.1.216.25.396.261.585l.685 11.492c.057.657 1.032 1.843 1.363 1.772 2.523-.55 3.859-2.859 3.574-5.641-.128-1.252-.129-2.517-.188-3.775l.526-.033 1.074 6.555c.722-.787 1.793-1.441 2.061-2.335.977-3.267 1.779-6.594 2.465-9.937.466-2.275 1.272-4.758.792-6.893-.974-4.335-2.716-8.499-3.965-12.208-.365.973-.595 2.512-1.423 3.593-1.428 1.865-3.432 3.294-4.828 5.177a41.75 41.75 0 0 1-11.039 10.325c-.782.504-1.255 1.486-1.419 1.69-1.293.503-1.95.835-2.646 1.008-.691.172-1.422.186-2.136.269-1.163.15-2.578 1.905-3.319 1.656-2.594-.871-4.05.464-5.333 1.869-3.752-3.322-4.854-9.93-11.865-8.439l-.586 2.746c-2.644-3.663.546-7.068-.588-10.614l.776-.042 1.077 5.972.891-.081c.236-3.422.688-6.847.628-10.263-.037-2.084-.909-4.145-1.325-6.232-1.085-5.434 2.626-9.936 2.98-15.095.251-3.672 2.624-7.216.657-11.03-.252-.489-.347-1.059-.516-1.592l.553-.21 2.55 5.521.349-3.181.784 2.081.497-.068v-5.057c2.838 2.793 1.263 5.581.653 8.066-.753 3.075-2.239 5.962-3.261 8.98-.767 2.265-1.303 4.607-1.941 6.916l-.503-.088-.328-2.93-.846.072.741 10.4.536-.021 2.531-7.106.725.252c-.762 3.026-1.711 6.022-2.218 9.09-.323 1.951-.617 4.313.175 5.962 1.782 3.71 4.248 7.091 6.82 11.224v-3.074l.643-.106 1.078 3.311zm213.174 96.008l7.105-10 .832.602-7.252 10.004-.685-.606zm-136.025 1.68c10.512-4.489 20.26-4.661 29.792.857-9.614-3.353-19.385-2.557-29.792-.857zm29.434-17.921c-10.754-.565-20.98-1.859-31.257.948 3.486-3.809 25.831-4.632 31.257-.948zm-27.753 7.603c9.413-1.248 18.918-3.25 27.906 2.149-9.129-3.395-18.587-1.348-27.906-2.149zm27.273-24.65l-26.729-1.107c9.507-2.113 18.412-2.021 26.729 1.107zm-1.225 7.503h-27.836c9.327-2.951 18.64-2.228 27.836 0zm39.404 27.331h-30.071c4.218-3.65 19.921-3.438 30.071 0zm.348-9.093c-10.441-1.689-20.634-2.321-31.183.396 5.687-4.484 26.559-4.699 31.183-.396zm-30.159-25.212c9.679-3.26 19.358-4.051 29.063-.016-9.721-1.968-19.408-1.608-29.063.016zm-.594 6.854c9.198-1.6 18.562-2.637 27.951 0h-27.951zm-22.886-230.416c1.02-4.513 1.776-8.352 2.862-12.094.145-.498 2.138-.983 2.964-.665 2.822 1.083 4.131 3.807 3.673 6.38-.316 1.779-2.381 3.494-4.051 4.705-1.276.926-3.159 1.017-5.448 1.674zm34.799.428v10.761l-6.823-3.131 5.97-7.858.853.228zm81.241 45.769c5.744 3.064 6.685 12.645 1.118 16.704-2.806 2.046-6.043 3.541-9.203 5.036-.885.419-2.236.135-3.292-.142-4.659-1.221-5.763-4.958-2.396-8.305l13.773-13.293zm16.497 26.803c4.882.106 7.74 2.162 8.835 5.523 1.199 3.684-.242 8.728-3.498 10.997a38 38 0 0 1-7.232 3.924c-3.298 1.356-7.446.295-9.327-1.995-1.975-2.405-2.483-7.372-.744-10.128 3.038-4.817 7.312-7.844 11.966-8.321zm-93.442 311.181c-.285-3.584.998-6.297 4.299-7.758 3.249-1.438 6.706-.439 9.377 2.524 3.432 3.808 5.147 8.267 4.961 13.411-.217 6.005-4.823 8.839-10.376 6.323-6.253-2.832-7.827-8.368-8.261-14.5zM120.702 283.083c4.392.679 9.166 2.28 12.327 6.846 1.867 2.697 2.461 5.662.69 8.647-1.869 3.149-4.162 5.501-8.42 4.456-5.674-1.394-10.646-3.456-12.735-9.63-1.776-5.25 1.67-10.254 8.138-10.319zm139.957 309.403c-.224 3.899-1.541 7.183-3.878 10.034-3.292 4.017-9.154 3.375-11.456-1.304-3.002-6.102-2.098-12.016 1.749-17.381 3.294-4.594 9.238-3.84 11.487 1.383.989 2.299 1.416 4.839 2.098 7.268zm155.69-383.913c-1.316 1.456-2.2 3.236-3.555 3.732-1.744.639-3.874.345-5.813.175-.23-.02-.603-1.849-.394-2.715.375-1.562 1.226-3.002 1.723-4.542 1.04-3.219 2.254-3.745 4.719-1.512 1.277 1.159 2.02 2.906 3.32 4.862zM118.142 385.211l2.939-4.897c.841-1.36 1.235-2.918 3.745-2.18 1.502.441 3.474-.867 5.27-1.185.633-.112 1.372.378 2.015 1.084-5.803-.84-9.123 2.269-11.887 6.478-.391.595-1.11.974-1.677 1.453l-.405-.753z"/><path d="M118.142 385.211l.405.751-2.195 12.72c-1.43-5.132 1.018-17.986 4.85-21.257l-3.06 7.786zM326.27 590.329l4.016 10.188-7.02 1.188 3.004-11.376zm-140.844-34.953l-2.599 9.654-5.673-2.287 7.4-7.799.872.432zm33.12-245.754l7.229 4.401c-1.958 2.41-4.381 3.555-6.604 2.695-1.228-.475-2.241-3.162-2.2-4.821.048-1.903-1.03-5.025 2.985-5.49l-1.41 3.215zm41.12-4.236c.06 12.976-5.297 25.797-9.365 38.907l9.365-38.907zm-37.901 48.77c-7.905 6.867-23.012 4.078-25.594-4.859 3.68 4.896 8.497 6.611 13.598 7.781.563.129 1.204.355 1.715.208 3.259-.936 6.492-1.964 10.281-3.13zm44.77-15.93l1.922-20.622 1.246.114-1.997 20.615-1.171-.107zm6.378-27.38v14.884l-.918.002v-14.795l.918-.091zm8.742 21.101l-3.069-18.797c2.63 5.74 3.565 11.76 3.069 18.797zm-24.39 3.356l-1.501 14.818-.44.055.052-7.353c.248-2.518.908-4.995 1.388-7.49l.501-.03zm28.658 18.986c-.181-2.893-2.859-5.58-.8-8.965l1.861 6.473c.126.75-.68 1.657-1.061 2.492zm-53.88-.077l-1.102-5.41c3.594 1.236 3.637 1.458 1.102 5.41zm30.258-33.733l.605-10.092.972.063-.898 10.034-.679-.005z"/></svg>